SplineFontDB: 3.0
FontName: SWIFTDAY3BoldItalic
FullName: SWIFTDAY3 Bold Italic
FamilyName: SWIFTDAY3
Weight: Bold
Copyright: Copyright (c) 2015, kelvin,,,
UComments: "2015-2-16: Created with FontForge (http://fontforge.org)"
Version: 001.000
ItalicAngle: -10
UnderlinePosition: -100
UnderlineWidth: 50
Ascent: 770
Descent: 230
InvalidEm: 0
LayerCount: 2
Layer: 0 0 "Back" 1
Layer: 1 0 "Fore" 0
XUID: [1021 664 -1180520147 15462304]
FSType: 0
OS2Version: 0
OS2_WeightWidthSlopeOnly: 0
OS2_UseTypoMetrics: 1
CreationTime: 1424125131
ModificationTime: 1427581323
PfmFamily: 17
TTFWeight: 700
TTFWidth: 5
LineGap: 0
VLineGap: 0
OS2TypoAscent: 0
OS2TypoAOffset: 1
OS2TypoDescent: 0
OS2TypoDOffset: 1
OS2TypoLinegap: 90
OS2WinAscent: 0
OS2WinAOffset: 1
OS2WinDescent: 0
OS2WinDOffset: 1
HheadAscent: -168
HheadAOffset: 1
HheadDescent: 753
HheadDOffset: 1
OS2CapHeight: 0
OS2XHeight: 0
OS2Vendor: 'PfEd'
Lookup: 4 0 1 "Opentypeshortcuts" { "Opentypeshortcuts subtable"  } ['liga' ('latn' <'dflt' > 'grek' <'dflt' > 'DFLT' <'dflt' > ) ]
Lookup: 4 0 1 "Oldstyleinitialize" { "Oldstyleinitialize subtable"  } ['liga' ('math' <'dflt' > 'latn' <'dflt' > 'grek' <'dflt' > 'DFLT' <'dflt' > ) ]
Lookup: 6 0 0 "Oldstylechaining" { "Oldstylechaining subtable"  } ['calt' ('math' <'dflt' > 'latn' <'dflt' > 'grek' <'dflt' > 'DFLT' <'dflt' > ) ]
Lookup: 1 0 0 "Single Substitution lookup 3" { "Single Substitution lookup 3 subtable"  } []
Lookup: 6 0 0 "Oldstylerendering" { "Oldstylerendering subtable"  } ['calt' ('math' <'dflt' > 'latn' <'dflt' > 'grek' <'dflt' > 'DFLT' <'dflt' > ) ]
Lookup: 1 0 0 "Single Substitution lookup 5" { "Single Substitution lookup 5 subtable"  } []
Lookup: 4 0 1 "Oldstyleclosingtag" { "Oldstyleclosingtag subtable"  } ['liga' ('math' <'dflt' > 'latn' <'dflt' > 'grek' <'dflt' > 'DFLT' <'dflt' > ) ]
Lookup: 6 0 0 "Tagwarning" { "Tagwarning subtable"  } ['calt' ('math' <'dflt' > 'latn' <'dflt' > 'grek' <'dflt' > 'DFLT' <'dflt' > ) ]

StartChar: exclam
Encoding: 1 33 1
Width: 302
GlyphClass: 2
Flags: HMW
LayerCount: 2
Back
Fore
SplineSet
198 640 m 1
 319 650 l 1
 332 641 l 1
 210 214 l 5
 148 214 l 1
 198 640 l 1
EndSplineSet
Refer: 14 46 N 1 0 0 1 4 0 2
Validated: 1
Ligature2: "SmallCapsClose subtable" exclam.smcpflag less slash s c greater
Substitution2: "Single Substitution lookup 14 subtable" exclam.smcpflag
EndChar

StartChar: quotedbl
Encoding: 2 34 2
Width: 350
GlyphClass: 2
Flags: HMW
LayerCount: 2
Back
Fore
SplineSet
324 637 m 1
 404 647 l 1
 418 641 l 1
 365 458 l 1
 314 458 l 1
 324 637 l 1
160 637 m 1
 240 647 l 1
 254 641 l 1
 201 458 l 1
 150 458 l 1
 160 637 l 1
EndSplineSet
Validated: 1
Ligature2: "SmallCapsClose subtable" quotedbl.smcpflag less slash s c greater
Substitution2: "Single Substitution lookup 14 subtable" quotedbl.smcpflag
EndChar

StartChar: numbersign
Encoding: 3 35 3
Width: 453
GlyphClass: 2
Flags: HMW
LayerCount: 2
Back
Fore
SplineSet
413 592 m 1
 458 578 l 1
 289 29 l 1
 244 43 l 1
 413 592 l 1
70 191 m 1
 70 242 l 1
 439 242 l 1
 439 191 l 1
 70 191 l 1
126 391 m 1
 126 442 l 1
 495 442 l 1
 495 391 l 1
 126 391 l 1
273 592 m 1
 318 578 l 1
 149 29 l 1
 104 43 l 1
 273 592 l 1
EndSplineSet
Validated: 5
EndChar

StartChar: dollar
Encoding: 4 36 4
Width: 487
GlyphClass: 2
Flags: HMW
LayerCount: 2
Back
Fore
SplineSet
132 73 m 1
 159 59 196 48 236 48 c 3
 303 48 351 74 351 138 c 3
 351 196 320 230 251 276 c 0
 165 333 140 381 140 441 c 3
 140 519 213 607 343 607 c 3
 409 607 457 594 477 585 c 1
 460 475 l 1
 419 476 l 1
 419 554 l 1
 402 561 370 571 337 571 c 3
 270 571 232 537 232 473 c 3
 232 422 271 388 334 347 c 0
 420 290 450 247 450 184 c 3
 450 92 376 11 224 11 c 3
 155 11 112 23 74 40 c 1
 82 161 l 1
 127 162 l 1
 132 73 l 1
332 689 m 1
 362 685 l 1
 241 -86 l 1
 211 -82 l 1
 332 689 l 1
EndSplineSet
Validated: 5
Substitution2: "Single Substitution lookup 14 subtable" dollar.smcpflag
Substitution2: "'smcp' Lowercase to Small Capitals lookup 10-1" dollar.smcp
Substitution2: "onumOldstyleFigureslookup0 subtable" dollar.oldstyleproportional
Substitution2: "Single Substitution lookup 3 subtable" dollar.onumflag
EndChar

StartChar: percent
Encoding: 5 37 5
Width: 875
GlyphClass: 2
Flags: HMW
LayerCount: 2
Back
Fore
SplineSet
358 637 m 3
 421 637 478 611 478 521 c 3
 478 351 335 278 265 278 c 3
 201 278 144 304 144 394 c 3
 144 564 287 637 358 637 c 3
300 320 m 3
 360 320 381 398 381 496 c 3
 381 565 364 596 323 596 c 3
 262 596 242 518 242 420 c 3
 242 351 258 320 300 320 c 3
721 347 m 3
 784 347 841 321 841 231 c 3
 841 61 698 -12 628 -12 c 3
 564 -12 507 14 507 104 c 3
 507 274 650 347 721 347 c 3
663 30 m 3
 723 30 744 108 744 206 c 3
 744 275 727 306 686 306 c 3
 625 306 605 228 605 130 c 3
 605 61 621 30 663 30 c 3
683 638 m 1
 722 612 l 1
 297 -11 l 1
 258 15 l 1
 683 638 l 1
EndSplineSet
Validated: 1
Substitution2: "Single Substitution lookup 14 subtable" percent.smcpflag
Substitution2: "'smcp' Lowercase to Small Capitals lookup 10-1" percent.smcp
Substitution2: "onumOldstyleFigureslookup0 subtable" percent.oldstyleproportional
Substitution2: "Single Substitution lookup 3 subtable" percent.onumflag
EndChar

StartChar: ampersand
Encoding: 6 38 6
Width: 696
GlyphClass: 2
Flags: HMW
LayerCount: 2
Back
SplineSet
126 213 m 5
 306 331 476 446 476 568 c 7
 476 596 470 626 456 645 c 5
 463 661 l 5
 571 690 l 5
 580 681 587 662 587 634 c 7
 587 455 316 307 142 182 c 5
 126 213 l 5
288 384 m 7
 196 384 183 330 183 222 c 7
 183 122 242 53 333 53 c 7
 454 53 544 142 544 236 c 7
 544 281 523 286 478 292 c 5
 486 367 l 5
 604 367 661 382 715 425 c 5
 730 412 l 5
 725 383 696 300 678 293 c 4
 659 285 624 281 579 278 c 5
 582 242 l 5
 582 133 467 -11 295 -12 c 7
 170 -12 78 74 78 183 c 7
 78 334 229 437 338 437 c 7
 372 437 391 429 408 418 c 5
 408 399 377 368 364 362 c 5
 348 374 320 384 288 384 c 7
EndSplineSet
Fore
SplineSet
571 690 m 1
 580 681 587 662 587 634 c 3
 587 469 355 330 183 211 c 1
 187 117 245 53 333 53 c 3
 454 53 544 142 544 236 c 3
 544 281 523 286 478 292 c 1
 486 367 l 1
 604 367 661 382 715 425 c 1
 730 412 l 1
 725 383 696 300 678 293 c 0
 659 285 624 281 579 278 c 1
 582 242 l 1
 582 133 467 -11 295 -12 c 3
 170 -12 78 74 78 183 c 3
 78 334 229 437 338 437 c 3
 368 437 386 431 402 422 c 1
 448 470 476 518 476 568 c 3
 476 596 470 626 456 645 c 1
 463 661 l 1
 571 690 l 1
288 384 m 7
 205 384 186 340 183 251 c 1
 243 291 301 331 348 371 c 1
 332 378 311 384 288 384 c 7
EndSplineSet
Validated: 1
LCarets2: 5 0 0 0 0 0
Ligature2: "SmallCapsClose subtable" ampersand.smcpflag less slash s c greater
Substitution2: "Single Substitution lookup 14 subtable" ampersand.smcpflag
EndChar

StartChar: quotesingle
Encoding: 7 39 7
Width: 188
GlyphClass: 2
Flags: HMW
LayerCount: 2
Back
Fore
SplineSet
160 637 m 5
 240 647 l 5
 254 641 l 5
 201 458 l 5
 150 458 l 5
 160 637 l 5
EndSplineSet
Validated: 1
Ligature2: "SmallCapsClose subtable" quotesingle.smcpflag less slash s c greater
Substitution2: "Single Substitution lookup 14 subtable" quotesingle.smcpflag
EndChar

StartChar: parenleft
Encoding: 8 40 8
Width: 326
GlyphClass: 2
Flags: HMW
LayerCount: 2
Back
Fore
SplineSet
168 211 m 3
 168 35 202 -66 256 -138 c 1
 238 -159 l 1
 157 -89 88 19 88 201 c 3
 88 435 237 608 372 689 c 1
 384 668 l 1
 267 582 168 415 168 211 c 3
EndSplineSet
Validated: 1
Ligature2: "SmallCapsClose subtable" parenleft.smcpflag less slash s c greater
Substitution2: "Single Substitution lookup 14 subtable" parenleft.smcpflag
EndChar

StartChar: asterisk
Encoding: 10 42 10
Width: 459
GlyphClass: 2
Flags: HMW
LayerCount: 2
Back
Fore
SplineSet
335 650 m 1
 349 660 l 1
 399 641 l 1
 403 625 l 1
 332 512 l 1
 314 519 l 1
 335 650 l 1
177 562 m 1
 171 578 l 1
 205 620 l 1
 221 618 l 1
 307 517 l 1
 295 502 l 1
 177 562 l 1
211 384 m 1
 194 384 l 1
 165 428 l 1
 171 444 l 1
 295 494 l 1
 305 478 l 1
 211 384 l 1
391 362 m 1
 385 346 l 1
 335 331 l 1
 322 343 l 1
 313 475 l 1
 332 480 l 1
 391 362 l 1
468 526 m 1
 481 516 l 1
 479 463 l 1
 464 455 l 1
 336 486 l 1
 337 505 l 1
 468 526 l 1
EndSplineSet
Validated: 1
EndChar

StartChar: plus
Encoding: 11 43 11
Width: 460
VWidth: 0
GlyphClass: 2
Flags: HMW
LayerCount: 2
Back
Fore
SplineSet
282 425 m 1
 328 425 l 1
 262 49 l 1
 216 49 l 1
 282 425 l 1
80 215 m 5
 88 259 l 5
 464 259 l 5
 456 215 l 5
 80 215 l 5
EndSplineSet
Validated: 5
EndChar

StartChar: comma
Encoding: 12 44 12
Width: 270
GlyphClass: 3
Flags: HMW
LayerCount: 2
Back
Fore
SplineSet
129 -10 m 1
 100 -2 76 23 76 64 c 3
 76 101 105 131 142 131 c 3
 184 131 211 102 211 50 c 3
 211 -33 132 -102 54 -142 c 1
 42 -120 l 1
 87 -94 129 -58 129 -10 c 1
EndSplineSet
Validated: 1
Ligature2: "SmallCapsClose subtable" comma.smcpflag less slash s c greater
Substitution2: "Single Substitution lookup 14 subtable" comma.smcpflag
Ligature2: "Oldstyleclosingtag subtable" comma.onumflag less slash o n u m greater
Substitution2: "Single Substitution lookup 3 subtable" comma.onumflag
EndChar

StartChar: hyphen
Encoding: 13 45 13
Width: 300
VWidth: 0
GlyphClass: 3
Flags: HMW
LayerCount: 2
Back
Fore
SplineSet
80 200 m 1
 92 264 l 1
 302 264 l 1
 290 200 l 1
 80 200 l 1
EndSplineSet
Validated: 1
Ligature2: "SmallCapsClose subtable" hyphen.smcpflag less slash s c greater
Substitution2: "Single Substitution lookup 14 subtable" hyphen.smcpflag
Ligature2: "Oldstyleclosingtag subtable" hyphen.onumflag less slash o n u m greater
Substitution2: "Single Substitution lookup 3 subtable" hyphen.onumflag
EndChar

StartChar: period
Encoding: 14 46 14
Width: 270
GlyphClass: 3
Flags: HMW
LayerCount: 2
Back
Fore
SplineSet
146 133 m 3
 185 133 216 103 216 64 c 3
 216 25 185 -6 146 -6 c 3
 107 -6 77 25 77 64 c 3
 77 103 107 133 146 133 c 3
EndSplineSet
Validated: 1
Ligature2: "SmallCapsClose subtable" period.smcpflag less slash s c greater
Substitution2: "Single Substitution lookup 14 subtable" period.smcpflag
Ligature2: "Oldstyleclosingtag subtable" period.onumflag less slash o n u m greater
Substitution2: "Single Substitution lookup 3 subtable" period.onumflag
EndChar

StartChar: slash
Encoding: 15 47 15
Width: 302
GlyphClass: 2
Flags: HMW
LayerCount: 2
Back
Fore
SplineSet
395 687 m 1
 434 666 l 5
 68 -51 l 5
 29 -30 l 1
 395 687 l 1
EndSplineSet
Validated: 1
EndChar

StartChar: zero
Encoding: 16 48 16
Width: 532
GlyphClass: 2
Flags: HMW
LayerCount: 2
Back
Fore
SplineSet
285 33 m 7
 375 33 434 200 434 400 c 7
 434 526 417 593 359 593 c 7
 269 593 216 427 216 227 c 7
 216 101 227 33 285 33 c 7
262 -12 m 7
 131 -12 95 66 95 211 c 7
 95 437 218 638 382 638 c 7
 513 638 549 560 549 415 c 7
 549 189 426 -12 262 -12 c 7
EndSplineSet
Validated: 1
Substitution2: "Single Substitution lookup 14 subtable" zero.smcpflag
Substitution2: "'smcp' Lowercase to Small Capitals lookup 10-1" zero.smcp
Substitution2: "onumOldstyleFigureslookup0 subtable" zero.oldstyleproportional
Substitution2: "Single Substitution lookup 3 subtable" zero.onumflag
EndChar

StartChar: one
Encoding: 17 49 17
Width: 406
VWidth: -3
GlyphClass: 2
Flags: HMW
LayerCount: 2
Back
Fore
SplineSet
380 639 m 1
 274 38 l 1
 359 18 l 1
 359 0 l 1
 63 0 l 1
 63 18 l 1
 163 43 l 1
 260 595 l 1
 178 607 l 1
 179 625 l 1
 380 639 l 1
EndSplineSet
Validated: 1
Substitution2: "Single Substitution lookup 14 subtable" one.smcpflag
Substitution2: "'smcp' Lowercase to Small Capitals lookup 10-1" one.smcp
Substitution2: "onumOldstyleFigureslookup0 subtable" one.oldstyleproportional
Substitution2: "Single Substitution lookup 3 subtable" one.onumflag
EndChar

StartChar: two
Encoding: 18 50 18
Width: 518
VWidth: 0
GlyphClass: 2
Flags: HMW
LayerCount: 2
Back
Fore
SplineSet
306 576 m 3
 269 576 243 571 199 556 c 1
 185 581 l 1
 248 618 308 638 372 638 c 3
 478 638 519 579 519 509 c 3
 519 331 287 155 207 94 c 1
 439 94 l 9
 461 133 l 1
 483 128 l 1
 456 0 l 1
 56 0 l 1
 56 32 l 1
 230 139 399 312 399 490 c 3
 399 538 370 576 306 576 c 3
EndSplineSet
Validated: 1
Substitution2: "Single Substitution lookup 14 subtable" two.smcpflag
Substitution2: "'smcp' Lowercase to Small Capitals lookup 10-1" two.smcp
Substitution2: "onumOldstyleFigureslookup0 subtable" two.oldstyleproportional
Substitution2: "Single Substitution lookup 3 subtable" two.onumflag
EndChar

StartChar: three
Encoding: 19 51 19
Width: 458
VWidth: 0
GlyphClass: 2
Flags: HMW
LayerCount: 2
Back
Fore
SplineSet
445 215 m 3
 445 95 314 -12 55 -12 c 1
 55 28 l 1
 235 28 328 86 328 199 c 3
 328 235 321 253 292 272 c 0
 267 289 241 294 196 295 c 1
 197 327 l 1
 291 369 332 439 332 515 c 3
 332 559 301 578 260 578 c 3
 218 578 204 572 163 556 c 1
 149 581 l 1
 209 618 263 638 325 638 c 3
 413 638 452 593 452 530 c 3
 452 437 345 362 287 339 c 1
 326 338 350 334 371 325 c 0
 424 303 445 272 445 215 c 3
EndSplineSet
Validated: 1
Substitution2: "Single Substitution lookup 14 subtable" three.smcpflag
Substitution2: "'smcp' Lowercase to Small Capitals lookup 10-1" three.smcp
Substitution2: "onumOldstyleFigureslookup0 subtable" three.oldstyleproportional
Substitution2: "Single Substitution lookup 3 subtable" three.onumflag
EndChar

StartChar: four
Encoding: 20 52 20
Width: 585
VWidth: -3
GlyphClass: 2
Flags: HMW
LayerCount: 2
Back
SplineSet
436 629 m 5
 537 623 l 5
 433 34 l 5
 489 18 l 5
 489 0 l 5
 253 0 l 5
 253 18 l 5
 323 43 l 5
 410 540 l 5
 149 215 l 5
 582 215 l 29
 572 154 l 29
 76 154 l 29
 71 175 l 5
 436 629 l 5
EndSplineSet
Fore
SplineSet
436 629 m 1
 537 623 l 1
 465 215 l 1
 582 215 l 1
 572 154 l 1
 454 154 l 1
 433 34 l 1
 489 18 l 1
 489 0 l 1
 253 0 l 1
 253 18 l 1
 323 43 l 1
 342 154 l 1
 76 154 l 1
 71 175 l 1
 436 629 l 1
410 540 m 1
 149 215 l 1
 353 215 l 1
 410 540 l 1
EndSplineSet
Validated: 1
Substitution2: "Single Substitution lookup 14 subtable" four.smcpflag
Substitution2: "'smcp' Lowercase to Small Capitals lookup 10-1" four.smcp
Substitution2: "onumOldstyleFigureslookup0 subtable" four.oldstyleproportional
Substitution2: "Single Substitution lookup 3 subtable" four.onumflag
EndChar

StartChar: five
Encoding: 21 53 21
Width: 451
VWidth: 0
GlyphClass: 2
Flags: HMW
LayerCount: 2
Back
Fore
SplineSet
48 -12 m 1
 54 28 l 1
 225 28 310 93 310 212 c 3
 310 235 306 257 276 279 c 0
 249 298 199 302 121 302 c 1
 113 316 l 1
 212 626 l 1
 456 626 l 1
 461 613 l 1
 436 532 l 1
 225 532 l 1
 171 366 l 1
 250 366 316 363 357 345 c 0
 413 319 431 279 431 234 c 3
 431 73 255 -12 48 -12 c 1
EndSplineSet
Validated: 1
Substitution2: "Single Substitution lookup 14 subtable" five.smcpflag
Substitution2: "'smcp' Lowercase to Small Capitals lookup 10-1" five.smcp
Substitution2: "onumOldstyleFigureslookup0 subtable" five.oldstyleproportional
Substitution2: "Single Substitution lookup 3 subtable" five.onumflag
EndChar

StartChar: six
Encoding: 22 54 22
Width: 511
VWidth: 0
GlyphClass: 2
Flags: HMW
LayerCount: 2
Back
SplineSet
177 262 m 1
 177 301 l 1
 219 340 263 362 337 362 c 3
 449 362 490 289 490 223 c 3
 490 80 376 -12 250 -12 c 3
 137 -12 90 58 90 156 c 3
 90 414 307 566 483 638 c 1
 494 610 l 1
 348 539 204 426 204 159 c 3
 204 85 224 34 279 34 c 3
 338 34 384 64 384 190 c 3
 384 256 351 310 290 310 c 3
 244 310 221 299 177 262 c 1
EndSplineSet
Fore
SplineSet
290 310 m 3
 260 310 240 305 218 292 c 1
 209 252 204 208 204 159 c 3
 204 85 224 34 279 34 c 3
 338 34 384 64 384 190 c 3
 384 256 351 310 290 310 c 3
483 638 m 1
 494 610 l 1
 386 558 280 483 231 340 c 1
 260 354 293 362 337 362 c 3
 449 362 490 289 490 223 c 3
 490 80 376 -12 250 -12 c 3
 137 -12 90 58 90 156 c 3
 90 414 307 566 483 638 c 1
EndSplineSet
Validated: 1
Substitution2: "Single Substitution lookup 14 subtable" six.smcpflag
Substitution2: "'smcp' Lowercase to Small Capitals lookup 10-1" six.smcp
Substitution2: "onumOldstyleFigureslookup0 subtable" six.oldstyleproportional
Substitution2: "Single Substitution lookup 3 subtable" six.onumflag
EndChar

StartChar: seven
Encoding: 23 55 23
Width: 400
VWidth: 0
GlyphClass: 2
Flags: HMW
LayerCount: 2
Back
Fore
SplineSet
116 549 m 5
 140 626 l 5
 474 626 l 5
 487 607 l 5
 150 -15 l 13
 82 17 l 21
 203 195 301 350 404 532 c 5
 123 532 l 5
 116 549 l 5
EndSplineSet
Validated: 1
Substitution2: "Single Substitution lookup 14 subtable" seven.smcpflag
Substitution2: "'smcp' Lowercase to Small Capitals lookup 10-1" seven.smcp
Substitution2: "onumOldstyleFigureslookup0 subtable" seven.oldstyleproportional
Substitution2: "Single Substitution lookup 3 subtable" seven.onumflag
EndChar

StartChar: eight
Encoding: 24 56 24
Width: 508
VWidth: 0
GlyphClass: 2
Flags: HMW
LayerCount: 2
Back
SplineSet
299 306 m 17
 223 265 171 219 171 122 c 3
 171 61 203 27 260 27 c 3
 324 27 368 63 368 145 c 3
 368 254 166 317 166 459 c 3
 166 556 241 638 366 638 c 3
 464 638 503 592 503 530 c 3
 503 430 406 359 356 334 c 9
 334 351 l 1
 395 386 418 445 418 519 c 3
 418 575 389 603 348 603 c 3
 295 603 267 562 267 492 c 3
 267 367 478 320 478 182 c 3
 478 68 382 -12 246 -12 c 3
 148 -12 82 28 82 109 c 3
 82 216 206 290 282 325 c 9
 299 306 l 17
EndSplineSet
Fore
SplineSet
350 361 m 1
 399 397 418 452 418 519 c 3
 418 575 389 603 348 603 c 3
 295 603 267 562 267 492 c 3
 267 439 306 399 350 361 c 1
366 638 m 3
 464 638 503 592 503 530 c 3
 503 440 424 373 372 343 c 1
 425 298 478 251 478 182 c 3
 478 68 382 -12 246 -12 c 3
 148 -12 82 28 82 109 c 3
 82 201 174 269 248 308 c 1
 205 350 166 397 166 459 c 3
 166 556 241 638 366 638 c 3
268 288 m 1
 209 251 171 205 171 122 c 3
 171 61 203 27 260 27 c 3
 324 27 368 63 368 145 c 3
 368 199 318 241 268 288 c 1
EndSplineSet
Validated: 1
Substitution2: "Single Substitution lookup 14 subtable" eight.smcpflag
Substitution2: "'smcp' Lowercase to Small Capitals lookup 10-1" eight.smcp
Substitution2: "onumOldstyleFigureslookup0 subtable" eight.oldstyleproportional
Substitution2: "Single Substitution lookup 3 subtable" eight.onumflag
EndChar

StartChar: nine
Encoding: 25 57 25
Width: 505
VWidth: 0
GlyphClass: 2
Flags: HMW
LayerCount: 2
Back
SplineSet
438 370 m 1
 438 331 l 1
 396 292 352 269 278 269 c 3
 171 269 127 337 127 403 c 3
 127 546 244 638 365 638 c 3
 473 638 523 568 523 470 c 3
 523 212 308 60 132 -12 c 1
 121 16 l 1
 267 87 409 200 409 467 c 3
 409 541 386 592 336 592 c 3
 282 592 233 562 233 436 c 3
 233 370 269 321 325 321 c 3
 371 321 394 333 438 370 c 1
EndSplineSet
Fore
SplineSet
336 592 m 3
 282 592 233 562 233 436 c 3
 233 370 269 321 325 321 c 3
 354 321 374 326 396 339 c 1
 404 377 409 420 409 467 c 3
 409 541 386 592 336 592 c 3
365 638 m 3
 473 638 523 568 523 470 c 3
 523 212 308 60 132 -12 c 1
 121 16 l 1
 230 69 337 146 384 292 c 1
 355 277 322 269 278 269 c 3
 171 269 127 337 127 403 c 3
 127 546 244 638 365 638 c 3
EndSplineSet
Validated: 1
Substitution2: "Single Substitution lookup 14 subtable" nine.smcpflag
Substitution2: "'smcp' Lowercase to Small Capitals lookup 10-1" nine.smcp
Substitution2: "onumOldstyleFigureslookup0 subtable" nine.oldstyleproportional
Substitution2: "Single Substitution lookup 3 subtable" nine.onumflag
EndChar

StartChar: less
Encoding: 28 60 28
Width: 320
VWidth: 0
GlyphClass: 2
Flags: HMW
LayerCount: 2
Back
Fore
SplineSet
306 430 m 1
 333 396 l 1
 135 231 l 1
 274 67 l 1
 236 34 l 1
 73 232 l 1
 306 430 l 1
EndSplineSet
Validated: 1
EndChar

StartChar: equal
Encoding: 29 61 29
Width: 460
VWidth: 0
GlyphClass: 2
Flags: HMW
LayerCount: 2
Back
Fore
SplineSet
67 142 m 1
 75 186 l 1
 451 186 l 1
 443 142 l 1
 67 142 l 1
95 300 m 1
 103 344 l 1
 479 344 l 1
 471 300 l 1
 95 300 l 1
EndSplineSet
Validated: 1
EndChar

StartChar: greater
Encoding: 30 62 30
Width: 320
VWidth: 0
GlyphClass: 2
Flags: HMW
LayerCount: 2
Back
Fore
SplineSet
166 430 m 1
 329 232 l 1
 96 34 l 1
 69 68 l 1
 267 233 l 1
 128 397 l 1
 166 430 l 1
EndSplineSet
Validated: 1
EndChar

StartChar: question
Encoding: 31 63 31
Width: 397
VWidth: 0
GlyphClass: 2
Flags: HMW
LayerCount: 2
Back
Fore
SplineSet
320 650 m 3
 437 650 463 583 463 529 c 3
 463 453 425 411 379 364 c 2
 280 263 l 9
 270 215 l 1
 248 201 l 1
 170 269 l 1
 170 294 l 1
 289 413 l 2
 315 439 335 470 335 505 c 3
 335 548 313 579 260 579 c 3
 211 579 179 566 135 541 c 1
 121 568 l 1
 154 595 230 650 320 650 c 3
EndSplineSet
Refer: 14 46 N 1 0 0 1 42 0 2
Validated: 1
Ligature2: "SmallCapsClose subtable" question.smcpflag less slash s c greater
Substitution2: "Single Substitution lookup 14 subtable" question.smcpflag
EndChar

StartChar: at
Encoding: 32 64 32
Width: 726
GlyphClass: 2
Flags: HMW
LayerCount: 2
Back
Fore
SplineSet
460 535 m 3
 638 535 718 435 718 303 c 3
 718 142 606 41 492 41 c 3
 444 41 418.197265625 57.966796875 426 104 c 2
 436 161 l 1
 395 73 356 39 311 39 c 3
 272 39 230 55 230 131 c 3
 230 245 331 385 486 385 c 3
 508.723632812 385 554.907226562 380.643554688 577 374 c 1
 545 234 l 1
 530 138 l 2
 524 102 531 91 550 91 c 3
 596 91 657 173 657 284 c 3
 657 427 572 497 433 497 c 3
 270 497 153 352 153 166 c 3
 153 -15 264 -86 391 -86 c 3
 466 -86 535 -69 595 -26 c 1
 611 -49 l 1
 542 -101 458 -130 370 -130 c 3
 220 -130 89 -53 89 154 c 3
 89 357 257 535 460 535 c 3
420 340 m 3
 344 340 334 250 334 179 c 3
 334 135 341 119 364 119 c 3
 388 119 428 188 461 295 c 1
 465 321 l 1
 454 332 437 340 420 340 c 3
EndSplineSet
Validated: 33
EndChar

StartChar: A
Encoding: 33 65 33
Width: 630
GlyphClass: 4
Flags: HMW
AnchorPoint: "bottom" 529 0 basemark 0
AnchorPoint: "top" 410 638 basechar 0
LayerCount: 2
Back
SplineSet
201 216 m 1
 207 253 l 1
 523 253 l 1
 517 216 l 1
 201 216 l 1
393 650 m 1
 445 650 l 1
 573 36 l 1
 629 20 l 1
 629 0 l 1
 388 0 l 1
 388 20 l 1
 453 39 l 1
 364 505 l 1
 134 38 l 1
 204 20 l 1
 204 0 l 1
 14 0 l 1
 14 20 l 1
 79 37 l 1
 393 650 l 1
EndSplineSet
Fore
SplineSet
393 650 m 1
 445 650 l 1
 573 36 l 1
 629 20 l 1
 629 0 l 1
 388 0 l 1
 388 20 l 1
 453 39 l 1
 419 216 l 1
 222 216 l 1
 134 38 l 1
 204 20 l 1
 204 0 l 1
 14 0 l 1
 14 20 l 1
 79 37 l 1
 393 650 l 1
412 253 m 1
 364 505 l 1
 240 253 l 1
 412 253 l 1
EndSplineSet
Validated: 1
Ligature2: "SmallCapsClose subtable" A.smcpflag less slash s c greater
Substitution2: "Single Substitution lookup 14 subtable" A.smcpflag
EndChar

StartChar: B
Encoding: 34 66 34
Width: 620
GlyphClass: 2
Flags: HMW
LayerCount: 2
Back
SplineSet
146 638 m 5
 425 638 l 6
 556 638 606 609 606 510 c 7
 606 422 529 358 471 341 c 5
 539 331 601 294 601 200 c 7
 601 81 518 0 359 0 c 6
 49 0 l 5
 49 20 l 5
 127 45 l 5
 215 599 l 5
 146 618 l 5
 146 638 l 5
333 39 m 6
 441 39 481 92 481 190 c 7
 481 289 447 315 352 315 c 6
 283 315 l 5
 289 350 l 5
 344 350 l 6
 430 350 486 401 486 499 c 7
 486 589 442 600 366 600 c 6
 328 600 l 5
 241 39 l 5
 333 39 l 6
EndSplineSet
Fore
SplineSet
333 39 m 2
 441 39 481 92 481 190 c 0
 481 289 447 315 352 315 c 2
 284 315 l 1
 241 39 l 1
 333 39 l 2
146 638 m 1
 425 638 l 2
 556 638 606 609 606 510 c 0
 606 422 529 358 471 341 c 1
 539 331 601 294 601 200 c 0
 601 81 518 0 359 0 c 2
 49 0 l 1
 49 20 l 1
 127 45 l 1
 215 599 l 1
 146 618 l 1
 146 638 l 1
289 350 m 1
 344 350 l 2
 430 350 486 401 486 499 c 0
 486 589 442 600 366 600 c 2
 328 600 l 1
 289 350 l 1
EndSplineSet
Validated: 1
Ligature2: "SmallCapsClose subtable" B.smcpflag less slash s c greater
Substitution2: "Single Substitution lookup 14 subtable" B.smcpflag
EndChar

StartChar: C
Encoding: 35 67 35
Width: 593
GlyphClass: 4
Flags: HMW
AnchorPoint: "top" 448 638 basechar 0
AnchorPoint: "bottom" 351 0 basechar 0
LayerCount: 2
Back
Fore
SplineSet
460 607 m 3
 281 607 211 426 211 244 c 3
 211 144 263 38 382 38 c 3
 428 38 474 42 501 53 c 5
 529 155 l 5
 583 150 l 5
 555 30 l 5
 521 15 436 -12 347 -12 c 3
 153 -12 93 115 93 241 c 3
 93 462 233 650 479 650 c 3
 561 650 620 632 649 617 c 1
 621 485 l 1
 574 491 l 1
 580 580 l 1
 558 595 506 607 460 607 c 3
EndSplineSet
Validated: 1
Ligature2: "SmallCapsClose subtable" C.smcpflag less slash s c greater
Substitution2: "Single Substitution lookup 14 subtable" C.smcpflag
EndChar

StartChar: D
Encoding: 36 68 36
Width: 682
GlyphClass: 4
Flags: HMW
AnchorPoint: "top" 420 638 basechar 0
LayerCount: 2
Back
Fore
SplineSet
241 39 m 1
 324 39 l 2
 465 39 561 162 561 391 c 7
 561 566 514 600 382 600 c 2
 328 600 l 1
 241 39 l 1
334 0 m 2
 49 0 l 1
 49 20 l 1
 127 45 l 1
 215 599 l 1
 146 618 l 1
 146 638 l 1
 407 638 l 2
 599 638 682 583 682 392 c 3
 682 147 517 0 334 0 c 2
EndSplineSet
Validated: 1048577
Ligature2: "SmallCapsClose subtable" D.smcpflag less slash s c greater
Substitution2: "Single Substitution lookup 14 subtable" D.smcpflag
EndChar

StartChar: E
Encoding: 37 69 37
Width: 573
GlyphClass: 4
Flags: HMW
AnchorPoint: "top" 374 638 basechar 0
LayerCount: 2
Back
SplineSet
283 312 m 1
 289 353 l 1
 429 353 l 1
 447 409 l 1
 492 409 l 1
 468 256 l 1
 423 256 l 1
 422 312 l 1
 283 312 l 1
241 44 m 1
 461 44 l 1
 501 142 l 1
 547 134 l 1
 511 0 l 1
 49 0 l 1
 49 20 l 1
 127 45 l 1
 215 599 l 1
 146 618 l 1
 146 638 l 1
 579 638 l 1
 562 510 l 1
 517 510 l 1
 517 596 l 1
 329 596 l 1
 241 44 l 1
EndSplineSet
Fore
SplineSet
146 638 m 1
 579 638 l 1
 562 510 l 1
 517 510 l 1
 517 596 l 1
 329 596 l 1
 290 353 l 1
 429 353 l 1
 447 409 l 1
 492 409 l 1
 468 256 l 1
 423 256 l 1
 422 312 l 1
 284 312 l 1
 241 44 l 1
 461 44 l 1
 501 142 l 1
 547 134 l 1
 511 0 l 1
 49 0 l 1
 49 20 l 1
 127 45 l 1
 215 599 l 1
 146 618 l 1
 146 638 l 1
EndSplineSet
Validated: 1048577
Ligature2: "SmallCapsClose subtable" E.smcpflag less slash s c greater
Substitution2: "Single Substitution lookup 14 subtable" E.smcpflag
EndChar

StartChar: F
Encoding: 38 70 38
Width: 499
GlyphClass: 2
Flags: HMW
LayerCount: 2
Back
SplineSet
281 302 m 1
 287 343 l 1
 422 343 l 1
 440 399 l 1
 485 399 l 1
 461 246 l 1
 416 246 l 1
 415 302 l 1
 281 302 l 1
573 638 m 1
 556 510 l 1
 511 510 l 1
 511 596 l 1
 328 596 l 1
 239 39 l 1
 318 20 l 1
 318 0 l 1
 49 0 l 1
 49 20 l 1
 127 45 l 1
 214 599 l 1
 145 618 l 1
 145 638 l 1
 573 638 l 1
EndSplineSet
Fore
SplineSet
145 638 m 1
 573 638 l 1
 556 510 l 1
 511 510 l 1
 511 596 l 1
 328 596 l 1
 288 343 l 1
 422 343 l 1
 440 399 l 1
 485 399 l 1
 461 246 l 1
 416 246 l 1
 415 302 l 1
 281 302 l 1
 239 39 l 1
 318 20 l 1
 318 0 l 1
 49 0 l 1
 49 20 l 1
 127 45 l 1
 214 599 l 1
 145 618 l 1
 145 638 l 1
EndSplineSet
Validated: 1
Ligature2: "SmallCapsClose subtable" F.smcpflag less slash s c greater
Substitution2: "Single Substitution lookup 14 subtable" F.smcpflag
EndChar

StartChar: G
Encoding: 39 71 39
Width: 658
GlyphClass: 4
Flags: HMW
AnchorPoint: "bottom" 352 0 basechar 0
AnchorPoint: "top" 440 638 basechar 0
LayerCount: 2
Back
Fore
SplineSet
574 37 m 1
 540 17 457 -12 344 -12 c 3
 150 -12 90 115 90 241 c 3
 90 462 230 650 476 650 c 3
 558 650 617 632 646 617 c 1
 618 488 l 1
 571 489 l 1
 577 581 l 1
 555 596 503 607 457 607 c 3
 278 607 208 426 208 244 c 3
 208 144 260 31 379 31 c 3
 415 31 441 34 464 41 c 1
 496 250 l 1
 415 266 l 1
 415 286 l 1
 657 286 l 1
 657 266 l 1
 610 250 l 1
 574 37 l 1
EndSplineSet
Validated: 1
Ligature2: "SmallCapsClose subtable" G.smcpflag less slash s c greater
Substitution2: "Single Substitution lookup 14 subtable" G.smcpflag
EndChar

StartChar: H
Encoding: 40 72 40
Width: 716
GlyphClass: 4
Flags: HMW
AnchorPoint: "bottom" 333 0 basechar 0
AnchorPoint: "top" 458 638 basechar 0
LayerCount: 2
Back
SplineSet
695 593 m 1
 607 39 l 1
 676 20 l 1
 676 0 l 1
 422 0 l 1
 422 20 l 1
 495 45 l 1
 583 599 l 1
 519 618 l 1
 519 638 l 1
 773 638 l 1
 773 618 l 1
 695 593 l 1
328 593 m 1
 240 39 l 1
 304 20 l 1
 304 0 l 1
 50 0 l 1
 50 20 l 1
 128 45 l 1
 216 599 l 1
 147 618 l 1
 147 638 l 1
 401 638 l 1
 401 618 l 1
 328 593 l 1
271 309 m 1
 277 352 l 1
 559 352 l 1
 553 309 l 1
 271 309 l 1
EndSplineSet
Fore
SplineSet
147 638 m 1
 401 638 l 1
 401 618 l 1
 328 593 l 1
 290 352 l 1
 544 352 l 1
 583 599 l 1
 519 618 l 1
 519 638 l 1
 773 638 l 1
 773 618 l 1
 695 593 l 1
 607 39 l 1
 676 20 l 1
 676 0 l 1
 422 0 l 1
 422 20 l 1
 495 45 l 1
 537 309 l 1
 283 309 l 1
 240 39 l 1
 304 20 l 1
 304 0 l 1
 50 0 l 1
 50 20 l 1
 128 45 l 1
 216 599 l 1
 147 618 l 1
 147 638 l 1
EndSplineSet
Validated: 1
Ligature2: "SmallCapsClose subtable" H.smcpflag less slash s c greater
Substitution2: "Single Substitution lookup 14 subtable" H.smcpflag
EndChar

StartChar: I
Encoding: 41 73 41
Width: 371
GlyphClass: 4
Flags: HMW
AnchorPoint: "top" 280 638 basechar 0
LayerCount: 2
Back
Fore
SplineSet
155 638 m 5
 414 638 l 5
 414 618 l 5
 336 593 l 5
 248 39 l 5
 317 20 l 5
 317 0 l 5
 58 0 l 5
 58 20 l 5
 136 45 l 5
 224 599 l 5
 155 618 l 5
 155 638 l 5
EndSplineSet
Validated: 1048577
Ligature2: "SmallCapsClose subtable" I.smcpflag less slash s c greater
Substitution2: "Single Substitution lookup 14 subtable" I.smcpflag
EndChar

StartChar: J
Encoding: 42 74 42
Width: 371
GlyphClass: 4
Flags: HMW
AnchorPoint: "top" 266 638 basechar 0
LayerCount: 2
Back
Fore
SplineSet
214 599 m 1
 145 618 l 1
 145 638 l 1
 404 638 l 1
 404 618 l 1
 326 593 l 1
 241 61 l 2
 224 -46 125 -164 9 -230 c 1
 0 -213 l 1
 81 -149 112 -41 122 22 c 2
 214 599 l 1
EndSplineSet
Validated: 1048577
Ligature2: "SmallCapsClose subtable" J.smcpflag less slash s c greater
Substitution2: "Single Substitution lookup 14 subtable" J.smcpflag
EndChar

StartChar: K
Encoding: 43 75 43
Width: 669
GlyphClass: 4
Flags: HMW
AnchorPoint: "bottom" 370 0 basechar 0
AnchorPoint: "top" 426 638 basechar 0
LayerCount: 2
Back
Fore
SplineSet
328 593 m 1
 240 39 l 1
 299 20 l 1
 299 0 l 1
 50 0 l 1
 50 20 l 1
 128 45 l 1
 216 599 l 1
 147 618 l 1
 147 638 l 1
 396 638 l 1
 396 618 l 1
 328 593 l 1
596 594 m 1
 396 364 l 1
 587 63 l 1
 621 21 l 1
 618 0 l 1
 490 0 l 1
 305 327 l 1
 345 365 l 1
 537 593 l 1
 492 612 l 1
 492 638 l 1
 667 638 l 1
 667 612 l 1
 596 594 l 1
EndSplineSet
Validated: 1
Ligature2: "SmallCapsClose subtable" K.smcpflag less slash s c greater
Substitution2: "Single Substitution lookup 14 subtable" K.smcpflag
EndChar

StartChar: L
Encoding: 44 76 44
Width: 555
GlyphClass: 4
Flags: HMW
AnchorPoint: "bottom" 310 0 basechar 0
AnchorPoint: "top" 275 638 basechar 0
LayerCount: 2
Back
Fore
SplineSet
240 44 m 1
 451 44 l 1
 492 142 l 5
 538 134 l 1
 502 0 l 1
 49 0 l 1
 49 20 l 1
 127 45 l 1
 216 599 l 1
 147 618 l 1
 147 638 l 1
 406 638 l 1
 406 618 l 1
 328 593 l 1
 240 44 l 1
EndSplineSet
Validated: 1
Ligature2: "SmallCapsClose subtable" L.smcpflag less slash s c greater
Substitution2: "Single Substitution lookup 14 subtable" L.smcpflag
EndChar

StartChar: M
Encoding: 45 77 45
Width: 870
GlyphClass: 2
Flags: HMW
LayerCount: 2
Back
Fore
SplineSet
145 638 m 1
 364 638 l 1
 461 158 l 1
 701 638 l 1
 915 638 l 1
 915 617 l 1
 839 598 l 1
 751 39 l 1
 824 21 l 1
 824 0 l 1
 567 0 l 1
 567 21 l 1
 638 39 l 1
 724 584 l 1
 721 584 l 1
 430 8 l 1
 379 8 l 1
 261 581 l 1
 257 581 l 1
 170 39 l 1
 234 21 l 1
 234 0 l 1
 41 0 l 1
 41 21 l 1
 121 39 l 1
 210 598 l 1
 145 617 l 1
 145 638 l 1
EndSplineSet
Validated: 1
LCarets2: 5 0 0 0 0 0
Ligature2: "SmallCapsClose subtable" M.smcpflag less slash s c greater
Substitution2: "Single Substitution lookup 14 subtable" M.smcpflag
EndChar

StartChar: N
Encoding: 46 78 46
Width: 656
GlyphClass: 4
Flags: HMW
AnchorPoint: "bottom" 340 0 basechar 0
AnchorPoint: "top" 425 638 basechar 0
LayerCount: 2
Back
Fore
SplineSet
140 638 m 1
 330 638 l 1
 531 160 l 1
 601 600 l 1
 525 617 l 1
 525 638 l 1
 715 638 l 1
 715 617 l 1
 650 600 l 1
 554 -3 l 1
 474 -3 l 1
 246 538 l 1
 165 39 l 1
 241 21 l 1
 241 0 l 1
 36 0 l 1
 36 21 l 1
 116 39 l 1
 205 598 l 1
 140 617 l 1
 140 638 l 1
EndSplineSet
Validated: 1
Ligature2: "SmallCapsClose subtable" N.smcpflag less slash s c greater
Substitution2: "Single Substitution lookup 14 subtable" N.smcpflag
EndChar

StartChar: O
Encoding: 47 79 47
Width: 678
GlyphClass: 4
Flags: HMW
AnchorPoint: "bottom" 333 0 basechar 0
AnchorPoint: "top" 439 638 basechar 0
LayerCount: 2
Back
Fore
SplineSet
417 609 m 3
 282 609 211 473 211 273 c 3
 211 147 260 30 372 30 c 3
 508 30 579 165 579 365 c 3
 579 491 530 609 417 609 c 3
340 -12 m 3
 161 -12 91 112 91 257 c 3
 91 483 251 650 450 650 c 3
 629 650 699 526 699 381 c 3
 699 155 539 -12 340 -12 c 3
EndSplineSet
Validated: 1
Ligature2: "SmallCapsClose subtable" O.smcpflag less slash s c greater
Substitution2: "Single Substitution lookup 14 subtable" O.smcpflag
EndChar

StartChar: P
Encoding: 48 80 48
Width: 572
GlyphClass: 2
Flags: HMW
LayerCount: 2
Back
Fore
SplineSet
146 638 m 1
 417 638 l 2
 551 638 616 611 616 492 c 3
 616 354 487 256 323 256 c 2
 307 256 l 1
 312 289 l 1
 327 289 l 2
 428 289 493 358 493 487 c 3
 493 590 451 600 378 600 c 2
 329 600 l 1
 239 39 l 1
 318 20 l 1
 318 0 l 1
 49 0 l 1
 49 20 l 1
 127 45 l 1
 215 599 l 1
 146 618 l 1
 146 638 l 1
EndSplineSet
Validated: 1
Ligature2: "SmallCapsClose subtable" P.smcpflag less slash s c greater
Substitution2: "Single Substitution lookup 14 subtable" P.smcpflag
EndChar

StartChar: Q
Encoding: 49 81 49
Width: 678
GlyphClass: 2
Flags: HMW
LayerCount: 2
Back
Fore
SplineSet
551 -71 m 1
 551 -86 l 1
 505 -158 l 1
 489 -158 l 1
 291 -44 l 1
 302 -16 l 1
 551 -71 l 1
EndSplineSet
Refer: 47 79 N 1 0 0 1 0 0 2
Validated: 1
Ligature2: "SmallCapsClose subtable" Q.smcpflag less slash s c greater
Substitution2: "Single Substitution lookup 14 subtable" Q.smcpflag
EndChar

StartChar: R
Encoding: 50 82 50
Width: 630
GlyphClass: 4
Flags: HMW
AnchorPoint: "bottom" 356 0 basechar 0
AnchorPoint: "top" 376 638 basechar 0
LayerCount: 2
Back
Fore
SplineSet
328 600 m 1
 238 39 l 1
 307 20 l 1
 307 0 l 1
 48 0 l 1
 48 20 l 1
 126 45 l 1
 214 599 l 1
 145 618 l 1
 145 638 l 1
 406 638 l 2
 547 638 593 601 593 505 c 3
 593 385 483 331 418 315 c 1
 575 63 l 1
 612 21 l 1
 609 0 l 1
 475 0 l 1
 309 316 l 1
 311 327 l 1
 380 327 469 366 469 500 c 3
 469 575 445 600 371 600 c 2
 328 600 l 1
EndSplineSet
Validated: 1
Ligature2: "SmallCapsClose subtable" R.smcpflag less slash s c greater
Substitution2: "Single Substitution lookup 14 subtable" R.smcpflag
EndChar

StartChar: S
Encoding: 51 83 51
Width: 497
GlyphClass: 4
Flags: HMW
AnchorPoint: "bottom" 250 0 basechar 0
AnchorPoint: "top" 350 638 basechar 0
LayerCount: 2
Back
Fore
SplineSet
124 54 m 5
 154 37 195 26 240 26 c 7
 314 26 367 58 367 129 c 7
 367 193 333 231 256 282 c 4
 161 345 133 399 133 466 c 7
 133 553 213 650 358 650 c 7
 431 650 485 636 507 626 c 5
 489 503 l 5
 443 505 l 5
 443 595 l 5
 424 605 389 614 352 614 c 7
 278 614 235 572 235 501 c 7
 235 444 279 407 349 361 c 4
 444 298 477 250 477 180 c 7
 477 78 395 -12 226 -12 c 7
 149 -12 102 1 60 20 c 5
 68 155 l 5
 118 156 l 5
 124 54 l 5
EndSplineSet
Validated: 1
Ligature2: "SmallCapsClose subtable" S.smcpflag less slash s c greater
Substitution2: "Single Substitution lookup 14 subtable" S.smcpflag
EndChar

StartChar: T
Encoding: 52 84 52
Width: 577
GlyphClass: 4
Flags: HMW
AnchorPoint: "bottom" 303 0 basechar 0
AnchorPoint: "top" 390 638 basechar 0
LayerCount: 2
Back
Fore
SplineSet
336 602 m 1
 449 602 l 1
 360 39 l 1
 429 20 l 1
 429 0 l 1
 170 0 l 1
 170 20 l 1
 248 45 l 1
 336 602 l 1
591 602 m 1
 192 602 l 1
 155 500 l 5
 109 502 l 1
 140 643 l 1
 170 643 l 1
 219 638 l 1
 578 638 l 1
 628 643 l 1
 657 643 l 1
 643 502 l 1
 598 500 l 1
 591 602 l 1
EndSplineSet
Validated: 5
Ligature2: "SmallCapsClose subtable" T.smcpflag less slash s c greater
Substitution2: "Single Substitution lookup 14 subtable" T.smcpflag
EndChar

StartChar: U
Encoding: 53 85 53
Width: 655
GlyphClass: 4
Flags: HMW
AnchorPoint: "top" 446 638 basechar 0
LayerCount: 2
Back
Fore
SplineSet
540 245 m 2
 595 596 l 1
 533 618 l 1
 533 638 l 1
 711 638 l 1
 711 618 l 1
 647 596 l 1
 592 246 l 2
 567 89 509 -12 336 -12 c 3
 170 -12 124 58 153 243 c 2
 209 596 l 1
 146 618 l 1
 146 638 l 1
 380 638 l 1
 380 618 l 1
 319 596 l 1
 264 242 l 2
 242 103 262 44 365 44 c 3
 457 44 514 81 540 245 c 2
EndSplineSet
Validated: 1048609
Ligature2: "SmallCapsClose subtable" U.smcpflag less slash s c greater
Substitution2: "Single Substitution lookup 14 subtable" U.smcpflag
EndChar

StartChar: V
Encoding: 54 86 54
Width: 572
GlyphClass: 2
Flags: HMW
LayerCount: 2
Back
Fore
SplineSet
609 599 m 1
 314 -12 l 1
 264 -12 l 1
 156 601 l 1
 98 617 l 1
 98 638 l 1
 330 638 l 1
 330 617 l 1
 275 598 l 1
 346 143 l 1
 554 598 l 1
 492 617 l 1
 492 638 l 1
 680 638 l 1
 680 617 l 1
 609 599 l 1
EndSplineSet
Validated: 1
Ligature2: "SmallCapsClose subtable" V.smcpflag less slash s c greater
Substitution2: "Single Substitution lookup 14 subtable" V.smcpflag
EndChar

StartChar: W
Encoding: 55 87 55
Width: 899
GlyphClass: 4
Flags: HMW
AnchorPoint: "top" 579 638 basechar 0
LayerCount: 2
Back
Fore
SplineSet
609 598 m 1
 674 166 l 1
 859 598 l 1
 798 617 l 1
 798 638 l 1
 986 638 l 1
 986 617 l 1
 915 599 l 1
 639 -12 l 1
 589 -12 l 1
 522 443 l 1
 522 442 317 -12 317 -12 c 1
 268 -12 l 1
 178 601 l 1
 120 617 l 1
 120 638 l 1
 351 638 l 1
 351 617 l 1
 295 598 l 1
 354 164 l 1
 549 598 l 1
 609 598 l 1
EndSplineSet
Validated: 1048577
Ligature2: "SmallCapsClose subtable" W.smcpflag less slash s c greater
Substitution2: "Single Substitution lookup 14 subtable" W.smcpflag
EndChar

StartChar: X
Encoding: 56 88 56
Width: 602
GlyphClass: 2
Flags: HMW
LayerCount: 2
Back
SplineSet
338 356 m 1
 363 332 l 1
 166 42 l 1
 211 21 l 1
 211 0 l 1
 44 0 l 1
 44 21 l 1
 112 41 l 1
 338 356 l 1
397 340 m 1
 372 364 l 1
 521 597 l 1
 491 617 l 1
 491 638 l 1
 641 638 l 1
 641 617 l 1
 574 598 l 1
 397 340 l 1
322 601 m 1
 403 369 l 1
 539 34 l 1
 583 21 l 1
 583 0 l 1
 393 0 l 1
 393 21 l 1
 416 32 l 1
 318 302 l 1
 197 603 l 1
 152 617 l 1
 152 638 l 1
 360 638 l 1
 360 617 l 1
 322 601 l 1
EndSplineSet
Fore
SplineSet
152 638 m 1
 360 638 l 1
 360 617 l 1
 322 601 l 1
 393 397 l 1
 521 597 l 1
 491 617 l 1
 491 638 l 1
 641 638 l 1
 641 617 l 1
 574 598 l 1
 408 356 l 1
 539 34 l 1
 583 21 l 1
 583 0 l 1
 393 0 l 1
 393 21 l 1
 416 32 l 1
 327 278 l 1
 166 42 l 1
 211 21 l 1
 211 0 l 1
 44 0 l 1
 44 21 l 1
 112 41 l 1
 311 319 l 1
 197 603 l 1
 152 617 l 1
 152 638 l 1
EndSplineSet
Validated: 1
Ligature2: "SmallCapsClose subtable" X.smcpflag less slash s c greater
Substitution2: "Single Substitution lookup 14 subtable" X.smcpflag
EndChar

StartChar: Y
Encoding: 57 89 57
Width: 568
GlyphClass: 4
Flags: HMW
AnchorPoint: "top" 395 638 basechar 0
LayerCount: 2
Back
SplineSet
587 598 m 5
 355 237 l 5
 295 237 l 5
 174 601 l 5
 120 617 l 5
 120 638 l 5
 339 638 l 5
 339 617 l 5
 298 598 l 5
 377 337 l 5
 536 597 l 5
 489 617 l 5
 489 638 l 5
 651 638 l 5
 651 617 l 5
 587 598 l 5
350 39 m 5
 417 20 l 5
 417 0 l 5
 166 0 l 5
 166 20 l 5
 238 45 l 5
 278 294 l 5
 391 294 l 5
 350 39 l 5
EndSplineSet
Fore
SplineSet
120 638 m 1
 339 638 l 1
 339 617 l 1
 298 598 l 1
 377 337 l 1
 536 597 l 1
 489 617 l 1
 489 638 l 1
 651 638 l 1
 651 617 l 1
 587 598 l 1
 391 293 l 1
 350 39 l 1
 417 20 l 1
 417 0 l 1
 166 0 l 1
 166 20 l 1
 238 45 l 1
 277 290 l 1
 174 601 l 1
 120 617 l 1
 120 638 l 1
EndSplineSet
Validated: 1048577
Ligature2: "SmallCapsClose subtable" Y.smcpflag less slash s c greater
Substitution2: "Single Substitution lookup 14 subtable" Y.smcpflag
EndChar

StartChar: Z
Encoding: 58 90 58
Width: 549
GlyphClass: 4
Flags: HMW
AnchorPoint: "top" 336 638 basechar 0
LayerCount: 2
Back
Fore
SplineSet
436 44 m 1
 480 145 l 1
 524 138 l 1
 482 0 l 1
 55 0 l 1
 52 26 l 1
 414 594 l 1
 216 594 l 1
 174 498 l 1
 129 502 l 1
 167 643 l 1
 185 643 l 1
 233 638 l 1
 553 638 l 1
 559 613 l 1
 194 44 l 1
 436 44 l 1
EndSplineSet
Validated: 1048577
Ligature2: "SmallCapsClose subtable" Z.smcpflag less slash s c greater
Substitution2: "Single Substitution lookup 14 subtable" Z.smcpflag
EndChar

StartChar: bracketleft
Encoding: 59 91 59
Width: 345
GlyphClass: 2
Flags: HMW
LayerCount: 2
Back
Fore
SplineSet
378 685 m 1
 375 662 l 1
 296 649 l 25
 175 -111 l 25
 253 -124 l 1
 250 -147 l 1
 95 -147 l 1
 226 685 l 1
 378 685 l 1
EndSplineSet
Validated: 1
EndChar

StartChar: backslash
Encoding: 60 92 60
Width: 301
GlyphClass: 2
Flags: HMW
LayerCount: 2
Back
Fore
SplineSet
145 687 m 1
 263 -45 l 1
 219 -53 l 1
 101 679 l 1
 145 687 l 1
EndSplineSet
Validated: 1
EndChar

StartChar: bracketright
Encoding: 61 93 61
Width: 345
GlyphClass: 2
Flags: HMW
LayerCount: 2
Back
Fore
SplineSet
59 -147 m 1
 59 -126 l 1
 143 -109 l 1
 263 647 l 1
 188 664 l 1
 188 685 l 1
 343 685 l 1
 212 -147 l 1
 59 -147 l 1
EndSplineSet
Validated: 1
EndChar

StartChar: asciicircum
Encoding: 62 94 62
Width: 496
GlyphClass: 2
Flags: HMW
LayerCount: 2
Back
Fore
SplineSet
351 572 m 1
 165 434 l 1
 142 464 l 1
 363 650 l 1
 518 466 l 1
 487 436 l 1
 351 572 l 1
EndSplineSet
Validated: 1
EndChar

StartChar: underscore
Encoding: 63 95 63
Width: 516
GlyphClass: 2
Flags: HMW
LayerCount: 2
Back
Fore
SplineSet
-41 -230 m 1
 -33 -186 l 1
 484 -186 l 1
 476 -230 l 1
 -41 -230 l 1
EndSplineSet
Validated: 1
EndChar

StartChar: a
Encoding: 65 97 65
Width: 522
GlyphClass: 4
Flags: HMW
AnchorPoint: "top" 340 425 basechar 0
LayerCount: 2
Back
Fore
SplineSet
387 437 m 3
 416 437 473 433 506 422 c 1
 464 248 l 1
 439 102 l 9
 439 43 l 1
 497 38 l 1
 499 14 l 1
 317 -9 l 1
 315 4 l 1
 346 174 l 1
 291 56 225 -12 165 -12 c 3
 126 -12 78 9 78 111 c 3
 78 263 180 437 387 437 c 3
314 389 m 3
 213 389 189 262 189 136 c 3
 189 84 201 75 224 75 c 3
 256 75 322 156 374 329 c 1
 382 367 l 1
 367 378 339 389 314 389 c 3
EndSplineSet
Validated: 1048577
Substitution2: "Single Substitution lookup 14 subtable" a.smcpflag
Substitution2: "'smcp' Lowercase to Small Capitals lookup 10-1" a.smcp
EndChar

StartChar: b
Encoding: 66 98 66
Width: 523
GlyphClass: 2
Flags: HMW
LayerCount: 2
Back
Fore
SplineSet
310 690 m 1
 234 248 l 1
 289 366 363 437 423 437 c 3
 462 437 515 416 515 314 c 3
 515 162 413 -12 211 -12 c 3
 182 -12 119 -8 86 3 c 1
 184 579 l 25
 184 638 l 1
 126 643 l 1
 124 667 l 1
 310 690 l 1
369 351 m 3
 327 351 261 268 209 94 c 1
 203 59 l 5
 218 48 252 36 284 36 c 3
 365 36 404 163 404 289 c 3
 404 341 392 351 369 351 c 3
EndSplineSet
Validated: 1
Substitution2: "Single Substitution lookup 14 subtable" b.smcpflag
Substitution2: "'smcp' Lowercase to Small Capitals lookup 10-1" b.smcp
EndChar

StartChar: c
Encoding: 67 99 67
Width: 409
GlyphClass: 4
Flags: HMW
AnchorPoint: "bottom" 219 0 basechar 0
AnchorPoint: "top" 313 425 basechar 0
LayerCount: 2
Back
Fore
SplineSet
363 437 m 7
 392 437 413 427 430 411 c 1
 395 333 l 1
 382 328 l 1
 360 342 333 367 299 367 c 3
 203 367 184 273 184 165 c 3
 184 79 217 55 263 55 c 3
 305 55 351 89 387 123 c 1
 408 101 l 1
 351 41 281 -12 214 -12 c 3
 135 -12 78 20 78 133 c 3
 78 285 227 437 363 437 c 7
EndSplineSet
Validated: 1
Substitution2: "Single Substitution lookup 14 subtable" c.smcpflag
Substitution2: "'smcp' Lowercase to Small Capitals lookup 10-1" c.smcp
EndChar

StartChar: d
Encoding: 68 100 68
Width: 531
GlyphClass: 4
Flags: HMW
AnchorPoint: "top" 470 685 basechar 0
LayerCount: 2
Back
Fore
SplineSet
553 690 m 1
 451 92 l 1
 451 43 l 1
 509 38 l 1
 511 14 l 1
 329 -9 l 1
 327 4 l 1
 358 176 l 1
 303 58 230 -12 170 -12 c 3
 131 -12 78 9 78 111 c 3
 78 257 202 437 372 437 c 3
 385 437 395 435 404 432 c 1
 427 579 l 10
 427 638 l 1
 369 643 l 1
 367 667 l 1
 553 690 l 1
324 389 m 3
 216 389 189 262 189 136 c 3
 189 84 201 75 224 75 c 3
 256 75 334 158 386 331 c 1
 391 360 l 5
 376 376 349 389 324 389 c 3
EndSplineSet
Validated: 1048577
Substitution2: "Single Substitution lookup 14 subtable" d.smcpflag
Substitution2: "'smcp' Lowercase to Small Capitals lookup 10-1" d.smcp
EndChar

StartChar: e
Encoding: 69 101 69
Width: 436
GlyphClass: 4
Flags: HMW
AnchorPoint: "top" 298 425 basechar 0
LayerCount: 2
Back
SplineSet
334 437 m 3
 385 437 420 399 420 352 c 3
 420 273 323 218 189 203 c 1
 189 233 l 1
 309 245 320 298 320 349 c 3
 320 374 305 385 288 385 c 3
 217 385 192 299 192 161 c 3
 192 81 222 55 258 55 c 3
 310 55 364 89 400 123 c 1
 421 101 l 1
 364 41 286 -12 219 -12 c 3
 145 -12 83 20 83 133 c 3
 83 290 217 437 334 437 c 3
EndSplineSet
Fore
SplineSet
334 437 m 3
 385 437 420 399 420 352 c 3
 420 274 325 219 193 203 c 1
 192 189 192 176 192 161 c 3
 192 81 222 55 258 55 c 3
 310 55 364 89 400 123 c 1
 421 101 l 1
 364 41 286 -12 219 -12 c 3
 145 -12 83 20 83 133 c 3
 83 290 217 437 334 437 c 3
288 385 m 3
 230 385 203 329 195 234 c 1
 310 247 320 299 320 349 c 3
 320 374 305 385 288 385 c 3
EndSplineSet
Validated: 1048577
Substitution2: "Single Substitution lookup 14 subtable" e.smcpflag
Substitution2: "'smcp' Lowercase to Small Capitals lookup 10-1" e.smcp
EndChar

StartChar: f
Encoding: 70 102 70
Width: 350
GlyphClass: 2
Flags: HMW
LayerCount: 2
Back
SplineSet
416 687 m 3
 438 687 464 683 480 678 c 1
 453 595 l 1
 440 590 l 1
 415 601 381 616 354 616 c 3
 324 616 313 597 300 516 c 2
 218 11 l 2
 200 -99 126 -158 81 -190 c 0
 44 -216 19 -230 -16 -230 c 3
 -38 -230 -64 -226 -80 -221 c 1
 -53 -138 l 1
 -40 -133 l 1
 -15 -144 19 -159 46 -159 c 3
 76 -159 87 -140 100 -59 c 2
 182 446 l 2
 200 556 274 615 319 647 c 0
 356 673 381 687 416 687 c 3
375 387 m 1
 115 387 l 1
 118 403 l 1
 179 425 l 1
 382 425 l 1
 375 387 l 1
EndSplineSet
Fore
SplineSet
416 687 m 3
 438 687 464 683 480 678 c 1
 453 595 l 1
 440 590 l 1
 415 601 381 616 354 616 c 3
 324 616 313 597 300 516 c 2
 285 425 l 1
 382 425 l 1
 375 387 l 1
 279 387 l 1
 218 11 l 2
 200 -99 126 -158 81 -190 c 0
 44 -216 19 -230 -16 -230 c 3
 -38 -230 -64 -226 -80 -221 c 1
 -53 -138 l 1
 -40 -133 l 1
 -15 -144 19 -159 46 -159 c 3
 76 -159 87 -140 100 -59 c 2
 172 387 l 1
 115 387 l 1
 118 403 l 1
 179 425 l 1
 182 446 l 2
 200 556 274 615 319 647 c 0
 356 673 381 687 416 687 c 3
EndSplineSet
Validated: 1
Substitution2: "Single Substitution lookup 14 subtable" f.smcpflag
Substitution2: "'smcp' Lowercase to Small Capitals lookup 10-1" f.smcp
EndChar

StartChar: g
Encoding: 71 103 71
Width: 511
GlyphClass: 4
Flags: HMW
AnchorPoint: "top" 340 425 basechar 0
LayerCount: 2
Back
Fore
SplineSet
396 437 m 3
 425 437 482 433 515 422 c 1
 473 248 l 1
 432 7 l 2
 409 -130 300 -182 253 -206 c 0
 215 -225 194 -230 137 -230 c 3
 97 -230 56 -218 30 -198 c 1
 54 -121 l 1
 68 -112 l 1
 107 -142 175 -159 220 -159 c 3
 276 -159 299 -150 314 -63 c 2
 355 174 l 1
 300 56 229 -12 169 -12 c 3
 130 -12 77 9 77 111 c 3
 77 263 189 437 396 437 c 3
323 389 m 3
 212 389 188 262 188 136 c 3
 188 84 200 75 223 75 c 3
 255 75 331 156 383 329 c 1
 391 367 l 5
 376 378 348 389 323 389 c 3
EndSplineSet
Validated: 1048577
Substitution2: "Single Substitution lookup 14 subtable" g.smcpflag
Substitution2: "'smcp' Lowercase to Small Capitals lookup 10-1" g.smcp
EndChar

StartChar: h
Encoding: 72 104 72
Width: 549
GlyphClass: 4
Flags: HMW
AnchorPoint: "top" 370 678 basechar 0
LayerCount: 2
Back
Fore
SplineSet
320 690 m 5
 242 230 l 1
 303 377 343 437 428 437 c 3
 474 437 526 407 511 322 c 2
 471 102 l 1
 471 43 l 1
 529 38 l 1
 531 14 l 1
 356 -9 l 1
 352 3 l 1
 365 113 l 1
 401 303 l 2
 409 343 393 362 365 362 c 3
 329 362 278 269 219 94 c 1
 204 10 l 1
 96 -12 l 1
 90 -1 l 1
 129 175 l 1
 194 579 l 13
 194 638 l 5
 136 643 l 5
 134 667 l 5
 320 690 l 5
EndSplineSet
Validated: 1048609
Substitution2: "Single Substitution lookup 14 subtable" h.smcpflag
Substitution2: "'smcp' Lowercase to Small Capitals lookup 10-1" h.smcp
EndChar

StartChar: i
Encoding: 73 105 73
Width: 304
GlyphClass: 2
Flags: HMW
LayerCount: 2
Back
Fore
SplineSet
221 672 m 3
 260 672 291 642 291 603 c 3
 291 564 260 533 221 533 c 3
 182 533 152 564 152 603 c 3
 152 642 182 672 221 672 c 3
271 437 m 1
 215 102 l 1
 215 43 l 1
 273 38 l 1
 275 14 l 1
 100 -9 l 1
 96 3 l 1
 109 113 l 1
 147 326 l 9
 147 385 l 1
 90 390 l 1
 88 414 l 1
 271 437 l 1
EndSplineSet
Validated: 1
Substitution2: "Single Substitution lookup 14 subtable" i.smcpflag
Substitution2: "'smcp' Lowercase to Small Capitals lookup 10-1" i.smcp
EndChar

StartChar: j
Encoding: 74 106 74
Width: 291
GlyphClass: 2
Flags: HMW
LayerCount: 2
Back
Fore
SplineSet
228 672 m 3
 267 672 298 642 298 603 c 3
 298 564 267 533 228 533 c 3
 189 533 159 564 159 603 c 3
 159 642 189 672 228 672 c 3
278 437 m 1
 219 65 l 6
 203 -38 115 -118 89 -145 c 4
 57 -178 1 -230 -47 -230 c 7
 -67 -230 -81 -225 -92 -212 c 5
 -71 -132 l 5
 -58 -127 l 5
 -33 -143 -14 -144 16 -144 c 7
 60 -144 84 -105 106 32 c 6
 154 326 l 10
 154 385 l 1
 97 390 l 1
 95 414 l 1
 278 437 l 1
EndSplineSet
Validated: 1
Substitution2: "Single Substitution lookup 14 subtable" j.smcpflag
Substitution2: "'smcp' Lowercase to Small Capitals lookup 10-1" j.smcp
EndChar

StartChar: k
Encoding: 75 107 75
Width: 523
GlyphClass: 4
Flags: HMW
AnchorPoint: "bottom" 280 0 basechar 0
LayerCount: 2
Back
Fore
SplineSet
319 690 m 1
 216 94 l 1
 204 9 l 1
 96 -12 l 1
 90 -1 l 1
 127 175 l 1
 193 579 l 9
 193 638 l 1
 135 643 l 1
 133 667 l 1
 319 690 l 1
469 437 m 7
 488 437 509 431 518 423 c 1
 492 338 l 1
 484 334 l 1
 463 340 445 346 423 346 c 3
 396 346 385 336 326 257 c 1
 423 76 l 25
 460 43 l 1
 509 43 l 1
 511 19 l 1
 352 -9 l 1
 246 208 l 1
 276 240 l 1
 356 339 362 354 384 383 c 0
 407 413 434 437 469 437 c 7
EndSplineSet
Validated: 1048577
Substitution2: "Single Substitution lookup 14 subtable" k.smcpflag
Substitution2: "'smcp' Lowercase to Small Capitals lookup 10-1" k.smcp
EndChar

StartChar: l
Encoding: 76 108 76
Width: 295
GlyphClass: 4
Flags: HMW
AnchorPoint: "bottom" 150 0 basechar 0
AnchorPoint: "top" 239 680 basechar 0
LayerCount: 2
Back
Fore
SplineSet
307 690 m 1
 209 102 l 1
 209 43 l 1
 267 38 l 1
 269 14 l 1
 94 -9 l 1
 90 3 l 1
 103 113 l 1
 181 579 l 9
 181 638 l 1
 123 643 l 1
 121 667 l 1
 307 690 l 1
EndSplineSet
Validated: 1
Substitution2: "Single Substitution lookup 14 subtable" l.smcpflag
Substitution2: "'smcp' Lowercase to Small Capitals lookup 10-1" l.smcp
EndChar

StartChar: m
Encoding: 77 109 77
Width: 788
GlyphClass: 2
Flags: HMW
LayerCount: 2
Back
Fore
SplineSet
278 437 m 1
 240 230 l 1
 301 377 340 437 425 437 c 3
 471 437 520 407 505 322 c 2
 490 242 l 1
 550 381 587 437 670 437 c 3
 716 437 765 407 750 322 c 2
 710 102 l 1
 710 43 l 1
 768 38 l 1
 770 14 l 1
 595 -9 l 1
 591 3 l 1
 604 113 l 1
 640 303 l 2
 648 343 635 362 607 362 c 3
 571 362 521 269 462 94 c 1
 447 10 l 1
 339 -12 l 1
 333 -1 l 1
 372 175 l 1
 395 303 l 2
 402 343 390 362 362 362 c 3
 326 362 276 269 217 94 c 1
 202 10 l 1
 94 -12 l 1
 88 -1 l 1
 127 175 l 1
 152 326 l 9
 152 385 l 1
 95 390 l 1
 93 414 l 1
 278 437 l 1
EndSplineSet
Validated: 33
Substitution2: "Single Substitution lookup 14 subtable" m.smcpflag
Substitution2: "'smcp' Lowercase to Small Capitals lookup 10-1" m.smcp
EndChar

StartChar: n
Encoding: 78 110 78
Width: 545
GlyphClass: 4
Flags: HMW
AnchorPoint: "bottom" 284 0 basechar 0
AnchorPoint: "top" 334 425 basechar 0
LayerCount: 2
Back
Fore
SplineSet
278 437 m 5
 240 230 l 5
 301 377 341 437 426 437 c 7
 472 437 522 407 507 322 c 6
 467 102 l 5
 467 43 l 1
 525 38 l 1
 527 14 l 1
 352 -9 l 1
 348 3 l 1
 361 113 l 5
 397 303 l 6
 405 343 391 362 363 362 c 7
 327 362 276 269 217 94 c 5
 202 10 l 1
 94 -12 l 1
 88 -1 l 1
 127 175 l 5
 152 326 l 13
 152 385 l 5
 95 390 l 5
 93 414 l 5
 278 437 l 5
EndSplineSet
Validated: 33
Substitution2: "Single Substitution lookup 14 subtable" n.smcpflag
Substitution2: "'smcp' Lowercase to Small Capitals lookup 10-1" n.smcp
EndChar

StartChar: o
Encoding: 79 111 79
Width: 487
GlyphClass: 4
Flags: HMW
AnchorPoint: "top" 318 425 basechar 0
LayerCount: 2
Back
Fore
SplineSet
338 437 m 7
 407 437 479 405 479 292 c 7
 479 79 311 -12 224 -12 c 7
 154 -12 83 20 83 133 c 7
 83 346 250 437 338 437 c 7
299 389 m 7
 230 389 194 294 194 165 c 7
 194 79 221 37 263 37 c 7
 331 37 368 131 368 260 c 7
 368 346 340 389 299 389 c 7
EndSplineSet
Validated: 1048577
Substitution2: "Single Substitution lookup 14 subtable" o.smcpflag
Substitution2: "'smcp' Lowercase to Small Capitals lookup 10-1" o.smcp
EndChar

StartChar: p
Encoding: 80 112 80
Width: 529
GlyphClass: 2
Flags: HMW
LayerCount: 2
Back
Fore
SplineSet
273 437 m 1
 239 248 l 1
 294 366 369 437 429 437 c 3
 468 437 521 416 521 314 c 3
 521 162 421 -12 219 -12 c 3
 212 -12 204 -12 195 -11 c 1
 158 -208 l 1
 50 -230 l 1
 44 -219 l 1
 97 13 l 1
 147 326 l 9
 147 385 l 1
 90 390 l 1
 88 414 l 1
 273 437 l 1
375 351 m 3
 333 351 267 268 215 94 c 1
 209 59 l 1
 224 48 258 36 290 36 c 3
 371 36 410 163 410 289 c 3
 410 341 398 351 375 351 c 3
EndSplineSet
Validated: 1
Substitution2: "Single Substitution lookup 14 subtable" p.smcpflag
Substitution2: "'smcp' Lowercase to Small Capitals lookup 10-1" p.smcp
EndChar

StartChar: q
Encoding: 81 113 81
Width: 512
GlyphClass: 2
Flags: HMW
LayerCount: 2
Back
Fore
SplineSet
396 437 m 3
 425 437 482 433 515 422 c 1
 474 248 l 1
 410 -119 l 9
 410 -178 l 1
 476 -183 l 1
 478 -207 l 1
 290 -230 l 1
 286 -218 l 1
 356 174 l 1
 301 56 230 -12 170 -12 c 3
 131 -12 78 9 78 111 c 3
 78 263 189 437 396 437 c 3
323 389 m 3
 222 389 189 262 189 136 c 3
 189 84 201 75 224 75 c 3
 256 75 331 156 383 329 c 1
 391 367 l 1
 376 378 348 389 323 389 c 3
EndSplineSet
Validated: 1
Substitution2: "Single Substitution lookup 14 subtable" q.smcpflag
Substitution2: "'smcp' Lowercase to Small Capitals lookup 10-1" q.smcp
EndChar

StartChar: r
Encoding: 82 114 82
Width: 402
GlyphClass: 4
Flags: HMW
AnchorPoint: "bottom" 149 0 basechar 0
AnchorPoint: "top" 311 425 basechar 0
LayerCount: 2
Back
Fore
SplineSet
276 437 m 5
 241 240 l 1
 297 374 345 437 410 437 c 3
 432 437 446 429 454 422 c 1
 423 330 l 1
 413 325 l 1
 397 335 384 337 364 337 c 3
 310 337 239 202 215 94 c 1
 200 9 l 1
 94 -12 l 1
 88 -1 l 1
 125 175 l 1
 150 326 l 9
 150 385 l 1
 93 390 l 1
 91 414 l 1
 276 437 l 5
EndSplineSet
Validated: 1
Substitution2: "Single Substitution lookup 14 subtable" r.smcpflag
Substitution2: "'smcp' Lowercase to Small Capitals lookup 10-1" r.smcp
EndChar

StartChar: s
Encoding: 83 115 83
Width: 362
GlyphClass: 4
Flags: HMW
AnchorPoint: "bottom" 182 0 basechar 0
AnchorPoint: "top" 258 425 basechar 0
LayerCount: 2
Back
Fore
SplineSet
305 437 m 3
 334 437 360 432 379 423 c 1
 357 341 l 1
 339 336 l 1
 317 352 270 376 225 376 c 3
 200 376 177 367 177 339 c 3
 177 310 211 290 254 261 c 0
 312 222 345 186 345 128 c 3
 345 46 240 -12 156 -12 c 3
 108 -12 58 4 39 15 c 1
 55 98 l 1
 73 103 l 1
 95 87 162 46 207 46 c 3
 244 46 259 53 259 83 c 3
 259 114 241 132 185 170 c 4
 130 207 97 243 97 289 c 3
 97 379 214 437 305 437 c 3
EndSplineSet
Validated: 1
Substitution2: "Single Substitution lookup 14 subtable" s.smcpflag
Substitution2: "'smcp' Lowercase to Small Capitals lookup 10-1" s.smcp
EndChar

StartChar: t
Encoding: 84 116 84
Width: 326
GlyphClass: 4
Flags: HMW
AnchorPoint: "bottom" 175 0 basechar 0
LayerCount: 2
Back
SplineSet
264 540 m 1
 275 529 l 1
 204 125 l 2
 194 69 201 49 234 49 c 3
 252 49 284 60 303 73 c 1
 313 54 l 1
 278 21 211 -12 160 -12 c 3
 106 -12 78 7 95 105 c 2
 168 518 l 1
 264 540 l 1
344 387 m 1
 88 387 l 1
 91 403 l 1
 129 425 l 1
 351 425 l 1
 344 387 l 1
EndSplineSet
Fore
SplineSet
264 540 m 1
 275 529 l 1
 257 425 l 1
 351 425 l 1
 344 387 l 1
 250 387 l 1
 204 125 l 2
 194 69 201 49 234 49 c 3
 252 49 284 60 303 73 c 1
 313 54 l 1
 278 21 211 -12 160 -12 c 3
 106 -12 78 7 95 105 c 2
 145 387 l 1
 88 387 l 1
 91 403 l 1
 129 425 l 1
 152 425 l 1
 168 518 l 1
 264 540 l 1
EndSplineSet
Validated: 1048609
Substitution2: "Single Substitution lookup 14 subtable" t.smcpflag
Substitution2: "'smcp' Lowercase to Small Capitals lookup 10-1" t.smcp
EndChar

StartChar: u
Encoding: 85 117 85
Width: 548
GlyphClass: 4
Flags: HMW
AnchorPoint: "top" 332 425 basechar 0
LayerCount: 2
Back
Fore
SplineSet
270 437 m 5
 255 312 l 5
 221 122 l 6
 214 82 227 63 255 63 c 7
 291 63 342 156 401 331 c 5
 416 415 l 5
 524 437 l 5
 530 426 l 5
 491 250 l 5
 466 102 l 13
 466 43 l 5
 524 38 l 5
 526 14 l 5
 344 -9 l 5
 342 4 l 5
 378 195 l 5
 317 48 277 -12 192 -12 c 7
 146 -12 96 18 111 103 c 6
 147 311 l 13
 147 385 l 5
 90 390 l 5
 88 414 l 5
 270 437 l 5
EndSplineSet
Validated: 1048609
Substitution2: "Single Substitution lookup 14 subtable" u.smcpflag
Substitution2: "'smcp' Lowercase to Small Capitals lookup 10-1" u.smcp
EndChar

StartChar: v
Encoding: 86 118 86
Width: 475
GlyphClass: 2
Flags: HMW
LayerCount: 2
Back
Fore
SplineSet
258 437 m 5
 236 96 l 2
 234 59 242 49 260 49 c 3
 294 49 375 199 375 303 c 3
 375 331 368 373 357 392 c 1
 454 437 l 1
 475 433 l 1
 487 424 492 399 492 381 c 3
 492 250 314 -12 203 -12 c 3
 167 -12 130 0 133 67 c 2
 146 326 l 13
 142 385 l 5
 85 390 l 5
 83 414 l 5
 258 437 l 5
EndSplineSet
Validated: 33
Substitution2: "Single Substitution lookup 14 subtable" v.smcpflag
Substitution2: "'smcp' Lowercase to Small Capitals lookup 10-1" v.smcp
EndChar

StartChar: w
Encoding: 87 119 87
Width: 696
GlyphClass: 4
Flags: HMW
AnchorPoint: "top" 441 425 basechar 0
LayerCount: 2
Back
Fore
SplineSet
258 437 m 1
 236 96 l 2
 234 59 244 49 257 49 c 3
 286 49 370 209 370 303 c 3
 370 331 363 373 352 392 c 1
 447 437 l 1
 468 433 l 1
 480 424 486 399 486 381 c 3
 486 355 480 312 475 290 c 2
 462 96 l 2
 460 59 470 49 488 49 c 3
 522 49 596 199 596 303 c 3
 596 331 589 373 578 392 c 1
 675 437 l 1
 696 433 l 1
 708 424 713 399 713 381 c 3
 713 250 540 -12 429 -12 c 3
 393 -12 356 0 359 67 c 2
 363 148 l 1
 321 52 260 -12 203 -12 c 3
 167 -12 130 0 133 67 c 2
 146 326 l 9
 142 385 l 1
 85 390 l 1
 83 414 l 1
 258 437 l 1
EndSplineSet
Validated: 1048609
Substitution2: "Single Substitution lookup 14 subtable" w.smcpflag
Substitution2: "'smcp' Lowercase to Small Capitals lookup 10-1" w.smcp
EndChar

StartChar: x
Encoding: 88 120 88
Width: 462
GlyphClass: 2
Flags: HMW
LayerCount: 2
Back
SplineSet
265 437 m 1
 307 259 l 1
 361 76 l 9
 388 43 l 1
 442 43 l 1
 444 19 l 1
 270 -9 l 1
 227 181 l 1
 176 352 l 25
 149 385 l 1
 95 385 l 1
 93 409 l 1
 265 437 l 1
237 211 m 1
 269 211 l 1
 200 94 192 75 168 42 c 0
 147 13 116 -12 81 -12 c 3
 60 -12 45 -9 33 0 c 1
 56 83 l 1
 69 90 l 1
 90 84 107 79 129 79 c 3
 159 79 175 103 237 211 c 1
441 437 m 3
 462 437 477 434 489 425 c 1
 466 342 l 1
 453 335 l 1
 432 341 420 346 398 346 c 3
 369 346 354 324 298 227 c 1
 265 227 l 1
 324 327 336 352 359 383 c 0
 380 412 406 437 441 437 c 3
EndSplineSet
Fore
SplineSet
265 437 m 1
 300 287 l 1
 330 339 342 359 359 383 c 0
 380 412 406 437 441 437 c 0
 462 437 477 434 489 425 c 1
 466 342 l 1
 453 335 l 1
 432 341 420 346 398 346 c 0
 371 346 356 327 310 248 c 1
 361 76 l 1
 388 43 l 1
 442 43 l 1
 444 19 l 1
 270 -9 l 1
 234 151 l 1
 196 86 187 68 168 42 c 0
 147 13 116 -12 81 -12 c 0
 60 -12 45 -9 33 0 c 1
 56 83 l 1
 69 90 l 1
 90 84 107 79 129 79 c 0
 157 79 173 99 225 189 c 1
 176 352 l 1
 149 385 l 1
 95 385 l 1
 93 409 l 1
 265 437 l 1
EndSplineSet
Validated: 1
Substitution2: "Single Substitution lookup 14 subtable" x.smcpflag
Substitution2: "'smcp' Lowercase to Small Capitals lookup 10-1" x.smcp
EndChar

StartChar: y
Encoding: 89 121 89
Width: 515
GlyphClass: 4
Flags: HMW
AnchorPoint: "top" 316 425 basechar 0
LayerCount: 2
Back
Fore
SplineSet
257 437 m 1
 242 312 l 1
 208 122 l 2
 201 82 214 63 242 63 c 3
 278 63 329 156 388 331 c 1
 403 415 l 1
 511 437 l 1
 517 426 l 1
 478 249 l 1
 437 7 l 2
 414 -129 321 -177 274 -206 c 0
 238 -228 205 -230 148 -230 c 3
 108 -230 61 -218 35 -198 c 1
 59 -121 l 1
 73 -112 l 1
 112 -142 186 -159 231 -159 c 3
 287 -159 304 -150 319 -63 c 2
 365 195 l 1
 304 48 269 -12 184 -12 c 3
 138 -12 83 18 98 103 c 2
 134 311 l 9
 134 385 l 1
 77 390 l 1
 75 414 l 1
 257 437 l 1
EndSplineSet
Validated: 1048609
Substitution2: "Single Substitution lookup 14 subtable" y.smcpflag
Substitution2: "'smcp' Lowercase to Small Capitals lookup 10-1" y.smcp
EndChar

StartChar: z
Encoding: 90 122 90
Width: 401
GlyphClass: 4
Flags: HMW
AnchorPoint: "top" 250 425 basechar 0
LayerCount: 2
Back
Fore
SplineSet
123 437 m 1
 163 437 l 1
 312 409 l 2
 336 404 352 409 395 437 c 1
 413 413 l 1
 337 335 l 1
 170 113 l 1
 295 87 l 2
 337 78 355 85 379 125 c 1
 401 121 l 1
 357 -12 l 5
 312 -12 l 5
 146 20 l 6
 115 26 89 18 46 -12 c 5
 28 12 l 5
 114 102 l 5
 279 324 l 1
 199 339 l 2
 156 348 129 340 105 300 c 1
 83 304 l 1
 123 437 l 1
EndSplineSet
Validated: 1048609
Substitution2: "Single Substitution lookup 14 subtable" z.smcpflag
Substitution2: "'smcp' Lowercase to Small Capitals lookup 10-1" z.smcp
EndChar

StartChar: braceleft
Encoding: 91 123 91
Width: 346
GlyphClass: 2
Flags: HMW
LayerCount: 2
Back
Fore
SplineSet
104 259 m 1
 107 279 l 1
 167 288 193 325 200 410 c 2
 208 520 l 2
 216 627 264 680 353 687 c 1
 354 666 l 1
 294 658 292 619 286 530 c 2
 280 434 l 2
 275 321 213 285 168 269 c 1
 207 253 258 217 227 104 c 2
 203 8 l 2
 180 -81 169 -120 227 -128 c 1
 222 -149 l 1
 135 -142 103 -89 129 18 c 2
 155 128 l 2
 175 213 162 250 104 259 c 1
EndSplineSet
Validated: 33
EndChar

StartChar: bar
Encoding: 92 124 92
Width: 228
GlyphClass: 2
Flags: HMW
LayerCount: 2
Back
Fore
SplineSet
227 770 m 1
 273 770 l 5
 96 -230 l 5
 50 -230 l 1
 227 770 l 1
EndSplineSet
Validated: 1
EndChar

StartChar: asciitilde
Encoding: 94 126 94
Width: 476
GlyphClass: 2
Flags: HMW
LayerCount: 2
Back
Fore
SplineSet
474 276 m 1
 493 254 l 1
 445 198 391 175 342 175 c 3
 275 175 232 212 171 212 c 3
 132 212 117 205 82 176 c 1
 63 198 l 1
 111 254 165 277 214 277 c 3
 281 277 324 240 385 240 c 3
 424 240 439 247 474 276 c 1
EndSplineSet
Validated: 1
EndChar

StartChar: cent
Encoding: 96 162 96
Width: 409
GlyphClass: 2
Flags: HMW
LayerCount: 2
Back
Fore
SplineSet
308 506 m 5
 335 503 l 5
 228 -98 l 5
 201 -95 l 5
 308 506 l 5
EndSplineSet
Refer: 67 99 N 1 0 0 1 0 0 2
Validated: 5
EndChar

StartChar: sterling
Encoding: 97 163 97
Width: 440
GlyphClass: 2
Flags: HMW
LayerCount: 2
Back
SplineSet
74 -138 m 2
 74 -138 156 367 156 367 c 2
 174 477 237 534 283 568 c 0
 319.366193092 594.879360111 345 608 380 608 c 3
 402 608 428 604 444 599 c 1
 417 516 l 1
 404 511 l 1
 379 522 349 537 322 537 c 3
 292 537 287.200195312 518.291992188 274 437 c 2
 274 437 192 -68 192 -68 c 1026
170 113 m 1
 170 113 335 87 335 87 c 6
 378.341994911 80.1703523171 395 85 419 125 c 1
 419 125 441 121 441 121 c 1
 441 121 397 -12 397 -12 c 1
 397 -12 352 -12 352 -12 c 1
 352 -12 146 20 146 20 c 2
 115 26 89 18 46 -12 c 1
 46 -12 28 12 28 12 c 1
 114 102 l 1025
EndSplineSet
Fore
SplineSet
221 105 m 1
 336 87 l 2
 378 80 395 85 419 125 c 1
 441 121 l 1
 397 -12 l 1
 352 -12 l 1
 146 20 l 2
 115 26 89 18 46 -12 c 1
 28 12 l 1
 114 102 l 9
 156 366 l 2
 174 476 238 533 282 567 c 0
 316 593 345 607 381 607 c 3
 403 607 428 604 444 598 c 1
 417 516 l 1
 404 511 l 1
 379 522 351 537 319 537 c 3
 290 537 285 511 273 436 c 2
 221 105 l 1
349 307 m 1
 89 307 l 1
 92 323 l 1
 153 345 l 1
 356 345 l 1
 349 307 l 1
EndSplineSet
Validated: 37
EndChar

StartChar: yen
Encoding: 98 165 98
Width: 548
VWidth: 0
GlyphClass: 2
Flags: HMW
LayerCount: 2
Back
SplineSet
531 554 m 5
 307 217 l 5
 287 217 l 5
 178 557 l 5
 124 573 l 5
 124 594 l 5
 300 594 l 5
 300 573 l 5
 260 554 l 5
 333 317 l 5
 481 553 l 5
 433 573 l 5
 433 594 l 5
 595 594 l 5
 595 573 l 5
 531 554 l 5
303 39 m 13
 368 20 l 5
 368 0 l 5
 156 0 l 5
 156 20 l 5
 228 45 l 21
 269 274 l 5
 344 274 l 5
 303 39 l 13
EndSplineSet
Fore
SplineSet
118 594 m 5
 337 594 l 5
 337 573 l 5
 296 554 l 5
 369 317 l 5
 516 553 l 5
 469 573 l 5
 469 594 l 5
 631 594 l 5
 631 573 l 5
 567 554 l 5
 343 217 l 5
 284 217 l 5
 172 557 l 5
 118 573 l 5
 118 594 l 5
229 243 m 1
 453 243 l 1
 447 209 l 1
 176 209 l 1
 179 225 l 1
 229 243 l 1
213 153 m 1
 437 153 l 1
 431 119 l 1
 160 119 l 1
 163 135 l 1
 213 153 l 1
339 39 m 1
 406 20 l 1
 406 0 l 1
 155 0 l 1
 155 20 l 1
 227 45 l 1
 268 274 l 1
 380 274 l 1
 339 39 l 1
EndSplineSet
Validated: 5
EndChar

StartChar: brokenbar
Encoding: 99 166 99
Width: 229
VWidth: 0
GlyphClass: 2
Flags: HMW
LayerCount: 2
Back
Fore
SplineSet
117 149 m 1
 164 149 l 1
 97 -230 l 1
 50 -230 l 1
 117 149 l 1
227 770 m 1
 274 770 l 1
 213 425 l 1
 166 425 l 1
 227 770 l 1
EndSplineSet
Validated: 1
EndChar

StartChar: section
Encoding: 100 167 100
Width: 473
GlyphClass: 2
Flags: HMW
LayerCount: 2
Back
SplineSet
270 332 m 1
 208 332 156 298 156 226 c 3
 156 170 196.298308782 142.901059334 260 103 c 0
 351 46 395 5 395 -58 c 3
 395 -155 306 -231 163 -231 c 3
 94 -231 58 -219 20 -202 c 1
 32 -82 l 1
 70 -79 l 1
 73 -168 l 1
 100 -182 140 -197 180 -197 c 3
 253 -197 323 -168 323 -95 c 3
 323 -33 278 -6 209 40 c 0
 123 97 91 139 91 199 c 3
 91 277 168 365 285 365 c 1
 270 332 l 1
245 98 m 1
 318 98 373 125 373 193 c 3
 373 255 340 279 271 325 c 0
 185 382 153 427 153 487 c 3
 153 565 225 650 347 650 c 3
 413 650 452 637 472 628 c 1
 455 518 l 1
 417 515 l 1
 419 597 l 1
 402 607 363 617 332 617 c 3
 265 617 218 586 218 514 c 3
 218 458 259 434 322 393 c 0
 408 336 445 298 445 235 c 3
 445 143 371 64 228 64 c 1
 245 98 l 1
EndSplineSet
Fore
SplineSet
284 332 m 1
 217 332 179 295 179 231 c 3
 179 180 218 145 281 105 c 0
 372 47 415 9 415 -58 c 3
 415 -150 335 -231 171 -231 c 3
 102 -231 59 -219 21 -202 c 1
 29 -81 l 1
 74 -80 l 1
 79 -172 l 1
 106 -187 143 -197 183 -197 c 3
 250 -197 312 -172 312 -108 c 3
 312 -50 268 -12 198 34 c 0
 112 91 87 139 87 199 c 3
 87 277 160 365 290 365 c 1
 284 332 l 1
255 99 m 1
 322 99 366 120 366 184 c 3
 366 242 341 276 272 322 c 0
 186 379 161 427 161 487 c 3
 161 565 234 653 364 653 c 3
 430 653 478 640 498 631 c 1
 481 521 l 1
 440 522 l 1
 440 603 l 1
 423 612 391 620 358 620 c 3
 291 620 253 583 253 519 c 3
 253 468 292 434 355 393 c 0
 441 336 465 293 465 230 c 3
 465 138 382 65 243 65 c 1
 255 99 l 1
EndSplineSet
Validated: 5
Colour: ff8f94
EndChar

StartChar: copyright
Encoding: 102 169 102
Width: 721
VWidth: 0
GlyphClass: 2
Flags: HMW
LayerCount: 2
Back
Fore
SplineSet
457 574 m 7
 500 574 534 567 552 559 c 5
 546 451 l 5
 517 451 l 5
 502 516 l 5
 487 523 455 530 432 530 c 7
 395 530 361 523 342 501 c 4
 317 473 306 431 306 369 c 7
 306 248 372 173 452 173 c 7
 490 173 535 185 556 200 c 5
 569 183 l 5
 526 137 468 125 420 125 c 7
 333 125 231 195 231 342 c 7
 231 500 352 574 457 574 c 7
98 352 m 7
 98 169 236 30 424 30 c 7
 612 30 751 169 751 352 c 7
 751 535 612 674 424 674 c 7
 233 674 98 535 98 352 c 7
68 352 m 7
 68 551 220 704 424 704 c 7
 633 704 781 556 781 352 c 7
 781 153 628 0 424 0 c 7
 220 0 68 153 68 352 c 7
EndSplineSet
Validated: 1
EndChar

StartChar: ordfeminine
Encoding: 103 170 103
Width: 446
GlyphClass: 2
Flags: HMW
LayerCount: 2
Back
Fore
SplineSet
367 690 m 3
 395 690 435 686 458 679 c 1
 417 488 l 9
 417 429 l 1
 475 424 l 1
 477 400 l 1
 320 377 l 1
 318 390 l 1
 337 498 l 1
 299 415 254 376 212 376 c 3
 185 376 146 391 146 462 c 3
 146 568 222 690 367 690 c 3
314 648 m 3
 249 648 236 574 236 499 c 3
 236 473 245 446 266 446 c 3
 290 446 329 529 358 616 c 1
 363 640 l 1
 353 644 332 648 314 648 c 3
EndSplineSet
Validated: 1
EndChar

StartChar: logicalnot
Encoding: 105 172 105
Width: 494
VWidth: 0
GlyphClass: 2
Flags: HMW
LayerCount: 2
Back
Fore
SplineSet
444 215 m 1
 498 259 l 1
 461 49 l 1
 415 49 l 1
 444 215 l 1
80 215 m 1
 88 259 l 1
 498 259 l 1
 444 215 l 1
 80 215 l 1
EndSplineSet
Validated: 5
EndChar

StartChar: registered
Encoding: 107 174 107
Width: 721
VWidth: 0
GlyphClass: 2
Flags: HMW
LayerCount: 2
Back
Fore
SplineSet
372 171 m 1
 421 155 l 1
 421 137 l 1
 233 137 l 1
 233 155 l 1
 298 180 l 1
 298 519 l 1
 236 543 l 1
 236 562 l 1
 445 562 l 2
 533 562 573 527 573 457 c 3
 573 379 516 347 466 338 c 1
 596 181 l 1
 626 149 l 1
 626 137 l 1
 536 137 l 1
 388 343 l 1
 388 361 l 17
 458 361 496 380 496 453 c 3
 496 508 471 529 420 529 c 2
 372 529 l 1
 372 171 l 1
96 352 m 3
 96 169 234 30 422 30 c 3
 610 30 749 169 749 352 c 3
 749 535 610 674 422 674 c 3
 231 674 96 535 96 352 c 3
66 352 m 3
 66 551 218 704 422 704 c 3
 631 704 779 556 779 352 c 3
 779 153 626 0 422 0 c 3
 218 0 66 153 66 352 c 3
EndSplineSet
Validated: 1
EndChar

StartChar: degree
Encoding: 109 176 109
Width: 282
VWidth: -3
GlyphClass: 2
Flags: HMW
LayerCount: 2
Back
Fore
SplineSet
244 655 m 3
 221 655 210 648 199 638 c 1
 185 621 179 609 179 581 c 3
 179 526 211 501 244 501 c 3
 267 501 277 508 288 518 c 1
 302 535 307 547 307 575 c 3
 307 630 277 655 244 655 c 3
237 465 m 3
 195 465 132 496 132 571 c 3
 132 643 181 690 248 690 c 3
 290 690 354 660 354 585 c 3
 354 513 304 465 237 465 c 3
EndSplineSet
Validated: 1
EndChar

StartChar: plusminus
Encoding: 110 177 110
Width: 460
VWidth: 0
GlyphClass: 2
Flags: HMW
LayerCount: 2
Back
Fore
SplineSet
46 24 m 1
 54 68 l 1
 430 68 l 1
 422 24 l 1
 46 24 l 1
282 425 m 5
 328 425 l 1
 272 108 l 1
 226 108 l 5
 282 425 l 5
85 244 m 1
 93 288 l 1
 469 288 l 1
 461 244 l 1
 85 244 l 1
EndSplineSet
Validated: 5
EndChar

StartChar: uni00B2
Encoding: 111 178 111
Width: 415
VWidth: 0
GlyphClass: 3
Flags: HMW
LayerCount: 2
Back
Fore
SplineSet
297 712 m 3
 263 712 249 706 216 693 c 1
 206 718 l 1
 263 754 297 770 353 770 c 3
 426 770 452 726 452 672 c 3
 452 582 352 495 254 434 c 1
 385 434 l 9
 419 473 l 1
 439 468 l 1
 401 358 l 1
 129 358 l 1
 129 390 l 1
 296 487 351 577 351 649 c 3
 351 693 328 712 297 712 c 3
EndSplineSet
Validated: 1
Ligature2: "Opentypeshortcuts subtable" asciicircum two
LCarets2: 1 0
EndChar

StartChar: uni00B3
Encoding: 112 179 112
Width: 383
VWidth: 0
GlyphClass: 3
Flags: HMW
LayerCount: 2
Back
Fore
SplineSet
411 493 m 3
 411 393 267 348 124 348 c 1
 124 385 l 1
 248 385 306 418 306 475 c 3
 306 500 297 518 279 530 c 0
 264 540 245 543 230 544 c 1
 231 570 l 1
 287 597 309 627 309 673 c 3
 309 705 284 721 254 721 c 3
 234 721 223 719 199 712 c 1
 191 733 l 1
 232 757 267 770 315 770 c 3
 375 770 411 742 411 692 c 3
 411 633 343 593 299 578 c 1
 319 577 342 573 356 568 c 0
 393 555 411 534 411 493 c 3
EndSplineSet
Validated: 1
Ligature2: "Opentypeshortcuts subtable" asciicircum three
LCarets2: 1 0
EndChar

StartChar: mu
Encoding: 114 181 114
Width: 548
GlyphClass: 2
Flags: HMW
LayerCount: 2
Back
Fore
SplineSet
270 437 m 5
 255 312 l 1
 221 122 l 2
 214 82 227 63 255 63 c 3
 291 63 342 156 401 331 c 1
 416 415 l 1
 524 437 l 1
 530 426 l 1
 491 250 l 1
 466 102 l 9
 466 43 l 1
 524 38 l 1
 526 14 l 1
 344 -9 l 1
 342 4 l 1
 378 195 l 1
 317 48 277 -12 192 -12 c 3
 170 -12 154 -5 145 10 c 1
 154 -202 l 1
 39 -230 l 1
 36 -215 l 1
 85 -38 l 1
 147 311 l 9
 147 385 l 1
 90 390 l 1
 88 414 l 1
 270 437 l 5
EndSplineSet
Validated: 33
Colour: ff8f94
EndChar

StartChar: paragraph
Encoding: 115 182 115
Width: 523
VWidth: 0
GlyphClass: 2
Flags: HMW
LayerCount: 2
Back
Fore
SplineSet
395 600 m 1
 289 0 l 1
 244 0 l 1
 289 256 l 1
 166 256 102 311 102 432 c 3
 102 553 196 638 347 638 c 2
 582 638 l 1
 582 618 l 1
 504 596 l 1
 399 0 l 1
 354 0 l 1
 460 600 l 1
 395 600 l 1
EndSplineSet
Validated: 1
EndChar

StartChar: uni00B9
Encoding: 118 185 118
Width: 353
VWidth: -3
GlyphClass: 3
Flags: HMW
LayerCount: 2
Back
Fore
SplineSet
298 394 m 1
 366 378 l 1
 362 359 l 1
 118 359 l 1
 122 378 l 1
 207 403 l 1
 262 717 l 1
 194 729 l 1
 197 749 l 1
 364 764 l 1
 298 394 l 1
EndSplineSet
Validated: 1
Ligature2: "Opentypeshortcuts subtable" asciicircum one
LCarets2: 1 0
EndChar

StartChar: ordmasculine
Encoding: 119 186 119
Width: 424
GlyphClass: 2
Flags: HMW
LayerCount: 2
Back
Fore
SplineSet
346 690 m 3
 402 690 451 667 451 588 c 3
 451 449 332 376 266 376 c 3
 209 376 161 398 161 477 c 3
 161 616 279 690 346 690 c 3
293 418 m 3
 334 418 358 485 358 571 c 3
 358 627 344 648 319 648 c 3
 278 648 255 581 255 495 c 3
 255 439 267 418 293 418 c 3
EndSplineSet
Validated: 1
EndChar

StartChar: AE
Encoding: 131 198 131
Width: 857
GlyphClass: 2
Flags: HMW
LayerCount: 2
Back
Fore
SplineSet
356 638 m 1
 876 638 l 1
 859 510 l 1
 814 510 l 1
 814 596 l 1
 626 596 l 1
 538 44 l 1
 758 44 l 1
 798 142 l 1
 844 134 l 1
 808 0 l 1
 346 0 l 1
 346 20 l 1
 424 45 l 1
 512 599 l 1
 477 599 l 1
 123 38 l 1
 193 20 l 1
 193 0 l 1
 0 0 l 1
 0 20 l 1
 65 37 l 1
 425 599 l 1
 356 618 l 1
 356 638 l 1
544 312 m 1
 550 353 l 1
 723 353 l 1
 741 409 l 1
 776 409 l 1
 752 256 l 1
 717 256 l 1
 716 312 l 1
 544 312 l 1
218 216 m 1
 224 253 l 1
 492 253 l 1
 486 216 l 1
 218 216 l 1
EndSplineSet
Validated: 5
Colour: ff8f94
EndChar

StartChar: Eth
Encoding: 141 208 141
Width: 646
GlyphClass: 2
Flags: HMW
LayerCount: 2
Back
Fore
SplineSet
393 314 m 5
 92 314 l 1
 95 330 l 1
 156 352 l 1
 400 352 l 5
 393 314 l 5
EndSplineSet
Refer: 36 68 N 1 0 0 1 0 0 2
Validated: 5
EndChar

StartChar: multiply
Encoding: 148 215 148
Width: 460
VWidth: 0
GlyphClass: 2
Flags: HMW
LayerCount: 2
Back
Fore
SplineSet
144 354 m 1
 181 385 l 1
 399 120 l 1
 361 87 l 1
 144 354 l 1
130 88 m 1
 101 122 l 1
 413 387 l 1
 441 353 l 1
 130 88 l 1
EndSplineSet
Validated: 5
EndChar

StartChar: Oslash
Encoding: 149 216 149
Width: 660
GlyphClass: 2
Flags: HMW
LayerCount: 2
Back
Fore
SplineSet
661 689 m 1
 685 667 l 1
 134 -62 l 1
 110 -40 l 1
 661 689 l 1
EndSplineSet
Refer: 47 79 N 1 0 0 1 0 0 2
Validated: 5
EndChar

StartChar: Thorn
Encoding: 155 222 155
Width: 584
GlyphClass: 2
Flags: HMW
LayerCount: 2
Back
Fore
SplineSet
324 518 m 25
 406 518 l 2
 540 518 607 491 607 372 c 3
 607 234 478 158 314 158 c 2
 298 158 l 1
 303 191 l 1
 317 191 l 2
 407 191 484 238 484 367 c 3
 484 470 442 480 377 480 c 2
 318 480 l 1
 324 518 l 25
155 638 m 1
 414 638 l 1
 414 618 l 1
 336 593 l 1
 248 39 l 1
 317 20 l 1
 317 0 l 1
 58 0 l 1
 58 20 l 1
 136 45 l 1
 224 599 l 1
 155 618 l 1
 155 638 l 1
EndSplineSet
Validated: 5
Colour: ff8f94
EndChar

StartChar: germandbls
Encoding: 156 223 156
Width: 600
GlyphClass: 2
Flags: HMW
LayerCount: 2
Back
SplineSet
463 415 m 1
 495 565 453.852539062 641 368 641 c 3
 315 641 278.781985796 607.035400326 264 516 c 2
 264 516 182 11 182 11 c 2
 164 -99 110 -158 65 -190 c 0
 28 -216 1 -230 -34 -230 c 3
 -56 -230 -77 -221 -93 -206 c 1
 -68 -148 l 1
 -55 -143 l 1
 -30 -159 -4 -169 28 -169 c 3
 58 -169 85 -150 100 -59 c 2
 100 -59 182 446 182 446 c 2
 200 556 254 615 299 647 c 0
 336 673 363 687 398 687 c 3
 519.658462605 687 539 572 497.653320312 410 c 1
 480 387 l 1
 415 382 365 354 365 322 c 3
 365 287 392 275 434 245 c 0
 492 204 523 176 523 118 c 3
 523 46 443 -12 359 -12 c 3
 311 -12 280 -1 261 10 c 1
 276.293945312 73 l 1
 294 78 l 1
 316 62 355 36 400 36 c 3
 452 36 462 53 462 83 c 3
 462 124 446 139 391 178 c 0
 336 217 305 247 305 293 c 3
 305 366 387 401 463 415 c 1
219 387 m 1
 219 387 115 387 115 387 c 1
 115 387 118 403 118 403 c 1
 118 403 179 425 179 425 c 1
 179 425 226 425 226 425 c 1
 226 425 219 387 219 387 c 1
EndSplineSet
Fore
SplineSet
219 387 m 1
 115 387 l 1
 118 403 l 1
 179 425 l 1
 226 425 l 1
 219 387 l 1
423 687 m 3
 528 687 583 605 534 410 c 1
 511 381 l 1
 486 377 436 360 436 334 c 3
 436 305 463 293 503 261 c 0
 552 222 584 186 584 128 c 3
 584 47 489 -12 405 -12 c 3
 357 -12 317 -1 298 10 c 1
 314 93 l 1
 332 98 l 1
 354 82 411 46 456 46 c 3
 483 46 495 56 495 83 c 3
 495 114 480 132 434 170 c 0
 383 212 356 243 356 289 c 3
 356 379 442 399 494 415 c 1
 526 565 460 621 385 621 c 3
 327 621 313 597 300 516 c 2
 218 11 l 2
 200 -99 126 -158 81 -190 c 0
 44 -216 19 -230 -16 -230 c 3
 -38 -230 -64 -226 -80 -221 c 1
 -53 -138 l 1
 -40 -133 l 1
 -15 -144 19 -159 46 -159 c 3
 76 -159 87 -140 100 -59 c 2
 182 446 l 2
 200 556 274 615 319 647 c 0
 356 673 383 687 423 687 c 3
EndSplineSet
Validated: 37
Colour: ff8f94
EndChar

StartChar: ae
Encoding: 163 230 163
Width: 669
VWidth: -3
GlyphClass: 2
Flags: HMW
LayerCount: 2
Back
SplineSet
375 77 m 2
 370 49 379 37 438 37 c 1
 438 37 440 13 440 13 c 1
 440 13 309 -10 309 -10 c 1
 309 -10 295 3 295 3 c 1
 299 70 l 25
 310 139 l 1
 335 269 l 2
 352 354 325 386 271 386 c 3
 229 386 207 379 162 354 c 1
 149 380 l 1
 208 417 255 437 309 437 c 3
 379 437 432 398 413 289 c 2
 375 77 l 2
199 41 m 3
 231 41 282 73 310 139 c 9
 299 70 l 17
 257 13 199 -12 151 -12 c 3
 92 -12 64 27.009765625 64 79 c 3
 64 137.8125 125.06640625 200.65234375 204 216 c 0
 276 230 297 230 328 234 c 1
 322 199 l 1
 291 196 265.084642415 191.514107069 232 186 c 0
 172 176 143 135.614257812 143 89 c 3
 143 54.3603515625 164 41 199 41 c 3
EndSplineSet
Fore
SplineSet
565 437 m 3
 616 437 651 399 651 352 c 3
 651 273 554 218 420 203 c 1
 420 233 l 1
 540 245 551 298 551 349 c 3
 551 374 536 385 519 385 c 3
 448 385 423 299 423 161 c 3
 423 81 453 55 489 55 c 3
 541 55 595 89 631 123 c 1
 652 101 l 1
 595 41 517 -12 450 -12 c 3
 376 -12 314 20 314 133 c 3
 314 290 448 437 565 437 c 3
322 437 m 3
 408 437 453 378 434 294 c 1
 395 146 l 17
 325 79 l 1
 305 139 l 1
 330 269 l 2
 345 349 319 372 265 372 c 3
 223 372 195 361 160 336 c 1
 141 361 l 1
 186 398 244 437 322 437 c 3
224 51 m 3
 251 51 280 78 305 139 c 9
 325 79 l 17
 288 22 239 -12 163 -12 c 3
 93 -12 64 27 64 79 c 3
 64 138 98 195 218 216 c 0
 275 226 292 230 323 234 c 1
 318 202 l 1
 287 199 279 195 246 189 c 0
 196 180 179 143 179 99 c 3
 179 64 196 51 224 51 c 3
EndSplineSet
Validated: 37
Colour: ff8f94
EndChar

StartChar: eth
Encoding: 173 240 173
Width: 501
GlyphClass: 2
Flags: HMW
LayerCount: 2
Back
Fore
SplineSet
528 601 m 1
 270 530 l 1
 266 548 l 1
 305 575 l 1
 517 635 l 1
 528 601 l 1
315 690 m 1
 408 657 511 581 511 444 c 3
 511 230 363 -12 188 -12 c 3
 131 -12 78 9 78 111 c 3
 78 257 202 437 372 437 c 3
 385 437 396 435 405 432 c 1
 407 447 408 458 408 480 c 3
 408 559 361 634 301 663 c 1
 315 690 l 1
397 370 m 1
 382 381 349 389 324 389 c 3
 196 389 189 262 189 136 c 3
 189 64 209 45 237 45 c 3
 279 45 320 70 391 331 c 1
 397 370 l 1
EndSplineSet
Validated: 5
EndChar

StartChar: divide
Encoding: 180 247 180
Width: 460
VWidth: 0
GlyphClass: 2
Flags: HMW
LayerCount: 2
Back
Fore
SplineSet
80 215 m 1
 88 259 l 1
 464 259 l 1
 456 215 l 1
 80 215 l 1
EndSplineSet
Refer: 445 775 N 1 0 0 1 346 -481 2
Refer: 445 775 N 1 0 0 1 394 -207 2
Validated: 1
EndChar

StartChar: oslash
Encoding: 181 248 181
Width: 451
GlyphClass: 2
Flags: HMW
LayerCount: 2
Back
Fore
SplineSet
469 494 m 5
 493 472 l 5
 89 -62 l 5
 65 -40 l 5
 469 494 l 5
EndSplineSet
Refer: 79 111 N 1 0 0 1 0 0 2
Validated: 5
EndChar

StartChar: thorn
Encoding: 187 254 187
Width: 530
GlyphClass: 2
Flags: HMW
LayerCount: 2
Back
Fore
SplineSet
323 690 m 1
 239 248 l 1
 294 366 369 437 429 437 c 3
 468 437 521 416 521 314 c 3
 521 162 421 -12 219 -12 c 3
 212 -12 204 -12 195 -11 c 1
 158 -208 l 1
 50 -230 l 1
 44 -219 l 1
 97 13 l 1
 197 579 l 9
 197 638 l 1
 140 643 l 1
 138 667 l 1
 323 690 l 1
375 351 m 3
 333 351 267 268 215 94 c 1
 209 59 l 1
 224 48 258 36 290 36 c 3
 371 36 410 163 410 289 c 3
 410 341 398 351 375 351 c 3
EndSplineSet
Validated: 1
Colour: ff8f94
EndChar

StartChar: dotlessi
Encoding: 238 305 189
Width: 304
GlyphClass: 4
Flags: HMW
AnchorPoint: "top" 205 425 basechar 0
LayerCount: 2
Back
Fore
SplineSet
271 437 m 1
 215 102 l 1
 215 43 l 1
 273 38 l 1
 275 14 l 1
 100 -9 l 1
 96 3 l 1
 109 113 l 1
 147 326 l 9
 147 385 l 1
 90 390 l 1
 88 414 l 1
 271 437 l 1
EndSplineSet
Validated: 1048577
Colour: ff8f94
EndChar

StartChar: OE
Encoding: 271 338 190
Width: 857
GlyphClass: 2
Flags: HMW
LayerCount: 2
Back
Fore
SplineSet
441 638 m 2
 863 638 l 1
 846 510 l 1
 801 510 l 1
 801 596 l 1
 613 596 l 1
 525 44 l 1
 745 44 l 1
 785 142 l 1
 831 134 l 1
 795 0 l 1
 367 0 l 2
 177 0 90 55 90 246 c 3
 90 501 258 638 441 638 c 2
573 353 m 1
 713 353 l 1
 731 409 l 1
 776 409 l 1
 752 256 l 1
 707 256 l 1
 706 312 l 1
 567 312 l 1
 573 353 l 1
439 599 m 2
 308 599 212 501 212 252 c 3
 212 77 260 38 391 38 c 2
 410 38 l 1
 499 599 l 1
 439 599 l 2
EndSplineSet
Validated: 5
Colour: ff8f94
EndChar

StartChar: oe
Encoding: 272 339 191
Width: 714
GlyphClass: 2
Flags: HMW
LayerCount: 2
Back
Fore
SplineSet
612 437 m 3
 663 437 698 399 698 352 c 3
 698 273 601 218 467 203 c 1
 467 233 l 1
 587 245 598 298 598 349 c 3
 598 374 583 385 566 385 c 3
 495 385 470 299 470 161 c 3
 470 81 500 55 536 55 c 3
 588 55 642 89 678 123 c 1
 699 101 l 1
 642 41 564 -12 497 -12 c 3
 423 -12 361 20 361 133 c 3
 361 290 495 437 612 437 c 3
338 437 m 3
 407 437 479 405 479 292 c 3
 479 79 311 -12 224 -12 c 3
 154 -12 83 20 83 133 c 3
 83 346 250 437 338 437 c 3
299 389 m 3
 230 389 194 294 194 165 c 3
 194 79 221 37 263 37 c 3
 331 37 368 131 368 260 c 3
 368 346 340 389 299 389 c 3
EndSplineSet
Validated: 5
Colour: ff8f94
EndChar

StartChar: longs
Encoding: 316 383 197
Width: 310
GlyphClass: 2
Flags: HMW
LayerCount: 2
Back
Fore
SplineSet
416 687 m 7
 438 687 464 683 480 678 c 5
 453 595 l 5
 440 590 l 5
 415 601 381 616 354 616 c 7
 324 616 313 597 300 516 c 6
 218 11 l 6
 200 -99 126 -158 81 -190 c 4
 44 -216 19 -230 -16 -230 c 7
 -38 -230 -64 -226 -80 -221 c 5
 -53 -138 l 5
 -40 -133 l 5
 -15 -144 19 -159 46 -159 c 7
 76 -159 87 -140 100 -59 c 6
 182 446 l 6
 200 556 274 615 319 647 c 4
 356 673 381 687 416 687 c 7
EndSplineSet
Validated: 1
Colour: ff8f94
EndChar

StartChar: figuredash
Encoding: 454 8210 204
Width: 463
VWidth: 0
GlyphClass: 2
Flags: HMW
LayerCount: 2
Back
Fore
SplineSet
73 212 m 1
 81 256 l 1
 472 256 l 1
 464 212 l 1
 73 212 l 1
EndSplineSet
Validated: 1
EndChar

StartChar: endash
Encoding: 455 8211 205
Width: 426
VWidth: 0
GlyphClass: 2
Flags: HMW
LayerCount: 2
Back
Fore
SplineSet
55 212 m 1
 63 256 l 1
 454 256 l 1
 446 212 l 1
 55 212 l 1
EndSplineSet
Validated: 1
Ligature2: "SmallCapsClose subtable" endash.smcpflag less slash s c greater
Substitution2: "Single Substitution lookup 14 subtable" endash.smcpflag
EndChar

StartChar: emdash
Encoding: 456 8212 206
Width: 873
VWidth: 0
GlyphClass: 2
Flags: HMW
LayerCount: 2
Back
Fore
SplineSet
55 212 m 1
 63 256 l 1
 900 256 l 1
 892 212 l 1
 55 212 l 1
EndSplineSet
Validated: 1
Ligature2: "SmallCapsClose subtable" emdash.smcpflag less slash s c greater
Substitution2: "Single Substitution lookup 14 subtable" emdash.smcpflag
EndChar

StartChar: quoteright
Encoding: 458 8217 208
Width: 188
VWidth: 0
GlyphClass: 2
Flags: HMW
LayerCount: 2
Back
Fore
SplineSet
198 566 m 5
 160 576 139 597 139 633 c 7
 139 667 164 690 204 690 c 7
 241 690 269 657 269 616 c 7
 269 536 203 485 131 445 c 5
 119 466 l 5
 164 492 198 524 198 566 c 5
EndSplineSet
Validated: 1
Ligature2: "SmallCapsClose subtable" quoteright.smcpflag less slash s c greater
Substitution2: "Single Substitution lookup 14 subtable" quoteright.smcpflag
EndChar

StartChar: Delta
Encoding: 497 8710 212
Width: 660
VWidth: 0
GlyphClass: 2
Flags: HMW
LayerCount: 2
Back
Fore
SplineSet
594 0 m 1
 66 0 l 1
 414 650 l 1
 466 650 l 1
 594 0 l 1
131 38 m 1
 472 38 l 1
 387 518 l 1
 131 38 l 1
EndSplineSet
Validated: 1
EndChar

StartChar: summation
Encoding: 499 8721 213
Width: 750
VWidth: 0
GlyphClass: 2
Flags: HMW
LayerCount: 2
Back
Fore
SplineSet
326 271 m 1
 40 745 l 1
 47 770 l 1
 657 770 l 1
 657 642 l 1
 615 639 l 1
 595 728 l 9
 189 728 l 1
 420 337 l 1
 420 315 l 1
 130 -146 l 1
 626 -146 l 17
 649 -77 l 1
 688 -82 l 1
 675 -230 l 1
 33 -230 l 1
 26 -205 l 1
 326 271 l 1
EndSplineSet
Validated: 1
EndChar

StartChar: minus
Encoding: 500 8722 214
Width: 476
GlyphClass: 2
Flags: HMW
LayerCount: 2
Back
Fore
SplineSet
88 215 m 1
 95 259 l 1
 471 259 l 1
 464 215 l 1
 88 215 l 1
EndSplineSet
Validated: 1
EndChar

StartChar: radical
Encoding: 502 8730 215
Width: 580
GlyphClass: 2
Flags: HMW
LayerCount: 2
Back
Fore
SplineSet
118 345 m 1
 114 362 l 1
 260 429 l 1
 273 422 l 1
 311 128 l 1
 745 938 l 1
 774 928 l 1
 274 -9 l 1
 235 -9 l 1
 179 362 l 1
 118 345 l 1
EndSplineSet
Validated: 1
EndChar

StartChar: dagger
Encoding: 465 8224 216
Width: 460
VWidth: 0
GlyphClass: 2
Flags: HMW
LayerCount: 2
Back
Fore
SplineSet
329 690 m 1
 375 690 l 1
 253 0 l 1
 207 0 l 1
 329 690 l 1
125 470 m 1
 133 514 l 1
 509 514 l 1
 501 470 l 1
 125 470 l 1
EndSplineSet
Validated: 5
EndChar

StartChar: daggerdbl
Encoding: 466 8225 217
Width: 460
VWidth: 0
GlyphClass: 2
Flags: HMW
LayerCount: 2
Back
Fore
SplineSet
73 176 m 1
 81 220 l 1
 457 220 l 1
 449 176 l 1
 73 176 l 1
329 690 m 5
 375 690 l 1
 253 0 l 1
 207 0 l 5
 329 690 l 5
125 470 m 1
 133 514 l 1
 509 514 l 1
 501 470 l 1
 125 470 l 1
EndSplineSet
Validated: 5
EndChar

StartChar: perthousand
Encoding: 469 8240 219
Width: 1252
GlyphClass: 2
Flags: HMW
LayerCount: 2
Back
Fore
SplineSet
1098 347 m 3
 1161 347 1218 321 1218 231 c 3
 1218 61 1075 -12 1005 -12 c 3
 941 -12 884 14 884 104 c 3
 884 274 1027 347 1098 347 c 3
1040 30 m 3
 1100 30 1121 108 1121 206 c 3
 1121 275 1104 306 1063 306 c 3
 1002 306 982 228 982 130 c 3
 982 61 998 30 1040 30 c 3
EndSplineSet
Refer: 5 37 N 1 0 0 1 0 0 2
Validated: 1
EndChar

StartChar: uni2031
Encoding: 470 8241 220
Width: 1638
GlyphClass: 2
Flags: HMW
LayerCount: 2
Back
Fore
SplineSet
1484 347 m 3
 1547 347 1604 321 1604 231 c 3
 1604 61 1461 -12 1391 -12 c 3
 1327 -12 1270 14 1270 104 c 3
 1270 274 1413 347 1484 347 c 3
1426 30 m 3
 1486 30 1507 108 1507 206 c 3
 1507 275 1490 306 1449 306 c 3
 1388 306 1368 228 1368 130 c 3
 1368 61 1384 30 1426 30 c 3
EndSplineSet
Refer: 219 8240 N 1 0 0 1 0 0 2
Validated: 1
EndChar

StartChar: minute
Encoding: 471 8242 221
Width: 205
VWidth: -3
GlyphClass: 2
Flags: HMW
LayerCount: 2
Back
Fore
SplineSet
207 688 m 1
 289 661 l 1
 293 636 l 1
 155 471 l 1
 124 491 l 1
 207 688 l 1
EndSplineSet
Validated: 1
EndChar

StartChar: guilsinglleft
Encoding: 472 8249 222
Width: 292
VWidth: 0
GlyphClass: 2
Flags: HMW
LayerCount: 2
Back
Fore
SplineSet
163 232 m 5
 272 79 l 5
 227 44 l 5
 75 235 l 5
 293 420 l 5
 325 386 l 5
 163 232 l 5
EndSplineSet
Validated: 1
EndChar

StartChar: uni203E
Encoding: 474 8254 224
Width: 500
VWidth: 0
GlyphClass: 2
Flags: HMW
LayerCount: 2
Back
Fore
SplineSet
157 894 m 1
 165 938 l 1
 665 938 l 1
 657 894 l 1
 157 894 l 1
EndSplineSet
Validated: 1
EndChar

StartChar: quotereversed
Encoding: 460 8219 226
Width: 188
VWidth: 0
GlyphClass: 2
Flags: HMW
LayerCount: 2
Back
Fore
SplineSet
273 635 m 3
 273 592 244 566 195 566 c 1
 189 559 187 552 187 542 c 3
 187 513 200 489 220 467 c 1
 203 446 l 1
 158 489 134 535 134 593 c 3
 134 651 170 690 218 690 c 3
 250 690 273 668 273 635 c 3
EndSplineSet
Validated: 1
EndChar

StartChar: uni02BC
Encoding: 415 700 230
Width: 400
VWidth: 0
GlyphClass: 4
Flags: HMW
AnchorPoint: "bottom" 344 690 mark 0
AnchorPoint: "top" 174 600 mark 0
LayerCount: 2
Back
SplineSet
193 650 m 5
 203 648 l 5
 211 636 218 613 213 585 c 4
 203 526 160 482 108 446 c 5
 100 464 l 5
 130 489 148 521 152 545 c 4
 156 567 151 586 141 610 c 5
 193 650 l 5
EndSplineSet
Fore
Refer: 450 789 N 1 0 0 1 300 0 2
Validated: 1
EndChar

StartChar: uni0237
Encoding: 317 567 235
Width: 291
GlyphClass: 4
Flags: HMW
AnchorPoint: "top" 198 425 basechar 0
LayerCount: 2
Back
Fore
SplineSet
278 437 m 1
 219 65 l 2
 203 -38 115 -118 89 -145 c 0
 57 -178 1 -230 -47 -230 c 3
 -67 -230 -81 -225 -92 -212 c 1
 -71 -132 l 1
 -58 -127 l 1
 -33 -143 -14 -144 16 -144 c 3
 60 -144 84 -105 106 32 c 2
 154 326 l 10
 154 385 l 1
 97 390 l 1
 95 414 l 1
 278 437 l 1
EndSplineSet
Validated: 1048577
EndChar

StartChar: Aogonek
Encoding: 193 260 334
Width: 642
VWidth: 0
GlyphClass: 2
Flags: HMW
LayerCount: 2
Back
Fore
SplineSet
214 216 m 1
 220 253 l 1
 536 253 l 1
 530 216 l 1
 214 216 l 1
406 650 m 1
 458 650 l 1
 586 36 l 1
 622 20 l 1
 622 0 l 1
 515 0 l 2
 411 0 394 -75 394 -135 c 3
 394 -173 416 -190 440 -190 c 3
 460 -190 472 -186 491 -177 c 1
 497 -196 l 1
 472 -212 435 -230 392 -230 c 3
 326 -230 296 -204 296 -151 c 3
 296 -97 341 -47 411 1 c 1
 465 44 l 1
 377 505 l 1
 147 38 l 1
 217 20 l 1
 217 0 l 1
 27 0 l 1
 27 20 l 1
 92 37 l 1
 406 650 l 1
EndSplineSet
Validated: 5
Colour: ff8f94
EndChar

StartChar: aogonek
Encoding: 194 261 335
Width: 486
GlyphClass: 2
Flags: HMW
LayerCount: 2
Back
Fore
SplineSet
391 2 m 21
 320 -27 282 -75 282 -135 c 7
 282 -173 304 -190 328 -190 c 7
 348 -190 360 -186 379 -177 c 5
 385 -196 l 5
 360 -212 323 -230 280 -230 c 7
 214 -230 184 -204 184 -151 c 7
 184 -97 245 -45 315 3 c 5
 391 2 l 21
EndSplineSet
Refer: 65 97 N 1 0 0 1 0 0 2
Validated: 5
EndChar

StartChar: dcroat
Encoding: 206 273 337
Width: 495
GlyphClass: 2
Flags: HMW
LayerCount: 2
Back
Fore
SplineSet
588 524 m 1
 299 524 l 1
 299 540 l 1
 373 562 l 1
 595 562 l 1
 588 524 l 1
EndSplineSet
Refer: 68 100 N 1 0 0 1 0 0 2
Validated: 5
EndChar

StartChar: Eogonek
Encoding: 213 280 338
Width: 563
GlyphClass: 2
Flags: HMW
LayerCount: 2
Back
Fore
SplineSet
501 0 m 5
 355 -20 325 -75 325 -135 c 7
 325 -173 347 -190 371 -190 c 7
 391 -190 403 -186 422 -177 c 5
 428 -196 l 5
 403 -212 366 -230 323 -230 c 7
 257 -230 227 -204 227 -151 c 7
 227 -97 283 -42 378 0 c 5
 501 0 l 5
EndSplineSet
Refer: 37 69 N 1 0 0 1 0 0 2
Validated: 5
EndChar

StartChar: eogonek
Encoding: 214 281 339
Width: 418
GlyphClass: 2
Flags: HMW
LayerCount: 2
Back
SplineSet
253 -5 m 5
 238 -10 218 -12 201 -12 c 7
 142 -12 83 20 83 133 c 7
 83 290 209 437 316 437 c 7
 367 437 397 399 397 352 c 7
 397 274 306 219 157 203 c 5
 156 189 156 176 156 161 c 7
 156 71 194 45 240 45 c 7
 282 45 346 84 382 123 c 5
 403 101 l 5
 302 14 219 -76 219 -136 c 7
 219 -174 242 -191 273 -191 c 7
 298 -191 315 -187 334 -178 c 5
 340 -197 l 5
 315 -213 278 -231 240 -231 c 7
 192 -231 158 -207 158 -154 c 7
 158 -110 205 -50 253 -5 c 5
161 234 m 5
 293 247 322 294 322 344 c 7
 322 369 302 391 280 391 c 7
 214 391 174 331 161 234 c 5
EndSplineSet
Fore
SplineSet
334 437 m 3
 385 437 420 399 420 352 c 3
 420 273 323 218 189 203 c 1
 189 233 l 1
 309 245 320 298 320 349 c 3
 320 374 305 385 288 385 c 3
 217 385 192 299 192 161 c 3
 192 81 222 55 258 55 c 3
 310 55 364 89 400 123 c 1
 421 101 l 1
 315 13 254 -76 254 -136 c 3
 254 -174 277 -191 308 -191 c 3
 333 -191 350 -187 369 -178 c 1
 375 -197 l 1
 350 -213 306 -231 255 -231 c 3
 199 -231 157 -207 157 -154 c 3
 157 -110 204 -47 273 -2 c 1
 256 -9 235 -12 219 -12 c 3
 145 -12 83 20 83 133 c 3
 83 290 217 437 334 437 c 3
EndSplineSet
Validated: 5
Colour: ff8f94
EndChar

StartChar: ij
Encoding: 240 307 341
Width: 530
GlyphClass: 2
Flags: HMW
LayerCount: 2
Back
Fore
SplineSet
472 672 m 3
 511 672 542 642 542 603 c 3
 542 564 511 533 472 533 c 3
 433 533 403 564 403 603 c 3
 403 642 433 672 472 672 c 3
219 672 m 3
 258 672 289 642 289 603 c 3
 289 564 258 533 219 533 c 3
 180 533 150 564 150 603 c 3
 150 642 180 672 219 672 c 3
276 437 m 1
 216 122 l 2
 208 82 222 63 250 63 c 3
 286 63 337 156 396 331 c 1
 411 415 l 1
 519 437 l 1
 525 426 l 1
 486 249 l 1
 459 65 l 2
 444 -38 355 -118 329 -145 c 0
 297 -178 241 -230 193 -230 c 3
 173 -230 159 -225 148 -212 c 1
 169 -132 l 1
 182 -127 l 1
 207 -143 226 -144 256 -144 c 3
 300 -144 323 -105 346 32 c 2
 373 195 l 1
 312 48 277 -12 192 -12 c 3
 146 -12 91 18 106 103 c 2
 145 326 l 1
 145 385 l 1
 88 390 l 1
 86 414 l 1
 276 437 l 1
EndSplineSet
Validated: 33
Colour: ff8f94
EndChar

StartChar: Hbar
Encoding: 227 294 342
Width: 680
GlyphClass: 2
Flags: HMW
LayerCount: 2
Back
Fore
SplineSet
740 459 m 1
 121 459 l 1
 121 475 l 1
 195 497 l 1
 747 497 l 1
 740 459 l 1
EndSplineSet
Refer: 40 72 N 1 0 0 1 0 0 2
Validated: 5
EndChar

StartChar: hbar
Encoding: 228 295 343
Width: 513
GlyphClass: 2
Flags: HMW
LayerCount: 2
Back
Fore
SplineSet
390 524 m 5
 112 524 l 1
 112 540 l 1
 186 562 l 1
 397 562 l 5
 390 524 l 5
EndSplineSet
Refer: 72 104 N 1 0 0 1 0 0 2
Validated: 5
EndChar

StartChar: Iogonek
Encoding: 235 302 344
Width: 374
VWidth: 0
GlyphClass: 4
Flags: HMW
AnchorPoint: "top" 176 638 basemark 0
LayerCount: 2
Back
SplineSet
257 0 m 5
 133 0 84 -75.158203125 84 -135 c 7
 84 -172.65625 107 -190 139 -190 c 7
 164 -190 181 -186 200 -177 c 5
 206 -196 l 5
 181 -212 144 -230 106 -230 c 7
 58 -230 25 -203.91796875 25 -151 c 7
 25 -97.12890625 60 -55 112 -13 c 5
 139 45 l 5
 227 596 l 5
 158 618 l 5
 158 618 158 638 158 638 c 5
 158 638 381 638 381 638 c 5
 381 638 381 618 381 618 c 5
 381 618 303 593 303 593 c 5
 303 593 215 39 215 39 c 5
 215 39 257 20 257 20 c 5
 257 20 257 0 257 0 c 5
EndSplineSet
Fore
SplineSet
158 638 m 1
 417 638 l 1
 417 618 l 1
 339 593 l 1
 251 39 l 1
 293 20 l 1
 293 0 l 1
 137 0 123 -70.7030540473 123 -135 c 3
 123 -173 145 -190 169 -190 c 3
 189 -190 201 -186 220 -177 c 1
 226 -196 l 1
 201 -212 164 -230 121 -230 c 3
 55 -230 25 -204 25 -151 c 3
 25 -97 65 -48 112 -13 c 1
 139 45 l 1
 227 599 l 1
 158 618 l 1
 158 638 l 1
EndSplineSet
Validated: 1048577
Colour: ff8f94
EndChar

StartChar: iogonek
Encoding: 236 303 345
Width: 304
GlyphClass: 2
Flags: HMW
LayerCount: 2
Back
Fore
SplineSet
271 437 m 1
 215 102 l 1
 215 43 l 1
 263 38 l 1
 265 14 l 1
 114 -12 89 -74.1817406839 89 -135 c 3
 89 -173 111 -190 135 -190 c 3
 155 -190 167 -186 186 -177 c 1
 192 -196 l 1
 167 -212 130 -230 87 -230 c 3
 21 -230 -9 -204 -9 -151 c 3
 -9 -97 49 -32 96 3 c 1
 109 113 l 1
 147 326 l 9
 147 385 l 1
 90 390 l 1
 88 414 l 1
 271 437 l 1
221 672 m 3
 260 672 291 642 291 603 c 3
 291 564 260 533 221 533 c 3
 182 533 152 564 152 603 c 3
 152 642 182 672 221 672 c 3
EndSplineSet
Validated: 1
Colour: ff8f94
EndChar

StartChar: kgreenlandic
Encoding: 245 312 346
Width: 532
GlyphClass: 2
Flags: HMW
LayerCount: 2
Back
Fore
SplineSet
469 437 m 3
 488 437 509 431 518 423 c 1
 492 338 l 1
 484 334 l 1
 463 340 445 346 423 346 c 3
 396 346 385 336 326 257 c 1
 423 76 l 25
 460 43 l 1
 509 43 l 1
 511 19 l 1
 352 -9 l 1
 246 208 l 1
 276 240 l 1
 356 339 362 354 384 383 c 0
 407 413 434 437 469 437 c 3
276 437 m 1
 216 94 l 1
 204 9 l 1
 96 -12 l 1
 90 -1 l 1
 127 175 l 1
 152 326 l 9
 152 385 l 1
 95 390 l 1
 93 414 l 1
 276 437 l 1
EndSplineSet
Validated: 1
Colour: ff8f94
EndChar

StartChar: Lslash
Encoding: 254 321 347
Width: 545
GlyphClass: 2
Flags: HMW
LayerCount: 2
Back
Fore
SplineSet
374 381 m 5
 238 326 l 1
 99 262 l 1
 91 267 l 1
 97 301 l 1
 234 357 l 1
 371 420 l 5
 380 416 l 5
 374 381 l 5
EndSplineSet
Refer: 44 76 N 1 0 0 1 0 0 2
Validated: 5
EndChar

StartChar: lslash
Encoding: 255 322 348
Width: 259
GlyphClass: 2
Flags: HMW
LayerCount: 2
Back
Fore
SplineSet
330 379 m 1
 199 326 l 1
 65 264 l 1
 57 269 l 1
 63 303 l 1
 195 357 l 1
 327 418 l 1
 336 414 l 1
 330 379 l 1
EndSplineSet
Refer: 76 108 N 1 0 0 1 0 0 2
Validated: 5
EndChar

StartChar: Eng
Encoding: 263 330 349
Width: 656
GlyphClass: 2
Flags: HMW
LayerCount: 2
Back
Fore
SplineSet
140 638 m 1
 330 638 l 1
 531 160 l 1
 601 600 l 1
 525 617 l 1
 525 638 l 1
 715 638 l 1
 715 617 l 1
 650 600 l 1
 566 65 l 2
 550 -38 462 -118 436 -145 c 0
 404 -178 348 -230 300 -230 c 3
 280 -230 266 -225 255 -212 c 1
 276 -132 l 1
 289 -127 l 1
 314 -143 333 -144 363 -144 c 3
 407 -144 433 -101 455 41 c 1
 246 538 l 1
 165 39 l 1
 241 21 l 1
 241 0 l 1
 36 0 l 1
 36 21 l 1
 116 39 l 1
 205 598 l 1
 140 617 l 1
 140 638 l 1
EndSplineSet
Validated: 1
Colour: ff8f94
EndChar

StartChar: eng
Encoding: 264 331 350
Width: 534
GlyphClass: 2
Flags: HMW
LayerCount: 2
Back
Fore
SplineSet
278 437 m 1
 240 230 l 1
 301 377 341 437 426 437 c 3
 472 437 524 407 507 322 c 2
 461 65 l 2
 442 -38 353 -118 327 -145 c 0
 295 -178 239 -230 191 -230 c 3
 171 -230 157 -225 146 -212 c 1
 167 -132 l 1
 180 -127 l 1
 205 -143 224 -144 254 -144 c 3
 298 -144 317 -105 344 32 c 2
 397 303 l 2
 405 343 391 362 363 362 c 3
 327 362 276 269 217 94 c 1
 202 10 l 1
 94 -12 l 1
 88 -1 l 1
 127 175 l 1
 152 326 l 9
 152 385 l 1
 95 390 l 1
 93 414 l 1
 278 437 l 1
EndSplineSet
Validated: 33
Colour: ff8f94
EndChar

StartChar: Tbar
Encoding: 291 358 351
Width: 557
GlyphClass: 2
Flags: HMW
LayerCount: 2
Back
Fore
SplineSet
500 314 m 1
 182 314 l 1
 182 330 l 1
 253 352 l 1
 507 352 l 1
 500 314 l 1
EndSplineSet
Refer: 52 84 N 1 0 0 1 0 0 2
Validated: 5
EndChar

StartChar: tbar
Encoding: 292 359 352
Width: 293
GlyphClass: 2
Flags: HMW
LayerCount: 2
Back
Fore
SplineSet
315 232 m 5
 59 232 l 5
 59 248 l 5
 123 270 l 5
 322 270 l 5
 315 232 l 5
EndSplineSet
Refer: 84 116 N 1 0 0 1 0 0 2
Validated: 5
EndChar

StartChar: Uogonek
Encoding: 303 370 353
Width: 637
GlyphClass: 2
UnlinkRmOvrlpSave: 1
Flags: HMW
LayerCount: 2
Back
Fore
SplineSet
420 2 m 5
 315 -29 279 -81 279 -136 c 7
 279 -174 301 -191 325 -191 c 3
 345 -191 357 -187 376 -178 c 1
 382 -197 l 1
 357 -213 320 -231 277 -231 c 3
 211 -231 181 -205 181 -152 c 3
 181 -98 227 -43 322 -1 c 1
 420 2 l 5
EndSplineSet
Refer: 53 85 N 1 0 0 1 0 0 2
EndChar

StartChar: uogonek
Encoding: 304 371 354
Width: 512
GlyphClass: 2
UnlinkRmOvrlpSave: 1
Flags: HMW
LayerCount: 2
Back
Fore
SplineSet
418 2 m 17
 347 -27 309 -75 309 -135 c 3
 309 -173 331 -190 355 -190 c 3
 375 -190 387 -186 406 -177 c 1
 412 -196 l 1
 387 -212 350 -230 307 -230 c 3
 241 -230 211 -204 211 -151 c 3
 211 -97 272 -45 342 3 c 1
 418 2 l 17
EndSplineSet
Refer: 85 117 N 1 0 0 1 0 0 2
EndChar

StartChar: uni2070
Encoding: 476 8304 357
Width: 428
VWidth: -3
GlyphClass: 3
Flags: HMW
LayerCount: 2
Back
SplineSet
348 735 m 7
 316 735 301 726 277 707 c 5
 251 673 237 643 223 566 c 4
 202 447 217 384 282 384 c 7
 314 384 328 394 352 413 c 5
 378 447 389 476 403 553 c 4
 424 672 413 735 348 735 c 7
259 348 m 7
 187 348 126 405 151 546 c 4
 176 686 250 770 364 770 c 7
 436 770 499 714 474 573 c 4
 449 433 373 348 259 348 c 7
EndSplineSet
Fore
SplineSet
345 734 m 3
 328 734 321 729 300 710 c 1
 274 676 246 581 246 474 c 3
 246 407 257 384 283 384 c 3
 300 384 307 389 328 408 c 1
 354 442 382 537 382 644 c 3
 382 711 371 734 345 734 c 3
364 770 m 3
 451 770 484 715 484 634 c 3
 484 456 388 348 264 348 c 3
 177 348 144 403 144 484 c 3
 144 662 240 770 364 770 c 3
EndSplineSet
Validated: 1
Ligature2: "Opentypeshortcuts subtable" asciicircum zero
LCarets2: 1 0
EndChar

StartChar: uni2074
Encoding: 477 8308 358
Width: 390
VWidth: -3
GlyphClass: 3
Flags: HMW
LayerCount: 2
Back
Fore
SplineSet
354 771 m 1
 434 768 l 1
 364 369 l 1
 288 348 l 1
 267 348 l 1
 329 695 l 1
 171 507 l 1
 459 507 l 25
 450 456 l 25
 108 456 l 25
 104 475 l 1
 354 771 l 1
EndSplineSet
Validated: 5
Ligature2: "Opentypeshortcuts subtable" asciicircum four
LCarets2: 1 0
EndChar

StartChar: uni2075
Encoding: 478 8309 359
Width: 342
VWidth: 0
GlyphClass: 3
Flags: HMW
LayerCount: 2
Back
Fore
SplineSet
109 348 m 1
 114 385 l 1
 229 385 285 416 285 475 c 3
 285 495 279 510 257 522 c 0
 240 531 209 532 162 532 c 1
 152 550 l 1
 221 758 l 1
 391 758 l 1
 398 746 l 1
 375 680 l 1
 228 680 l 1
 199 593 l 1
 254 593 298 590 327 578 c 0
 367 561 383 533 383 498 c 3
 383 392 239 348 109 348 c 1
EndSplineSet
Validated: 1
Ligature2: "Opentypeshortcuts subtable" asciicircum five
LCarets2: 1 0
EndChar

StartChar: uni2076
Encoding: 479 8310 360
Width: 385
VWidth: 0
GlyphClass: 3
Flags: HMW
LayerCount: 2
Back
SplineSet
204 515 m 5
 211 558 l 5
 235 577 276 594 313 594 c 7
 378 594 412 548 400 482 c 4
 386 403 315 348 238 348 c 7
 158 348 121 402 139 504 c 4
 161 631 267 723 389 770 c 13
 397 741 l 21
 299 695 230 662 204 515 c 4
 188 424 214 381 255 381 c 7
 289 381 326 410 334 457 c 4
 346 525 325 556 286 556 c 7
 258 556 230 541 204 515 c 5
EndSplineSet
Fore
SplineSet
196 511 m 5
 203 554 l 5
 227 573 277 594 331 594 c 7
 401 594 433 553 433 507 c 7
 433 413 355 348 253 348 c 7
 170 348 134 397 134 462 c 7
 134 591 235 712 409 770 c 13
 417 741 l 21
 288 690 230 622 230 473 c 7
 230 414 239 381 275 381 c 7
 308 381 337 415 337 482 c 7
 337 524 321 551 286 551 c 7
 258 551 222 537 196 511 c 5
EndSplineSet
Validated: 5
Ligature2: "Opentypeshortcuts subtable" asciicircum six
LCarets2: 1 0
EndChar

StartChar: uni2077
Encoding: 480 8311 361
Width: 305
VWidth: 0
GlyphClass: 3
Flags: HMW
LayerCount: 2
Back
Fore
SplineSet
145 700 m 1
 164 758 l 1
 403 758 l 1
 415 739 l 1
 195 341 l 1
 136 384 l 1
 247 520 281 570 349 683 c 1
 152 683 l 1
 145 700 l 1
EndSplineSet
Validated: 1
Ligature2: "Opentypeshortcuts subtable" asciicircum seven
LCarets2: 1 0
EndChar

StartChar: uni2078
Encoding: 481 8312 362
Width: 399
VWidth: 109
GlyphClass: 3
Flags: HMW
LayerCount: 2
Back
SplineSet
315 570 m 13
 297 587 l 5
 336 607 362 642 368 675 c 4
 375 716 353 738 315 738 c 7
 285 738 254 716 248 684 c 4
 230 582 430 576 410 461 c 4
 399 399 333 348 247 348 c 7
 170 348 117 380 129 447 c 4
 139 505 211 550 259 570 c 13
 272 551 l 21
 223 526 196 498 188 454 c 4
 179 405 215 383 257 383 c 7
 298 383 333 401 341 445 c 4
 356 532 163 551 184 668 c 4
 193 719 250 770 326 770 c 7
 402 770 433 731 424 681 c 4
 414 623 345 584 315 570 c 13
EndSplineSet
Fore
SplineSet
332 574 m 9
 314 591 l 1
 354 611 375 645 375 685 c 3
 375 716 358 738 325 738 c 3
 299 738 277 725 277 680 c 3
 277 618 430 569 430 472 c 3
 430 403 353 348 257 348 c 3
 168 348 128 379 128 433 c 3
 128 502 211 547 259 567 c 9
 272 548 l 17
 223 523 202 488 202 443 c 3
 202 402 233 383 267 383 c 3
 301 383 333 395 333 442 c 3
 333 511 183 562 183 650 c 3
 183 716 250 770 336 770 c 3
 422 770 446 732 446 694 c 3
 446 630 362 588 332 574 c 9
EndSplineSet
Validated: 5
Ligature2: "Opentypeshortcuts subtable" asciicircum eight
LCarets2: 1 0
EndChar

StartChar: uni2079
Encoding: 482 8313 363
Width: 383
VWidth: 0
GlyphClass: 3
Flags: HMW
LayerCount: 2
Back
Fore
SplineSet
379 612 m 1
 372 569 l 1
 348 550 313 529 259 529 c 3
 189 529 152 568 152 616 c 3
 152 710 225 770 327 770 c 3
 410 770 446 721 446 656 c 3
 446 527 345 406 171 348 c 9
 163 377 l 17
 292 428 350 496 350 645 c 3
 350 704 341 737 305 737 c 3
 272 737 247 703 247 636 c 3
 247 594 264 572 299 572 c 3
 327 572 353 586 379 612 c 1
EndSplineSet
Validated: 5
Ligature2: "Opentypeshortcuts subtable" asciicircum nine
LCarets2: 1 0
EndChar

StartChar: arrowright
Encoding: 487 8594 365
Width: 600
VWidth: 0
GlyphClass: 2
Flags: HMW
LayerCount: 2
Back
Fore
SplineSet
83 212 m 1
 83 256 l 1
 531 253 l 1
 386 384 l 1
 418 420 l 1
 603 232 l 1
 418 44 l 1
 388 77 l 1
 532 215 l 1
 83 212 l 1
EndSplineSet
Validated: 1
EndChar

StartChar: arrowboth
Encoding: 488 8596 366
Width: 760
VWidth: 0
GlyphClass: 2
Flags: HMW
LayerCount: 2
Back
Fore
SplineSet
690 211 m 1
 153 211 l 1
 298 82 l 1
 266 46 l 1
 81 234 l 1
 266 422 l 1
 296 389 l 1
 152 253 l 1
 689 253 l 1
 544 382 l 1
 576 418 l 1
 761 230 l 1
 576 42 l 1
 546 75 l 1
 690 211 l 1
EndSplineSet
Validated: 1
EndChar

StartChar: uni21C0
Encoding: 490 8640 368
Width: 600
VWidth: 0
GlyphClass: 2
Flags: HMW
LayerCount: 2
Back
Fore
SplineSet
596 217 m 1
 83 217 l 1
 83 261 l 1
 529 253 l 1
 385 389 l 1
 418 420 l 1
 603 237 l 1
 596 217 l 1
EndSplineSet
Validated: 1
EndChar

StartChar: uni21C4
Encoding: 491 8644 369
Width: 600
VWidth: 0
GlyphClass: 2
Flags: HMW
LayerCount: 2
Back
Fore
SplineSet
253 311 m 1
 283 278 l 1
 144 150 l 1
 598 153 l 1
 598 109 l 1
 145 112 l 1
 285 -9 l 1
 253 -45 l 1
 78 133 l 1
 253 311 l 1
433 530 m 1
 608 352 l 1
 433 174 l 1
 403 207 l 1
 542 335 l 1
 88 332 l 1
 88 376 l 1
 541 373 l 1
 401 494 l 1
 433 530 l 1
EndSplineSet
Validated: 1
EndChar

StartChar: uni21C6
Encoding: 492 8646 370
Width: 600
VWidth: 0
GlyphClass: 2
Flags: HMW
LayerCount: 2
Back
Fore
SplineSet
433 311 m 1
 608 133 l 1
 433 -45 l 1
 401 -9 l 1
 541 112 l 1
 88 109 l 1
 88 153 l 1
 542 150 l 1
 403 278 l 1
 433 311 l 1
253 530 m 1
 285 494 l 1
 145 373 l 1
 598 376 l 1
 598 332 l 1
 144 335 l 1
 283 207 l 1
 253 174 l 1
 78 352 l 1
 253 530 l 1
EndSplineSet
Validated: 1
EndChar

StartChar: uni21CB
Encoding: 493 8651 371
Width: 600
VWidth: 0
GlyphClass: 2
Flags: HMW
LayerCount: 2
Back
Fore
SplineSet
81 196 m 1
 594 196 l 1
 601 176 l 1
 416 -7 l 1
 383 24 l 1
 527 160 l 1
 81 152 l 1
 81 196 l 1
266 470 m 1
 299 439 l 1
 155 303 l 1
 601 311 l 1
 601 267 l 1
 88 267 l 1
 81 287 l 1
 266 470 l 1
EndSplineSet
Validated: 1
EndChar

StartChar: arrowdblright
Encoding: 496 8658 373
Width: 600
VWidth: 0
GlyphClass: 2
Flags: HMW
LayerCount: 2
Back
Fore
SplineSet
87 162 m 1
 87 206 l 1
 539 203 l 1
 519 165 l 1
 87 162 l 1
87 259 m 1
 87 303 l 1
 519 300 l 1
 539 262 l 1
 87 259 l 1
548 232 m 1
 390 384 l 1
 422 420 l 1
 607 232 l 1
 422 44 l 1
 392 77 l 1
 548 232 l 1
EndSplineSet
Validated: 5
EndChar

StartChar: infinity
Encoding: 505 8734 378
Width: 708
VWidth: 0
GlyphClass: 2
Flags: HMW
LayerCount: 2
Back
Fore
SplineSet
536 85 m 3
 354 85 336 337 220 337 c 3
 173 337 157 297 157 250 c 3
 157 190 185 128 261 128 c 3
 311 128 345 177 375 227 c 1
 392 202 l 17
 370 162 308 84 232 84 c 3
 151 84 87 129 87 229 c 3
 87 331 172 388 256 388 c 3
 438 388 456 136 572 136 c 3
 619 136 635 176 635 223 c 3
 635 283 606 345 530 345 c 3
 480 345 447 296 417 246 c 1
 400 271 l 17
 422 311 483 389 559 389 c 3
 640 389 705 344 705 244 c 3
 705 142 620 85 536 85 c 3
EndSplineSet
Validated: 5
EndChar

StartChar: angle
Encoding: 506 8736 379
Width: 480
VWidth: 0
GlyphClass: 2
Flags: HMW
LayerCount: 2
Back
Fore
SplineSet
353 437 m 1
 389 405 l 1
 106 44 l 1
 438 44 l 1
 438 0 l 1
 58 0 l 1
 40 22 l 1
 353 437 l 1
EndSplineSet
Validated: 1
EndChar

StartChar: congruent
Encoding: 513 8773 381
Width: 460
VWidth: 0
GlyphClass: 2
Flags: HMW
LayerCount: 2
Back
Fore
SplineSet
65 142 m 1
 73 186 l 1
 449 186 l 1
 441 142 l 1
 65 142 l 1
88 264 m 1
 96 308 l 1
 472 308 l 1
 464 264 l 1
 88 264 l 1
EndSplineSet
Refer: 384 8764 N 1 0 0 1 31 170 2
Validated: 1
EndChar

StartChar: uni2247
Encoding: 514 8775 382
Width: 460
VWidth: 0
GlyphClass: 2
Flags: HMW
LayerCount: 2
Back
Fore
SplineSet
332 498 m 1
 363 488 l 1
 219 42 l 1
 188 52 l 1
 332 498 l 1
EndSplineSet
Refer: 381 8773 N 1 0 0 1 0 0 2
Validated: 5
EndChar

StartChar: uni2249
Encoding: 516 8777 383
Width: 460
VWidth: 0
GlyphClass: 2
Flags: HMW
LayerCount: 2
Back
Fore
SplineSet
326 437 m 5
 357 427 l 5
 225 42 l 5
 194 52 l 5
 326 437 l 5
EndSplineSet
Refer: 380 8776 N 1 0 0 1 0 0 2
Validated: 5
EndChar

StartChar: similar
Encoding: 512 8764 384
Width: 460
VWidth: 0
GlyphClass: 2
Flags: HMW
LayerCount: 2
Back
Fore
SplineSet
454 268 m 1
 470 242 l 1
 417 199 376 188 337 188 c 3
 280 188 232 228 181 228 c 3
 152 228 123 222 88 196 c 1
 72 222 l 1
 125 265 166 276 205 276 c 3
 262 276 310 236 361 236 c 3
 390 236 419 242 454 268 c 1
EndSplineSet
Validated: 1
EndChar

StartChar: logicalor
Encoding: 508 8744 386
Width: 460
VWidth: -3
GlyphClass: 2
Flags: HMW
LayerCount: 2
Back
Fore
SplineSet
411 413 m 1
 246 -12 l 1
 218 -12 l 1
 50 412 l 1
 59 425 l 1
 114 425 l 1
 246 76 l 1
 374 430 l 1
 405 430 l 1
 411 413 l 1
EndSplineSet
Validated: 1
EndChar

StartChar: union
Encoding: 510 8746 388
Width: 436
VWidth: 0
GlyphClass: 2
Flags: HMW
LayerCount: 2
Back
Fore
SplineSet
376 426 m 1
 376 169 l 2
 376 60 332 -12 217 -12 c 3
 104 -12 60 44 60 166 c 2
 60 417 l 1
 72 427 l 1
 119 424 l 1
 119 166 l 2
 119 66 155 23 224 23 c 3
 294 23 339 54 339 168 c 2
 339 419 l 1
 351 429 l 1
 376 426 l 1
EndSplineSet
Validated: 1
EndChar

StartChar: integral
Encoding: 511 8747 389
Width: 332
GlyphClass: 2
Flags: HMW
LayerCount: 2
Back
Fore
SplineSet
429 770 m 3
 451 770 477 766 493 761 c 1
 466 678 l 1
 453 673 l 1
 428 684 394 699 367 699 c 3
 337 699 326 680 313 599 c 2
 218 11 l 2
 200 -99 126 -158 81 -190 c 0
 44 -216 19 -230 -16 -230 c 3
 -38 -230 -64 -226 -80 -221 c 1
 -53 -138 l 1
 -40 -133 l 1
 -15 -144 19 -159 46 -159 c 3
 76 -159 87 -140 100 -59 c 2
 195 529 l 2
 213 639 287 698 332 730 c 0
 369 756 394 770 429 770 c 3
EndSplineSet
Validated: 1
EndChar

StartChar: notequal
Encoding: 517 8800 390
Width: 460
VWidth: 0
GlyphClass: 2
Flags: HMW
LayerCount: 2
Back
Fore
SplineSet
322 437 m 1
 353 427 l 1
 227 42 l 1
 196 52 l 1
 322 437 l 1
EndSplineSet
Refer: 29 61 N 1 0 0 1 0 0 2
Validated: 5
EndChar

StartChar: lessequal
Encoding: 518 8804 391
Width: 330
VWidth: 0
GlyphClass: 2
Flags: HMW
LayerCount: 2
Back
Fore
SplineSet
321 390 m 1
 343 352 l 1
 146 230 l 1
 296 109 l 1
 265 74 l 1
 81 232 l 1
 321 390 l 1
48 44 m 1
 291 44 l 1
 283 0 l 1
 40 0 l 1
 48 44 l 1
EndSplineSet
Validated: 1
EndChar

StartChar: greaterequal
Encoding: 519 8805 392
Width: 330
VWidth: 0
GlyphClass: 2
Flags: HMW
LayerCount: 2
Back
Fore
SplineSet
140 390 m 1
 324 232 l 1
 84 74 l 1
 62 112 l 1
 259 234 l 1
 109 355 l 1
 140 390 l 1
48 44 m 1
 291 44 l 1
 283 0 l 1
 40 0 l 1
 48 44 l 1
EndSplineSet
Validated: 1
EndChar

StartChar: uni239B
Encoding: 524 9115 393
Width: 390
VWidth: 0
GlyphClass: 2
Flags: HMW
LayerCount: 2
Back
Fore
SplineSet
80 -230 m 1
 80 265 254 649 371 770 c 1
 390 752 l 1
 292 628 145 284 145 -230 c 5
 80 -230 l 1
EndSplineSet
Validated: 1
EndChar

StartChar: uni239D
Encoding: 526 9117 395
Width: 390
VWidth: 0
GlyphClass: 2
Flags: HMW
LayerCount: 2
Back
Fore
SplineSet
80 770 m 1
 145 770 l 5
 145 256 292 -88 390 -212 c 1
 371 -230 l 1
 254 -109 80 275 80 770 c 1
EndSplineSet
Validated: 1
EndChar

StartChar: uni23A1
Encoding: 530 9121 399
Width: 310
VWidth: 0
GlyphClass: 2
Flags: HMW
LayerCount: 2
Back
Fore
SplineSet
100 -230 m 5
 100 770 l 5
 242 770 l 1
 242 747 l 1
 165 734 l 1
 165 -230 l 1
 100 -230 l 5
EndSplineSet
Validated: 1
EndChar

StartChar: uni23A2
Encoding: 531 9122 400
Width: 310
VWidth: 0
GlyphClass: 2
Flags: HMW
LayerCount: 2
Back
Fore
SplineSet
165 770 m 1
 165 -230 l 25
 100 -230 l 5
 100 770 l 5
 165 770 l 1
EndSplineSet
Validated: 1
EndChar

StartChar: uni23A3
Encoding: 532 9123 401
Width: 310
VWidth: 0
GlyphClass: 2
Flags: HMW
LayerCount: 2
Back
Fore
SplineSet
100 770 m 5
 165 770 l 1
 165 -194 l 1
 242 -207 l 1
 242 -230 l 1
 100 -230 l 5
 100 770 l 5
EndSplineSet
Validated: 1
EndChar

StartChar: uni23A7
Encoding: 536 9127 405
Width: 404
VWidth: 0
GlyphClass: 2
Flags: HMW
LayerCount: 2
Back
Fore
SplineSet
169 -230 m 13
 169 479 l 6
 169 674 306 758 394 770 c 5
 399 749 l 5
 340 731 235 690 235 489 c 6
 235 -230 l 21
 169 -230 l 13
EndSplineSet
Validated: 1
EndChar

StartChar: uni23A8
Encoding: 537 9128 406
Width: 404
VWidth: 0
GlyphClass: 2
Flags: HMW
LayerCount: 2
Back
Fore
SplineSet
169 -230 m 13
 169 128 l 6
 169 214 156 250 97 259 c 13
 97 279 l 21
 156 288 169 324 169 410 c 6
 169 770 l 21
 235 770 l 13
 235 434 l 6
 235 320 201 285 159 269 c 5
 201 253 235 218 235 104 c 6
 235 -230 l 21
 169 -230 l 13
EndSplineSet
Validated: 1
EndChar

StartChar: uni23A9
Encoding: 538 9129 407
Width: 404
VWidth: 0
GlyphClass: 2
Flags: HMW
LayerCount: 2
Back
Fore
SplineSet
169 770 m 21
 235 770 l 13
 235 51 l 6
 235 -150 340 -191 399 -209 c 5
 394 -230 l 5
 306 -218 169 -134 169 61 c 6
 169 770 l 21
EndSplineSet
Validated: 1
EndChar

StartChar: uni23AA
Encoding: 539 9130 408
Width: 404
VWidth: 0
GlyphClass: 2
Flags: HMW
LayerCount: 2
Back
Fore
SplineSet
235 770 m 5
 235 -230 l 29
 169 -230 l 5
 169 770 l 5
 235 770 l 5
EndSplineSet
Validated: 1
EndChar

StartChar: uni27E8
Encoding: 546 10216 412
Width: 280
VWidth: 0
GlyphClass: 2
Flags: HMW
LayerCount: 2
Back
Fore
SplineSet
97 272 m 1
 306 686 l 1
 349 671 l 1
 146 271 l 1
 208 -130 l 1
 160 -143 l 1
 97 272 l 1
EndSplineSet
Validated: 1
EndChar

StartChar: fraction
Encoding: 475 8260 418
Width: 0
VWidth: 0
GlyphClass: 2
Flags: HMW
LayerCount: 2
Back
Fore
SplineSet
452 770 m 1
 485 740 l 1
 -237 -126 l 1
 -270 -96 l 1
 452 770 l 1
EndSplineSet
Validated: 1
EndChar

StartChar: theta
Encoding: 447 952 419
Width: 541
VWidth: 0
GlyphClass: 2
Flags: HMW
LayerCount: 2
Back
Fore
SplineSet
239 339 m 1
 448 339 l 1
 441 301 l 1
 175 301 l 1
 175 317 l 1
 239 339 l 1
363 593 m 3
 273 593 220 427 220 227 c 3
 220 101 231 33 289 33 c 3
 379 33 438 200 438 400 c 3
 438 526 421 593 363 593 c 3
386 638 m 3
 517 638 553 560 553 415 c 3
 553 189 430 -12 266 -12 c 3
 135 -12 99 66 99 211 c 3
 99 437 222 638 386 638 c 3
EndSplineSet
Validated: 5
EndChar

StartChar: pi
Encoding: 448 960 420
Width: 566
VWidth: 0
GlyphClass: 2
Flags: HMW
LayerCount: 2
Back
Fore
SplineSet
376 344 m 1
 482 344 l 1
 446 114 l 1
 446 76 l 2
 446 45 466 38 519 38 c 1
 521 14 l 1
 361 -9 l 1
 342 3 l 2
 326 13 325 34 335 94 c 2
 376 344 l 1
207 -5 m 1
 96 7 l 1
 91 27 l 1
 120 62 208 124 221 277 c 2
 227 347 l 1
 273 347 l 1
 253 144 242 70 207 -5 c 1
561 344 m 1
 482 344 l 1
 376 344 l 1
 273 347 l 1
 227 347 l 17
 169 347 148 342 117 325 c 9
 99 350 l 1
 142 401 182 425 248 425 c 2
 527 425 l 1
 562 435 l 1
 578 423 l 1
 561 344 l 1
EndSplineSet
Validated: 37
EndChar

StartChar: sigma
Encoding: 449 963 421
Width: 516
VWidth: -3
GlyphClass: 2
Flags: HMW
LayerCount: 2
Back
SplineSet
320 437 m 3
 379 437 443 405 443 292 c 3
 443 79 273 -12 206 -12 c 3
 146 -12 83 20 83 133 c 3
 83 346 252 437 320 437 c 3
245 37 m 3
 323 37 368 131 368 260 c 3
 368 346 327 389 281 389 c 3
 202 389 158 294 158 165 c 3
 158 79 198 37 245 37 c 3
EndSplineSet
Fore
SplineSet
570 344 m 1
 468 344 l 1
 487 312 492 298 492 262 c 3
 492 129 365 -12 219 -12 c 3
 145 -12 81 25 81 134 c 3
 81 298 213 425 361 425 c 2
 536 425 l 1
 571 435 l 1
 587 423 l 1
 570 344 l 1
384 253 m 3
 384 295 369 323 341 344 c 1
 265 344 l 1
 210 330 192 255 192 177 c 3
 192 70 222 38 266 38 c 3
 340 38 384 132 384 253 c 3
EndSplineSet
Validated: 1
EndChar

StartChar: product
Encoding: 498 8719 422
Width: 800
VWidth: 0
GlyphClass: 2
Flags: HMW
LayerCount: 2
Back
Fore
SplineSet
745 770 m 1
 745 750 l 1
 671 728 l 1
 671 -191 l 1
 745 -210 l 1
 745 -230 l 1
 480 -230 l 1
 480 -210 l 1
 559 -185 l 1
 559 728 l 1
 241 728 l 1
 241 -191 l 1
 320 -210 l 1
 320 -230 l 1
 55 -230 l 1
 55 -210 l 1
 129 -185 l 1
 129 728 l 1
 55 750 l 1
 55 770 l 1
 745 770 l 1
EndSplineSet
Validated: 1
EndChar

StartChar: phi1
Encoding: 450 981 423
Width: 520
VWidth: -3
GlyphClass: 2
Flags: HMW
LayerCount: 2
Back
Fore
SplineSet
328 431 m 1
 427 431 503 385 503 277 c 3
 503 85 347 -12 222 -12 c 3
 119 -12 46 37 46 150 c 3
 46 256 105 361 236 410 c 1
 249 389 l 1
 172 338 157 259 157 162 c 3
 157 76 196 32 263 32 c 3
 341 32 392 122 392 265 c 3
 392 351 363 398 311 402 c 1
 328 431 l 1
343 682 m 1
 381 676 l 1
 221 -230 l 1
 183 -224 l 1
 343 682 l 1
EndSplineSet
Validated: 5
EndChar

StartChar: zero.oldstyleproportional
Encoding: 552 63280 424
Width: 487
GlyphClass: 3
Flags: HMW
LayerCount: 2
Back
Fore
SplineSet
299 389 m 3
 220 389 184 294 184 165 c 3
 184 79 221 37 263 37 c 3
 331 37 378 131 378 260 c 3
 378 346 350 389 299 389 c 3
338 437 m 3
 417 437 489 405 489 292 c 3
 489 79 321 -12 224 -12 c 3
 144 -12 73 20 73 133 c 3
 73 346 240 437 338 437 c 3
EndSplineSet
Validated: 1
Ligature2: "Oldstyleclosingtag subtable" zero.onumflag less slash o n u m greater
EndChar

StartChar: one.oldstyleproportional
Encoding: 553 63281 425
Width: 396
VWidth: -3
GlyphClass: 3
Flags: HMW
LayerCount: 2
Back
Fore
SplineSet
314 382 m 1
 255 35 l 1
 255 34 336 18 336 18 c 1
 336 0 l 1
 60 0 l 1
 60 18 l 1
 60 18 146 42 146 43 c 1
 205 390 l 2
 205 391 129 407 129 407 c 1
 129 425 l 1
 395 425 l 1
 395 407 l 1
 395 407 314 383 314 382 c 1
EndSplineSet
Validated: 5
Ligature2: "Oldstyleclosingtag subtable" one.onumflag less slash o n u m greater
EndChar

StartChar: two.oldstyleproportional
Encoding: 554 63282 426
Width: 445
VWidth: 0
GlyphClass: 3
Flags: HMW
LayerCount: 2
Back
Fore
SplineSet
214 101 m 1
 317 87 l 2
 359 80 377 85 401 125 c 1
 423 121 l 1
 393 -12 l 1
 348 -12 l 1
 164 10 l 2
 132 15 116 18 73 -12 c 1
 52 20 l 1
 226 135 300 230 300 312 c 3
 300 353 274 373 240 373 c 3
 203 373 184 369 147 355 c 1
 136 380 l 1
 195 417 235 437 295 437 c 3
 382 437 418 398 418 331 c 3
 418 230 310 153 214 101 c 1
EndSplineSet
Validated: 33
Ligature2: "Oldstyleclosingtag subtable" two.onumflag less slash o n u m greater
EndChar

StartChar: three.oldstyleproportional
Encoding: 555 63283 427
Width: 445
VWidth: 0
GlyphClass: 3
Flags: HMW
LayerCount: 2
Back
Fore
SplineSet
267 155 m 5
 296 154 320 149 341 140 c 4
 390 119 411 79 411 28 c 7
 411 -82 260 -230 119 -230 c 7
 66 -230 24 -206 8 -193 c 13
 37 -111 l 5
 80 -135 121 -148 173 -148 c 7
 237 -148 313 -137 313 -19 c 7
 313 21 298 57 265 75 c 4
 234 92 212 98 167 99 c 5
 168 133 l 5
 272 175 299 230 299 306 c 3
 299 348 267 373 227 373 c 3
 191 373 168 366 134 355 c 1
 123 380 l 1
 182 417 222 437 283 437 c 3
 379 437 415 394 415 327 c 3
 415 248 347 187 267 155 c 5
EndSplineSet
Validated: 1
Ligature2: "Oldstyleclosingtag subtable" three.onumflag less slash o n u m greater
EndChar

StartChar: four.oldstyleproportional
Encoding: 556 63284 428
Width: 532
VWidth: -3
GlyphClass: 3
Flags: HMW
LayerCount: 2
Back
Fore
SplineSet
333 259 m 1
 429 297 l 1
 451 297 l 1
 374 -140 l 1
 281 -176 l 1
 257 -176 l 1
 333 259 l 1
401 417 m 1
 114 84 l 1
 510 84 l 25
 501 23 l 25
 43 23 l 25
 38 44 l 1
 382 453 l 1
 407 453 l 1
 401 417 l 1
EndSplineSet
Validated: 5
Ligature2: "Oldstyleclosingtag subtable" four.onumflag less slash o n u m greater
EndChar

StartChar: five.oldstyleproportional
Encoding: 557 63285 429
Width: 423
VWidth: 0
GlyphClass: 3
Flags: HMW
LayerCount: 2
Back
Fore
SplineSet
177 425 m 1
 403 425 l 1
 408 412 l 1
 379 331 l 1
 186 331 l 1
 136 167 l 1
 223 166 269 160 304 146 c 0
 357 125 387 87 387 28 c 3
 387 -82 236 -230 95 -230 c 3
 42 -230 0 -206 -16 -193 c 9
 13 -111 l 1
 56 -135 97 -148 149 -148 c 3
 213 -148 289 -137 289 -19 c 3
 289 21 269 57 235 75 c 0
 204 91 144 98 84 99 c 1
 76 108 l 1
 177 425 l 1
EndSplineSet
Validated: 1
Ligature2: "Oldstyleclosingtag subtable" five.onumflag less slash o n u m greater
EndChar

StartChar: six.oldstyleproportional
Encoding: 558 63286 430
Width: 510
VWidth: 0
GlyphClass: 3
Flags: HMW
LayerCount: 2
Back
Fore
SplineSet
214 245 m 1
 214 284 l 1
 256 328 308 367 372 367 c 3
 473 367 499 302 499 247 c 3
 499 90 372 -12 251 -12 c 3
 149 -12 93 52 93 140 c 3
 93 402 316 566 492 638 c 1
 503 610 l 1
 357 539 207 425 207 158 c 3
 207 85 232 36 280 36 c 3
 341 36 389 91 389 207 c 3
 389 268 372 305 321 305 c 3
 280 305 258 287 214 245 c 1
EndSplineSet
Validated: 5
Ligature2: "Oldstyleclosingtag subtable" six.onumflag less slash o n u m greater
EndChar

StartChar: seven.oldstyleproportional
Encoding: 559 63287 431
Width: 390
VWidth: 0
GlyphClass: 3
Flags: HMW
LayerCount: 2
Back
Fore
SplineSet
91 348 m 1
 115 425 l 1
 429 425 l 1
 442 406 l 1
 105 -216 l 9
 37 -184 l 17
 158 -6 256 149 359 331 c 1
 98 331 l 1
 91 348 l 1
EndSplineSet
Validated: 1
Ligature2: "Oldstyleclosingtag subtable" seven.onumflag less slash o n u m greater
EndChar

StartChar: eight.oldstyleproportional
Encoding: 560 63288 432
Width: 508
VWidth: 0
GlyphClass: 3
Flags: HMW
LayerCount: 2
Back
Fore
SplineSet
299 306 m 17
 223 265 171 219 171 122 c 3
 171 61 203 27 260 27 c 3
 324 27 368 63 368 145 c 3
 368 254 166 317 166 459 c 3
 166 556 241 638 366 638 c 3
 464 638 503 592 503 530 c 3
 503 430 406 359 356 334 c 9
 334 351 l 1
 395 386 418 445 418 519 c 3
 418 575 389 603 348 603 c 3
 295 603 267 562 267 492 c 3
 267 367 478 320 478 182 c 3
 478 68 382 -12 246 -12 c 3
 148 -12 82 28 82 109 c 3
 82 216 206 290 282 325 c 9
 299 306 l 17
EndSplineSet
Validated: 5
Ligature2: "Oldstyleclosingtag subtable" eight.onumflag less slash o n u m greater
EndChar

StartChar: nine.oldstyleproportional
Encoding: 561 63289 433
Width: 489
VWidth: 0
GlyphClass: 3
Flags: HMW
LayerCount: 2
Back
Fore
SplineSet
401 180 m 1
 401 141 l 1
 359 97 310 68 236 68 c 3
 135 68 90 136 90 202 c 3
 90 345 207 437 328 437 c 3
 430 437 486 373 486 280 c 3
 486 23 249 -158 70 -230 c 1
 59 -202 l 1
 208 -131 372 5 372 277 c 3
 372 346 349 391 299 391 c 3
 245 391 196 361 196 235 c 3
 196 169 227 120 283 120 c 3
 329 120 357 138 401 180 c 1
EndSplineSet
Validated: 5
Ligature2: "Oldstyleclosingtag subtable" nine.onumflag less slash o n u m greater
EndChar

StartChar: Pi
Encoding: 445 928 434
Width: 676
VWidth: 0
GlyphClass: 2
Flags: HMW
LayerCount: 2
Back
Fore
SplineSet
157 638 m 1
 715 638 l 1
 715 618 l 1
 637 593 l 1
 549 39 l 1
 618 20 l 1
 618 0 l 1
 359 0 l 1
 359 20 l 1
 437 45 l 1
 525 596 l 1
 338 596 l 1
 250 39 l 1
 319 20 l 1
 319 0 l 1
 60 0 l 1
 60 20 l 1
 138 45 l 1
 226 599 l 1
 157 618 l 1
 157 638 l 1
EndSplineSet
Validated: 1
EndChar

StartChar: Sigma
Encoding: 446 931 435
Width: 571
VWidth: 0
GlyphClass: 2
Flags: HMW
LayerCount: 2
Back
Fore
SplineSet
309 300 m 1
 156 616 l 1
 164 638 l 1
 579 638 l 1
 562 510 l 1
 517 510 l 1
 517 596 l 9
 291 596 l 1
 403 355 l 1
 400 335 l 1
 163 84 l 9
 474 84 l 1
 501 142 l 1
 547 134 l 1
 511 0 l 1
 61 0 l 1
 54 25 l 1
 309 300 l 1
EndSplineSet
Validated: 1
EndChar

StartChar: uni23B7
Encoding: 543 9143 436
Width: 1000
GlyphClass: 2
Flags: HMW
LayerCount: 2
Back
Fore
SplineSet
-102 -375 m 1
 -109 -358 l 1
 25 -291 l 1
 40 -298 l 1
 288 -1046 l 1
 1000 938 l 1
 1030 928 l 1
 276 -1183 l 1
 237 -1183 l 1
 -44 -358 l 1
 -102 -375 l 1
EndSplineSet
Validated: 1
EndChar

StartChar: uni20D1
Encoding: 484 8401 437
Width: 0
GlyphClass: 4
Flags: HMW
AnchorPoint: "top" -231 425 mark 0
LayerCount: 2
Back
Fore
SplineSet
-55 538 m 1
 -372 538 l 1
 -372 582 l 1
 -117 574 l 1
 -207 654 l 1
 -174 690 l 1
 -48 563 l 1
 -55 538 l 1
EndSplineSet
Validated: 1
EndChar

StartChar: gravecomb
Encoding: 430 768 439
Width: 0
VWidth: -3
GlyphClass: 4
Flags: HMW
AnchorPoint: "top" -90 425 mark 0
LayerCount: 2
Back
Fore
SplineSet
-130 673 m 1
 -56 505 l 1
 -89 487 l 1
 -207 628 l 1
 -203 648 l 1
 -130 673 l 1
EndSplineSet
Validated: 1
EndChar

StartChar: acutecomb
Encoding: 431 769 440
Width: 0
VWidth: -3
GlyphClass: 4
Flags: HMW
AnchorPoint: "top" -90 425 mark 0
LayerCount: 2
Back
Fore
SplineSet
-14 666 m 1
 47 617 l 1
 43 597 l 1
 -116 505 l 1
 -141 533 l 1
 -14 666 l 1
EndSplineSet
Validated: 1
EndChar

StartChar: uni0302
Encoding: 432 770 441
Width: 0
VWidth: -3
GlyphClass: 4
Flags: HMW
AnchorPoint: "top" -83 425 mark 0
LayerCount: 2
Back
Fore
SplineSet
-52 572 m 5
 -181 507 l 5
 -198 532 l 5
 -35 657 l 5
 66 531 l 5
 40 509 l 5
 -52 572 l 5
EndSplineSet
Validated: 1
EndChar

StartChar: tildecomb
Encoding: 433 771 442
Width: 0
VWidth: -3
GlyphClass: 4
Flags: HMW
AnchorPoint: "top" -112 425 mark 0
LayerCount: 2
Back
Fore
SplineSet
39 623 m 1
 58 601 l 1
 7 550 -32 538 -60 538 c 3
 -103 538 -134 569 -173 569 c 3
 -192 569 -204 563 -233 542 c 1
 -252 564 l 1
 -201 615 -162 627 -134 627 c 3
 -91 627 -60 596 -21 596 c 3
 -2 596 10 602 39 623 c 1
EndSplineSet
Validated: 1
EndChar

StartChar: uni0304
Encoding: 434 772 443
Width: 0
VWidth: -3
GlyphClass: 4
Flags: HMW
AnchorPoint: "top" -143 425 mark 0
LayerCount: 2
Back
Fore
SplineSet
-230 564 m 1
 -224 602 l 1
 -22 602 l 1
 -14 595 l 1
 -20 557 l 1
 -221 557 l 1
 -230 564 l 1
EndSplineSet
Validated: 1
EndChar

StartChar: uni0306
Encoding: 435 774 444
Width: 0
VWidth: -3
GlyphClass: 4
Flags: HMW
AnchorPoint: "top" -120 425 mark 0
LayerCount: 2
Back
Fore
SplineSet
-98 593 m 3
 -45 593 -10 609 20 645 c 1
 44 634 l 1
 13 574 -40 529 -107 529 c 3
 -174 529 -210 574 -220 634 c 1
 -192 645 l 1
 -177 609 -151 593 -98 593 c 3
EndSplineSet
Validated: 1
EndChar

StartChar: uni0307
Encoding: 436 775 445
Width: 0
VWidth: -3
GlyphClass: 4
Flags: HMW
AnchorPoint: "top" -118 425 mark 0
LayerCount: 2
Back
Fore
SplineSet
-153 582 m 3
 -153 612 -128 637 -98 637 c 3
 -68 637 -43 612 -43 582 c 3
 -43 552 -68 527 -98 527 c 3
 -128 527 -153 552 -153 582 c 3
EndSplineSet
Validated: 1
EndChar

StartChar: uni030A
Encoding: 438 778 447
Width: 0
VWidth: -3
GlyphClass: 4
Flags: HMW
AnchorPoint: "top" -123 425 mark 0
LayerCount: 2
Back
Fore
SplineSet
-96 644 m 3
 -124 644 -139 624 -139 589 c 3
 -139 553 -127 526 -102 526 c 3
 -76 526 -58 543 -58 581 c 3
 -58 618 -68 644 -96 644 c 3
0 589 m 3
 0 537 -44 495 -103 495 c 3
 -162 495 -196 527 -196 581 c 3
 -196 631 -153 675 -94 675 c 3
 -35 675 0 643 0 589 c 3
EndSplineSet
Validated: 1
EndChar

StartChar: uni030B
Encoding: 439 779 448
Width: 0
VWidth: -3
GlyphClass: 4
Flags: HMW
AnchorPoint: "top" -150 425 mark 0
LayerCount: 2
Back
Fore
SplineSet
-2 668 m 1
 66 631 l 1
 66 610 l 1
 -75 492 l 1
 -104 515 l 1
 -2 668 l 1
-156 668 m 1
 -88 631 l 1
 -88 610 l 1
 -229 492 l 1
 -258 515 l 1
 -156 668 l 1
EndSplineSet
Validated: 1
EndChar

StartChar: uni0315
Encoding: 443 789 450
Width: 0
VWidth: 0
GlyphClass: 4
Flags: HMW
AnchorPoint: "bottom" 44 690 mark 0
AnchorPoint: "top" -126 600 mark 0
LayerCount: 2
Back
Fore
SplineSet
62 650 m 1
 72 648 l 1
 80 636 84 626 84 598 c 3
 84 539 33 482 -35 446 c 1
 -46 464 l 1
 -16 489 -9 527 -9 555 c 3
 -9 577 -12 588 -20 610 c 1
 62 650 l 1
EndSplineSet
Validated: 1
EndChar

StartChar: uni0327
Encoding: 444 807 453
Width: 0
VWidth: 0
GlyphClass: 4
Flags: HMW
AnchorPoint: "bottom" -198 0 mark 0
LayerCount: 2
Back
Fore
SplineSet
-278 -204 m 1
 -240 -194 -213 -172 -213 -150 c 3
 -213 -126 -233 -107 -263 -97 c 1
 -273 -79 l 1
 -212 0 l 1
 -179 0 l 1
 -216 -49 l 1
 -139 -71 -125 -96 -125 -137 c 3
 -125 -188 -198 -223 -272 -230 c 1
 -278 -204 l 1
EndSplineSet
Validated: 1
EndChar

StartChar: circle
Encoding: 544 9675 555
Width: 500
VWidth: 0
GlyphClass: 2
Flags: HMW
LayerCount: 2
Back
Fore
SplineSet
112 212 m 3
 112 112 187 32 287 32 c 3
 387 32 462 112 462 212 c 3
 462 312 386 393 286 393 c 3
 186 393 112 312 112 212 c 3
62 212 m 3
 62 337 163 437 288 437 c 3
 420 437 512 345 512 212 c 3
 512 87 410 -12 285 -12 c 3
 153 -12 62 80 62 212 c 3
EndSplineSet
Validated: 1
EndChar

StartChar: uni25CC
Encoding: 545 9676 556
Width: 500
VWidth: 0
GlyphClass: 2
Flags: HMW
LayerCount: 2
Back
Fore
SplineSet
90 321 m 1
 111 358 141 389 178 409 c 1
 195 368 l 1
 169 352 146 331 131 304 c 1
 90 321 l 1
62 212 m 3
 62 234 65 255 71 275 c 1
 113 257 l 1
 109 243 107 228 107 212 c 3
 107 196 109 181 113 167 c 1
 70 149 l 1
 65 169 62 190 62 212 c 3
89 103 m 1
 132 121 l 1
 147 95 170 72 196 57 c 1
 178 14 l 1
 140 34 109 65 89 103 c 1
225 -4 m 1
 242 38 l 1
 256 34 271 32 287 32 c 3
 303 32 318 34 332 38 c 1
 349 -3 l 1
 329 -9 307 -12 285 -12 c 3
 264 -12 244 -9 225 -4 c 1
378 57 m 1
 404 72 427 95 442 121 c 1
 484 103 l 1
 463 66 432 36 395 16 c 1
 378 57 l 1
461 167 m 1
 465 181 467 196 467 212 c 3
 467 228 465 243 461 257 c 1
 504 275 l 1
 510 255 512 234 512 212 c 3
 512 190 509 170 503 150 c 1
 461 167 l 1
379 368 m 1
 396 410 l 1
 434 390 465 359 485 321 c 1
 442 303 l 1
 427 329 405 352 379 368 c 1
225 428 m 1
 245 434 266 437 288 437 c 3
 309 437 330 434 350 429 c 1
 332 387 l 1
 317 391 302 393 286 393 c 3
 271 393 255 391 241 387 c 1
 225 428 l 1
EndSplineSet
Validated: 1
EndChar

StartChar: Euro
Encoding: 483 8364 557
Width: 561
VWidth: 0
GlyphClass: 4
Flags: MW
AnchorPoint: "bottom" 365 0 basemark 0
LayerCount: 2
Back
Fore
SplineSet
394 220 m 1
 39 220 l 1
 42 236 l 1
 103 258 l 1
 401 258 l 1
 394 220 l 1
415 338 m 1
 60 338 l 1
 63 354 l 1
 124 376 l 1
 422 376 l 1
 415 338 l 1
442 566 m 3
 289 566 231 402 231 220 c 3
 231 120 288 33 391 33 c 3
 435 33 453 38 480 46 c 1
 505 139 l 1
 560 133 l 1
 534 23 l 1
 500 8 435 -12 341 -12 c 3
 178 -12 113 104 113 220 c 3
 113 421 248 606 456 606 c 3
 528 606 586 592 615 580 c 1
 589 457 l 1
 541 462 l 1
 547 545 l 1
 525 556 488 566 442 566 c 3
EndSplineSet
Validated: 1048581
EndChar

StartChar: percent.oldstyleproportional
Encoding: 550 63042 558
Width: 586
GlyphClass: 3
Flags: HMW
LayerCount: 2
Back
Fore
SplineSet
234 437 m 3
 274 437 314 421 314 364 c 3
 314 257 218 212 176 212 c 3
 136 212 96 227 96 284 c 3
 96 391 192 437 234 437 c 3
199 242 m 3
 236 242 248 286 248 348 c 3
 248 383 234 407 211 407 c 3
 174 407 162 362 162 300 c 3
 162 265 175 242 199 242 c 3
460 437 m 1
 497 412 l 1
 201 -12 l 1
 164 13 l 1
 460 437 l 1
485 213 m 3
 525 213 565 197 565 140 c 3
 565 33 469 -12 427 -12 c 3
 387 -12 347 3 347 60 c 3
 347 167 443 213 485 213 c 3
450 18 m 3
 487 18 499 62 499 124 c 3
 499 159 485 183 462 183 c 3
 425 183 413 138 413 76 c 3
 413 41 426 18 450 18 c 3
EndSplineSet
Validated: 1
Ligature2: "Oldstyleclosingtag subtable" percent.onumflag less slash o n u m greater
LCarets2: 7 0 0 0 0 0 0 0
EndChar

StartChar: dollar.oldstyleproportional
Encoding: 551 63268 559
Width: 362
GlyphClass: 3
Flags: HMW
LayerCount: 2
Back
Fore
SplineSet
257 506 m 1
 284 503 l 1
 177 -98 l 1
 150 -95 l 1
 257 506 l 1
EndSplineSet
Refer: 83 115 N 1 0 0 1 0 0 2
Validated: 5
Ligature2: "Oldstyleclosingtag subtable" dollar.onumflag less slash o n u m greater
LCarets2: 7 0 0 0 0 0 0 0
EndChar

StartChar: startonum
Encoding: 548 57381 560
Width: 500
VWidth: 0
GlyphClass: 3
Flags: HMW
LayerCount: 2
Back
Fore
SplineSet
60 -130 m 2
 360 -130 l 2
 415.400390625 -130 460 -174.599609375 460 -230 c 3
 460 -285.400390625 415.400390625 -330 360 -330 c 2
 60 -330 l 2
 4.599609375 -330 -40 -285.400390625 -40 -230 c 3
 -40 -174.599609375 4.599609375 -130 60 -130 c 2
83.00390625 -187.642578125 m 3
 60.8046875 -187.642578125 46.64453125 -203.72265625 46.64453125 -230.961914062 c 3
 46.64453125 -258.682617188 60.8046875 -274.162109375 83.00390625 -274.162109375 c 3
 105.204101562 -274.162109375 119.244140625 -258.202148438 119.244140625 -230.841796875 c 3
 119.244140625 -203.122070312 105.204101562 -187.642578125 83.00390625 -187.642578125 c 3
83.00390625 -199.762695312 m 3
 95.484375 -199.762695312 102.564453125 -208.642578125 102.564453125 -230.841796875 c 3
 102.564453125 -253.282226562 95.3642578125 -262.041992188 83.00390625 -262.041992188 c 3
 70.884765625 -262.041992188 63.32421875 -253.282226562 63.32421875 -230.961914062 c 3
 63.32421875 -208.642578125 70.64453125 -199.762695312 83.00390625 -199.762695312 c 3
195.373046875 -189.442382812 m 1
 180.97265625 -189.442382812 l 1
 180.97265625 -228.322265625 l 2
 180.97265625 -240.08203125 182.413085938 -252.08203125 183.1328125 -256.642578125 c 2
 154.212890625 -189.442382812 l 1
 134.172851562 -189.442382812 l 1
 134.172851562 -272.362304688 l 1
 148.573242188 -272.362304688 l 1
 148.573242188 -238.522460938 l 2
 148.573242188 -223.162109375 147.252929688 -212.602539062 146.413085938 -205.282226562 c 2
 174.853515625 -272.362304688 l 1
 195.373046875 -272.362304688 l 1
 195.373046875 -189.442382812 l 1
275.278320312 -189.442382812 m 1
 259.318359375 -189.442382812 l 1
 259.318359375 -244.40234375 l 2
 259.318359375 -256.041992188 254.637695312 -261.801757812 244.318359375 -261.801757812 c 0
 234.118164062 -261.801757812 229.438476562 -256.041992188 229.438476562 -244.40234375 c 2
 229.438476562 -189.442382812 l 1
 213.59765625 -189.442382812 l 1
 213.59765625 -245.2421875 l 2
 213.59765625 -262.282226562 223.91796875 -274.162109375 244.318359375 -274.162109375 c 0
 264.59765625 -274.162109375 275.278320312 -261.921875 275.278320312 -245.2421875 c 2
 275.278320312 -189.442382812 l 1
364.96484375 -189.442382812 m 1
 344.325195312 -189.442382812 l 1
 330.405273438 -247.522460938 l 1
 315.64453125 -189.442382812 l 1
 295.245117188 -189.442382812 l 1
 288.64453125 -272.362304688 l 1
 304.004882812 -272.362304688 l 1
 306.044921875 -238.162109375 l 2
 306.764648438 -226.282226562 307.004882812 -214.881835938 306.525390625 -203.72265625 c 2
 322.60546875 -263.362304688 l 1
 337.60546875 -263.362304688 l 1
 352.724609375 -203.841796875 l 2
 352.485351562 -212.602539062 353.084960938 -225.442382812 353.8046875 -237.682617188 c 2
 355.96484375 -272.362304688 l 1
 371.4453125 -272.362304688 l 1
 364.96484375 -189.442382812 l 1
0 0 m 1
 500 0 l 1
 500 -44 l 1
 0 -44 l 1
 0 0 l 1
EndSplineSet
Validated: 33
Ligature2: "Opentypeshortcuts subtable" less o n u m greater
LCarets2: 5 0 0 0 0 0
EndChar

StartChar: tagwarning
Encoding: 549 57382 578
Width: 500
VWidth: 0
GlyphClass: 2
Flags: HMW
LayerCount: 2
Back
Fore
SplineSet
60 -130 m 2
 360 -130 l 2
 415.400390625 -130 460 -174.599609375 460 -230 c 3
 460 -285.400390625 415.400390625 -330 360 -330 c 2
 60 -330 l 2
 4.599609375 -330 -40 -285.400390625 -40 -230 c 3
 -40 -174.599609375 4.599609375 -130 60 -130 c 2
99.169921875 -204.5625 m 1
 52.9697265625 -225.322265625 l 1
 52.9697265625 -239.602539062 l 1
 99.169921875 -260.2421875 l 1
 104.209960938 -248.602539062 l 1
 65.689453125 -232.40234375 l 1
 104.209960938 -215.961914062 l 1
 99.169921875 -204.5625 l 1
147.741210938 -174.921875 m 1
 119.661132812 -282.202148438 l 1
 132.981445312 -285.322265625 l 1
 160.94140625 -177.921875 l 1
 147.741210938 -174.921875 l 1
178.459960938 -254.72265625 m 3
 173.059570312 -254.72265625 168.859375 -259.041992188 168.859375 -264.442382812 c 3
 168.859375 -269.72265625 173.059570312 -274.162109375 178.459960938 -274.162109375 c 3
 183.979492188 -274.162109375 188.299804688 -269.72265625 188.299804688 -264.442382812 c 3
 188.299804688 -259.041992188 183.979492188 -254.72265625 178.459960938 -254.72265625 c 3
207.979492188 -254.72265625 m 3
 202.580078125 -254.72265625 198.379882812 -259.041992188 198.379882812 -264.442382812 c 3
 198.379882812 -269.72265625 202.580078125 -274.162109375 207.979492188 -274.162109375 c 3
 213.5 -274.162109375 217.69921875 -269.72265625 217.69921875 -264.442382812 c 3
 217.69921875 -259.041992188 213.5 -254.72265625 207.979492188 -254.72265625 c 3
237.5 -254.72265625 m 3
 232.099609375 -254.72265625 227.899414062 -259.041992188 227.899414062 -264.442382812 c 3
 227.899414062 -269.72265625 232.099609375 -274.162109375 237.5 -274.162109375 c 3
 243.01953125 -274.162109375 247.219726562 -269.72265625 247.219726562 -264.442382812 c 3
 247.219726562 -259.041992188 243.01953125 -254.72265625 237.5 -254.72265625 c 3
262.150390625 -204.5625 m 1
 257.110351562 -215.961914062 l 1
 295.510742188 -232.40234375 l 1
 257.110351562 -248.602539062 l 1
 262.150390625 -260.2421875 l 1
 308.350585938 -239.602539062 l 1
 308.350585938 -225.322265625 l 1
 262.150390625 -204.5625 l 1
365.801757812 -189.442382812 m 1
 349.2421875 -189.442382812 l 1
 351.162109375 -243.08203125 l 1
 364.001953125 -243.08203125 l 1
 365.801757812 -189.442382812 l 1
357.642578125 -254.72265625 m 3
 352.2421875 -254.72265625 347.921875 -259.041992188 347.921875 -264.442382812 c 3
 347.921875 -269.72265625 352.2421875 -274.162109375 357.642578125 -274.162109375 c 3
 363.162109375 -274.162109375 367.362304688 -269.72265625 367.362304688 -264.442382812 c 3
 367.362304688 -259.041992188 363.162109375 -254.72265625 357.642578125 -254.72265625 c 3
EndSplineSet
Refer: 556 9676 S 1 0 0 1 0 0 2
Validated: 524289
EndChar

StartChar: a.smcp
Encoding: 579 -1 591
Width: 492
VWidth: -3
Flags: HMW
LayerCount: 2
Back
SplineSet
182 184 m 1
 323 184 l 1
 331 146 l 1
 163 146 l 1
 182 184 l 1
296 456 m 1
 360 456 l 1
 453 32 l 1
 503 18 l 1
 503 0 l 1
 287 0 l 1
 287 18 l 1
 334 34 l 1
 274 343 l 1
 107 33 l 1
 159 18 l 1
 159 0 l 1
 -7 0 l 1
 -7 18 l 1
 59 36 l 1
 296 456 l 1
EndSplineSet
Fore
SplineSet
296 456 m 1
 360 456 l 1
 453 32 l 1
 503 18 l 1
 503 0 l 1
 287 0 l 1
 287 18 l 1
 334 34 l 1
 312 146 l 1
 168 146 l 1
 107 33 l 1
 159 18 l 1
 159 0 l 1
 -7 0 l 1
 -7 18 l 1
 59 36 l 1
 296 456 l 1
274 343 m 1
 188 184 l 1
 305 184 l 1
 274 343 l 1
EndSplineSet
Validated: 1
LCarets2: 5 0 0 0 0 0
Ligature2: "SmallCapsClose subtable" a.smcpflag less slash s c greater
EndChar

StartChar: b.smcp
Encoding: 580 -1 592
Width: 532
VWidth: 0
Flags: MW
LayerCount: 2
Back
Fore
SplineSet
237 244 m 1
 306 244 l 2
 371 244 405 283.032226562 405 346 c 3
 405 404.961605705 388 413 345 413 c 2
 303 413 l 1
 236 36 l 1
 283 36 l 2
 356 36 391 57.978515625 391 139 c 3
 391 193.85546875 370 213 302 213 c 2
 232 213 l 1
 237 244 l 1
410 238 m 1
 465 229 508 205.1328125 508 142 c 3
 508 40.5732421875 458 -1.91044900667e-14 302 0 c 2
 53 0 l 1
 53 18 l 1
 128 43 l 1
 193 413 l 1
 130 431 l 1
 130 449 l 1
 369 449 l 2
 486 449 522 435.297851562 522 353 c 3
 522 292 470 250 410 238 c 1
EndSplineSet
Validated: 5
Ligature2: "SmallCapsClose subtable" b.smcpflag less slash s c greater
EndChar

StartChar: c.smcp
Encoding: 581 -1 593
Width: 507
VWidth: -3
Flags: MW
AnchorPoint: "top" 251 449 basemark 0
AnchorPoint: "bottom" 279 0 basemark 0
LayerCount: 2
Back
Fore
SplineSet
288 -12 m 3
 191 -12 82 18.5537109375 82 173 c 3
 82 339.626953125 202 461 383 461 c 3
 440 461 491 451 508 444 c 1
 497 335 l 1
 448 333 l 1
 441 407 l 1
 426 415 400 421 371 421 c 3
 257 421 196 329.989257812 196 196 c 3
 196 64.0263671875 269 31 342 31 c 3
 360 31 373 33 394 40 c 1
 414 120 l 1
 468 117 l 1
 451 21 l 1
 414 4 353 -12 288 -12 c 3
EndSplineSet
Validated: 1
Ligature2: "SmallCapsClose subtable" c.smcpflag less slash s c greater
EndChar

StartChar: d.smcp
Encoding: 582 -1 594
Width: 556
VWidth: 0
Flags: MW
LayerCount: 2
Back
Fore
SplineSet
303 413 m 1
 236 36 l 1
 310 36 l 2
 402 36 454 141 454 286 c 3
 454 383.005859375 439 413 357 413 c 6
 303 413 l 1
130 449 m 1
 364 449 l 6
 522 449 570 410 570 303 c 3
 570 87.82421875 460 0 295 0 c 2
 53 0 l 1
 53 18 l 1
 128 43 l 1
 193 413 l 1
 130 431 l 1
 130 449 l 1
EndSplineSet
Validated: 1
Ligature2: "SmallCapsClose subtable" d.smcpflag less slash s c greater
EndChar

StartChar: e.smcp
Encoding: 583 -1 595
Width: 510
VWidth: -3
Flags: MW
LayerCount: 2
Back
Fore
SplineSet
130 449 m 1
 422 449 l 1
 478 454 l 1
 507 454 l 5
 493 346 l 5
 448 344 l 1
 448 413 l 1
 303 413 l 1
 275 253 l 1
 367 253 l 1
 390 302 l 1
 428 302 l 5
 405 172 l 5
 367 172 l 1
 361 221 l 1
 269 221 l 1
 236 36 l 1
 394 36 l 1
 426 116 l 1
 470 111 l 5
 442 0 l 5
 53 0 l 1
 53 18 l 1
 128 43 l 1
 193 413 l 1
 130 431 l 1
 130 449 l 1
EndSplineSet
Validated: 1
Ligature2: "SmallCapsClose subtable" e.smcpflag less slash s c greater
EndChar

StartChar: f.smcp
Encoding: 584 -1 596
Width: 455
VWidth: -3
Flags: MW
LayerCount: 2
Back
Fore
SplineSet
130 449 m 1
 412 449 l 1
 468 454 l 1
 497 454 l 1
 483 346 l 1
 438 344 l 1
 438 413 l 1
 303 413 l 1
 273 244 l 1
 355 244 l 1
 379 293 l 1
 417 293 l 1
 394 163 l 1
 356 163 l 1
 349 212 l 1
 267 212 l 1
 236 34 l 1
 307 18 l 1
 307 0 l 1
 53 0 l 1
 53 18 l 1
 128 43 l 1
 193 413 l 1
 130 431 l 1
 130 449 l 1
EndSplineSet
Validated: 1
Ligature2: "SmallCapsClose subtable" f.smcpflag less slash s c greater
EndChar

StartChar: g.smcp
Encoding: 585 -1 597
Width: 526
VWidth: -3
Flags: MW
AnchorPoint: "top" 251 449 basemark 0
LayerCount: 2
Back
Fore
SplineSet
298 -12 m 3
 191 -12 82 18.5537109375 82 173 c 3
 82 339.626953125 202 461 383 461 c 3
 450 461 501 447 518 440 c 1
 507 331 l 1
 458 329 l 1
 451 403 l 1
 436 411 410 421 371 421 c 3
 257 421 196 329.989257812 196 196 c 3
 196 64.0263671875 269 31 322 31 c 3
 343 31 359 32 371 36 c 1
 395 176 l 1
 339 190 l 1
 339 208 l 1
 511 216 l 1
 478 30 l 1
 424 -1 362 -12 298 -12 c 3
EndSplineSet
Validated: 1048577
Ligature2: "SmallCapsClose subtable" g.smcpflag less slash s c greater
EndChar

StartChar: h.smcp
Encoding: 586 -1 598
Width: 616
VWidth: -3
Flags: MW
LayerCount: 2
Back
Fore
SplineSet
132 449 m 1
 350 449 l 1
 350 431 l 1
 302 410 l 1
 275 254 l 1
 437 254 l 1
 464 410 l 1
 424 431 l 5
 424 449 l 5
 642 449 l 1
 642 431 l 1
 574 410 l 1
 508 34 l 1
 569 18 l 1
 569 0 l 1
 345 0 l 5
 345 18 l 5
 400 43 l 1
 430 216 l 1
 268 216 l 1
 236 34 l 1
 277 18 l 1
 277 0 l 1
 53 0 l 1
 53 18 l 1
 128 43 l 1
 192 410 l 1
 132 431 l 1
 132 449 l 1
EndSplineSet
Validated: 1
Ligature2: "SmallCapsClose subtable" h.smcpflag less slash s c greater
EndChar

StartChar: i.smcp
Encoding: 587 -1 599
Width: 344
VWidth: -3
Flags: MW
LayerCount: 2
Back
Fore
SplineSet
132 449 m 1
 370 449 l 1
 370 431 l 1
 302 410 l 1
 236 34 l 1
 297 18 l 1
 297 0 l 1
 53 0 l 1
 53 18 l 1
 128 43 l 1
 192 410 l 1
 132 431 l 1
 132 449 l 1
EndSplineSet
Validated: 1
Ligature2: "SmallCapsClose subtable" i.smcpflag less slash s c greater
EndChar

StartChar: j.smcp
Encoding: 588 -1 600
Width: 335
VWidth: -3
Flags: MW
LayerCount: 2
Back
Fore
SplineSet
123 449 m 1
 361 449 l 5
 361 431 l 5
 293 410 l 5
 232 61 l 6
 208.828354347 -71.572202179 116 -166 -9 -232 c 1
 -18 -215 l 1
 66 -151 104 -41 115 22 c 2
 183 410 l 1
 123 431 l 1
 123 449 l 1
EndSplineSet
Validated: 1
Ligature2: "SmallCapsClose subtable" j.smcpflag less slash s c greater
EndChar

StartChar: k.smcp
Encoding: 589 -1 601
Width: 546
VWidth: 0
Flags: MW
LayerCount: 2
Back
Fore
SplineSet
309 449 m 1
 236 34 l 1
 287 18 l 1
 287 0 l 1
 53 0 l 1
 53 18 l 1
 128 43 l 1
 192 410 l 1
 132 431 l 1
 132 449 l 1
 309 449 l 1
421 449 m 1
 566 449 l 1
 566 426 l 1
 495 405 l 1
 366 259 l 1
 481 63 l 1
 519 18 l 1
 516 0 l 1
 380 0 l 1
 277 210 l 1
 448 408 l 1
 421 426 l 1
 421 449 l 1
EndSplineSet
Validated: 1
Ligature2: "SmallCapsClose subtable" k.smcpflag less slash s c greater
EndChar

StartChar: l.smcp
Encoding: 590 -1 602
Width: 470
VWidth: -3
Flags: MW
LayerCount: 2
Back
Fore
SplineSet
132 449 m 1
 370 449 l 1
 370 431 l 1
 302 410 l 1
 236 36 l 1
 389 36 l 1
 421 118 l 1
 465 111 l 1
 437 0 l 1
 53 0 l 1
 53 18 l 1
 128 43 l 1
 192 410 l 1
 132 431 l 1
 132 449 l 1
EndSplineSet
Validated: 1
Ligature2: "SmallCapsClose subtable" l.smcpflag less slash s c greater
EndChar

StartChar: m.smcp
Encoding: 591 -1 603
Width: 724
VWidth: 0
Flags: MW
LayerCount: 2
Back
Fore
SplineSet
119 449 m 1
 337 449 l 1
 393 168 l 1
 554 449 l 1
 750 449 l 1
 750 431 l 1
 682 410 l 1
 616 34 l 1
 677 18 l 1
 677 0 l 1
 439 0 l 1
 439 18 l 1
 508 43 l 1
 570 395 l 1
 567 395 l 1
 358 32 l 1
 306 32 l 1
 231 392 l 1
 226 392 l 1
 163 36 l 1
 217 20 l 1
 217 0 l 1
 44 0 l 1
 44 20 l 1
 114 36 l 1
 181 413 l 1
 119 428 l 1
 119 449 l 1
EndSplineSet
Validated: 1
Ligature2: "SmallCapsClose subtable" m.smcpflag less slash s c greater
EndChar

StartChar: n.smcp
Encoding: 592 -1 604
Width: 578
VWidth: 0
Flags: MW
LayerCount: 2
Back
Fore
SplineSet
119 449 m 1
 289 449 l 1
 453 149 l 1
 499 413 l 1
 446 429 l 1
 446 449 l 1
 614 449 l 1
 614 429 l 1
 548 413 l 1
 474 -5 l 1
 411 -5 l 1
 220 346 l 1
 218 346 l 1
 163 36 l 1
 217 20 l 1
 217 0 l 1
 44 0 l 1
 44 20 l 1
 114 36 l 1
 181 413 l 1
 119 428 l 1
 119 449 l 1
EndSplineSet
Validated: 1
Ligature2: "SmallCapsClose subtable" n.smcpflag less slash s c greater
EndChar

StartChar: o.smcp
Encoding: 593 -1 605
Width: 560
Flags: MW
AnchorPoint: "top" 282 449 basemark 0
LayerCount: 2
Back
Fore
SplineSet
338 423 m 3
 243 423 200 330 200 186 c 3
 200 85 230 26 301 26 c 3
 396 26 439 119 439 263 c 3
 439 364 409 423 338 423 c 3
359 461 m 3
 511 461 558 378 558 274 c 3
 558 111 446 -12 280 -12 c 3
 128 -12 81 71 81 175 c 3
 81 338 193 461 359 461 c 3
EndSplineSet
Validated: 1048577
Ligature2: "SmallCapsClose subtable" o.smcpflag less slash s c greater
EndChar

StartChar: p.smcp
Encoding: 594 -1 606
Width: 516
VWidth: 0
Flags: MW
LayerCount: 2
Back
Fore
SplineSet
285 184 m 1
 291 216 l 1
 367 216 410 256 410 345 c 3
 410 398.084960938 391 413 347 413 c 2
 303 413 l 1
 236 34 l 1
 307 18 l 1
 307 0 l 1
 53 0 l 1
 53 18 l 1
 128 43 l 1
 193 413 l 1
 130 431 l 1
 130 449 l 1
 369 449 l 2
 487 449 529 432.153320312 529 352 c 3
 529 250.955078125 464 184 285 184 c 1
EndSplineSet
Validated: 1
Ligature2: "SmallCapsClose subtable" p.smcpflag less slash s c greater
EndChar

StartChar: q.smcp
Encoding: 595 -1 607
Width: 560
VWidth: -3
Flags: MW
LayerCount: 2
Back
Fore
SplineSet
212 -16 m 1
 379 -51 l 1
 376 -66 l 1
 344 -118 l 1
 200 -44 l 1
 212 -16 l 1
EndSplineSet
Refer: 605 -1 N 1 0 0 1 0 0 2
Validated: 1
Ligature2: "SmallCapsClose subtable" q.smcpflag less slash s c greater
EndChar

StartChar: r.smcp
Encoding: 596 -1 608
Width: 547
VWidth: 0
Flags: MW
LayerCount: 2
Back
Fore
SplineSet
303 413 m 1
 235 31 l 1
 293 20 l 1
 293 0 l 1
 53 0 l 1
 53 18 l 1
 128 43 l 1
 193 413 l 1
 130 431 l 1
 130 449 l 1
 371 449 l 2
 487 449 526 434.87109375 526 356 c 3
 526 273.978515625 465 242 392 227 c 1
 486 63 l 1
 520 18 l 1
 517 0 l 1
 382 0 l 1
 292 223 l 1
 294 234 l 5
 359 234 407 276.046875 407 350 c 3
 407 400.16015625 395 413 356 413 c 2
 303 413 l 1
EndSplineSet
Validated: 1
Ligature2: "SmallCapsClose subtable" r.smcpflag less slash s c greater
EndChar

StartChar: s.smcp
Encoding: 597 -1 609
Width: 466
VWidth: 0
Flags: MW
AnchorPoint: "bottom" 236 0 basemark 0
AnchorPoint: "top" 243 449 basemark 0
LayerCount: 2
Back
Fore
SplineSet
328 461 m 3
 387 461 441 449 469 438 c 1
 455 332 l 1
 409 331 l 1
 401 402 l 1
 388 415 357 426 310 426 c 3
 243 426 216 398.579101562 216 359 c 3
 216 317.211914062 259.116182426 300.185436337 309 277 c 0
 380 244 441 220.103515625 441 138 c 3
 441 37.8515625 370 -12 221 -12 c 3
 163 -12 102 1 68 18 c 1
 78 127 l 1
 128 128 l 1
 133 57 l 1
 152 38 194 26 243 26 c 3
 312 26 341 54.337890625 341 98 c 3
 341 137.788085938 305.110680023 153.34157854 248 179 c 0
 179 210 122 248.8515625 122 315 c 3
 122 402.06640625 192 461 328 461 c 3
EndSplineSet
Validated: 1
Ligature2: "SmallCapsClose subtable" s.smcpflag less slash s c greater
EndChar

StartChar: t.smcp
Encoding: 598 -1 610
Width: 506
VWidth: -3
Flags: MW
LayerCount: 2
Back
Fore
SplineSet
115 454 m 1
 134 454 l 1
 188 449 l 1
 470 449 l 1
 526 454 l 1
 545 454 l 1
 539 343 l 5
 495 339 l 5
 486 413 l 1
 381 413 l 1
 314 34 l 1
 375 18 l 1
 375 0 l 1
 131 0 l 1
 131 18 l 1
 206 43 l 1
 271 413 l 1
 160 413 l 1
 138 339 l 5
 93 343 l 5
 115 454 l 1
EndSplineSet
Validated: 1
Ligature2: "SmallCapsClose subtable" t.smcpflag less slash s c greater
EndChar

StartChar: u.smcp
Encoding: 599 -1 611
Width: 567
VWidth: 0
Flags: MW
AnchorPoint: "top" 321 449 basemark 0
LayerCount: 2
Back
Fore
SplineSet
537 413 m 1
 497 188 l 2
 478 82 442 -12 292 -12 c 3
 140 -12 114.145667932 53.148084225 137 185 c 2
 176 410 l 1
 116 431 l 1
 116 449 l 1
 349 449 l 1
 349 431 l 1
 286 410 l 1
 246 184 l 2
 228.695724808 86.2308451667 246 42 326 42 c 3
 402 42 428 74 448 187 c 2
 488 413 l 1
 435 429 l 1
 435 449 l 1
 603 449 l 1
 603 429 l 1
 537 413 l 1
EndSplineSet
Validated: 1048609
Ligature2: "SmallCapsClose subtable" u.smcpflag less slash s c greater
EndChar

StartChar: v.smcp
Encoding: 600 -1 612
Width: 460
VWidth: -3
Flags: MW
LayerCount: 2
Back
Fore
SplineSet
490 413 m 17
 253 -12 l 1
 207 -12 l 1
 117 417 l 1
 66 431 l 1
 66 449 l 1
 282 449 l 1
 282 431 l 1
 235 415 l 1
 288 131 l 1
 442 416 l 1
 390 431 l 1
 390 449 l 1
 556 449 l 1
 556 431 l 1
 490 413 l 17
EndSplineSet
Validated: 1
Ligature2: "SmallCapsClose subtable" v.smcpflag less slash s c greater
EndChar

StartChar: w.smcp
Encoding: 601 -1 613
Width: 677
VWidth: -3
Flags: MW
AnchorPoint: "top" 348 449 basemark 0
LayerCount: 2
Back
Fore
SplineSet
471 430 m 1
 528 134 l 1
 659 416 l 1
 607 431 l 1
 607 449 l 1
 773 449 l 1
 773 431 l 1
 707 413 l 17
 496 -6 l 1
 445 -6 l 1
 385 301 l 1
 234 -6 l 1
 183 -6 l 1
 117 417 l 1
 66 431 l 1
 66 449 l 1
 282 449 l 1
 282 431 l 1
 233 415 l 1
 270 145 l 1
 410 430 l 1
 471 430 l 1
EndSplineSet
Validated: 1048577
Ligature2: "SmallCapsClose subtable" w.smcpflag less slash s c greater
EndChar

StartChar: x.smcp
Encoding: 602 -1 614
Width: 516
VWidth: 0
Flags: HMW
LayerCount: 2
Back
SplineSet
276 250 m 5
 295 226 l 5
 147 34 l 5
 178 18 l 5
 178 0 l 5
 33 0 l 5
 33 18 l 5
 101 36 l 5
 276 250 l 5
331 236 m 5
 313 260 l 5
 433 417 l 5
 413 431 l 5
 413 449 l 5
 544 449 l 5
 544 431 l 5
 478 415 l 5
 331 236 l 5
294 417 m 5
 343 264 l 5
 436 36 l 5
 489 18 l 5
 489 0 l 5
 298 0 l 5
 298 18 l 5
 313 30 l 5
 256 209 l 5
 170 414 l 5
 117 431 l 5
 117 449 l 5
 314 449 l 5
 314 431 l 5
 294 417 l 5
EndSplineSet
Fore
SplineSet
117 449 m 1
 314 449 l 1
 314 431 l 1
 294 417 l 1
 335 289 l 1
 433 417 l 1
 413 431 l 1
 413 449 l 1
 544 449 l 1
 544 431 l 1
 478 415 l 1
 347 255 l 1
 436 36 l 1
 489 18 l 1
 489 0 l 1
 298 0 l 1
 298 18 l 1
 313 30 l 1
 264 185 l 1
 147 34 l 1
 178 18 l 1
 178 0 l 1
 33 0 l 1
 33 18 l 1
 101 36 l 1
 251 220 l 1
 170 414 l 1
 117 431 l 1
 117 449 l 1
EndSplineSet
Validated: 1
LCarets2: 5 0 0 0 0 0
Ligature2: "SmallCapsClose subtable" x.smcpflag less slash s c greater
EndChar

StartChar: y.smcp
Encoding: 603 -1 615
Width: 472
VWidth: 0
Flags: HMW
LayerCount: 2
Back
Fore
SplineSet
81 449 m 1
 292 449 l 1
 292 431 l 1
 250 415 l 1
 308 232 l 1
 429 416 l 1
 382 431 l 1
 382 449 l 1
 543 449 l 1
 543 431 l 1
 477 413 l 1
 321 190 l 1
 294 34 l 1
 355 18 l 1
 355 0 l 1
 111 0 l 1
 111 18 l 1
 186 43 l 1
 211 191 l 1
 132 417 l 1
 81 431 l 1
 81 449 l 1
EndSplineSet
Validated: 1
LCarets2: 5 0 0 0 0 0
Ligature2: "SmallCapsClose subtable" y.smcpflag less slash s c greater
EndChar

StartChar: z.smcp
Encoding: 604 -1 616
Width: 489
VWidth: 0
Flags: MW
AnchorPoint: "top" 230 449 basemark 0
LayerCount: 2
Back
Fore
SplineSet
380 36 m 1
 414 124 l 1
 459 116 l 1
 428 0 l 1
 57 0 l 1
 53 18 l 1
 350 413 l 1
 202 413 l 1
 173 329 l 1
 126 336 l 1
 156 454 l 1
 176 454 l 1
 230 449 l 1
 495 449 l 1
 501 432 l 1
 202 36 l 1
 380 36 l 1
EndSplineSet
Validated: 1048577
Ligature2: "SmallCapsClose subtable" z.smcpflag less slash s c greater
EndChar

StartChar: startsc
Encoding: 617 57383 617
Width: 500
VWidth: 0
Flags: MW
LayerCount: 2
Back
Fore
SplineSet
175.865234375 -187.642578125 m 3
 159.545898438 -187.642578125 147.666015625 -196.762695312 147.666015625 -210.5625 c 3
 147.666015625 -223.162109375 155.225585938 -230.122070312 172.625976562 -235.522460938 c 0
 185.5859375 -239.482421875 189.065429688 -242.602539062 189.065429688 -249.5625 c 3
 189.065429688 -257.602539062 182.706054688 -261.921875 173.825195312 -261.921875 c 3
 165.185546875 -261.921875 158.5859375 -258.801757812 152.5859375 -253.642578125 c 1
 144.305664062 -262.762695312 l 1
 151.145507812 -269.482421875 160.985351562 -274.162109375 174.185546875 -274.162109375 c 3
 193.985351562 -274.162109375 205.625976562 -263.602539062 205.625976562 -248.72265625 c 3
 205.625976562 -233.122070312 195.545898438 -227.122070312 181.025390625 -222.5625 c 0
 167.225585938 -218.2421875 163.985351562 -215.602539062 163.985351562 -209.602539062 c 3
 163.985351562 -203.122070312 169.385742188 -199.762695312 176.825195312 -199.762695312 c 3
 183.666015625 -199.762695312 189.42578125 -201.921875 195.42578125 -206.841796875 c 1
 203.225585938 -197.841796875 l 1
 196.025390625 -191.2421875 187.985351562 -187.642578125 175.865234375 -187.642578125 c 3
250.69140625 -187.642578125 m 3
 230.53125 -187.642578125 214.69140625 -202.881835938 214.69140625 -230.72265625 c 3
 214.69140625 -258.921875 229.69140625 -274.162109375 251.170898438 -274.162109375 c 3
 262.451171875 -274.162109375 271.090820312 -269.2421875 276.130859375 -264.08203125 c 1
 268.69140625 -254.482421875 l 1
 263.891601562 -258.08203125 258.971679688 -261.442382812 251.891601562 -261.442382812 c 3
 240.01171875 -261.442382812 231.37109375 -252.5625 231.37109375 -230.72265625 c 3
 231.37109375 -208.282226562 240.250976562 -199.881835938 251.651367188 -199.881835938 c 3
 257.411132812 -199.881835938 262.331054688 -201.921875 267.01171875 -205.881835938 c 1
 275.170898438 -196.40234375 l 1
 268.451171875 -190.762695312 261.611328125 -187.642578125 250.69140625 -187.642578125 c 3
60 -130 m 2
 360 -130 l 2
 415.400390625 -130 460 -174.599609375 460 -230 c 3
 460 -285.400390625 415.400390625 -330 360 -330 c 2
 60 -330 l 2
 4.599609375 -330 -40 -285.400390625 -40 -230 c 3
 -40 -174.599609375 4.599609375 -130 60 -130 c 2
0 0 m 1
 500 0 l 1
 500 -44 l 1
 0 -44 l 1
 0 0 l 1
EndSplineSet
Validated: 1
Ligature2: "SmallCapsOpen subtable" less s c greater
EndChar

